<svg width="341" height="250" viewBox="0 0 341 250" fill="none" xmlns="http://www.w3.org/2000/svg">
<ellipse cx="236.95" cy="225.638" rx="220.312" ry="216.169" fill="white"/>
<g filter="url(#filter0_d)">
<path d="M454.262 225.638C454.262 343.314 357.022 438.807 236.95 438.807C116.879 438.807 19.6389 343.314 19.6389 225.638C19.6389 107.961 116.879 12.469 236.95 12.469C357.022 12.469 454.262 107.961 454.262 225.638Z" stroke="#F7F7F7" stroke-width="6"/>
</g>
<mask id="mask0" mask-type="alpha" maskUnits="userSpaceOnUse" x="16" y="9" width="442" height="433">
<ellipse cx="236.95" cy="225.638" rx="220.312" ry="216.169" fill="#003C88"/>
</mask>
<g mask="url(#mask0)">
<g opacity="0.28">
<path fill-rule="evenodd" clip-rule="evenodd" d="M120.005 28.5229C120.005 28.5229 155.109 40.0043 207.765 40.0043C237.369 40.0043 242.607 50.0694 246.539 57.6236C249.255 62.843 251.348 66.8637 260.422 65.5377C260.995 65.454 261.474 65.2563 261.875 64.9612L324.78 40.0043C336.197 38.541 347.119 40.7872 355.541 42.5192C365.241 44.514 371.624 45.8266 371.624 40.0043C350.171 20.8684 294.393 -15.1072 242.907 -5.92192C191.42 3.26332 131.706 20.8685 120.005 28.5229ZM73.1972 72.974L111.048 80.4018C120.678 82.2917 125.092 93.5402 119.315 101.475C112.618 110.675 119.764 123.969 131.059 125.359C155.658 128.385 177.648 138.626 160.959 164.826C137.556 201.567 127.805 222.234 125.854 227.975L125.334 230.529C122.15 246.15 109.338 257.987 93.5147 259.928L92.9573 259.996C80.6587 261.504 68.4469 256.593 60.617 246.99C53.7683 238.59 43.5049 233.716 32.6668 233.716H20.5401C11.381 233.716 4.43871 225.454 6.22817 216.472C17.8207 158.281 41.9454 68.8201 67.3464 72.974C95.4302 77.5667 82.9485 74.8876 73.1972 72.974ZM73.6056 279.242L64.4971 288.179C62.5228 290.116 60.1279 291.571 57.4989 292.431L14.6652 306.441C10.8878 307.676 7.62686 310.13 5.39329 313.417C0.590234 320.486 1.4342 329.961 7.4111 336.07L67.3464 397.328L99.0586 421.777C105.095 426.43 112.333 429.264 119.926 429.931C142.705 431.931 174.571 434.643 178.511 434.643C184.362 434.643 219.467 434.643 219.467 428.903C219.467 427.639 219.751 424.426 220.131 420.123V420.123C221.476 404.885 224.029 375.972 219.467 371.495C215.014 367.125 157.242 334.692 124.766 316.72C121.593 314.963 118.691 312.799 116.102 310.259L92.4395 287.041C91.3284 285.951 90.4887 284.615 89.988 283.142C87.6311 276.204 78.8357 274.11 73.6056 279.242ZM231.169 159.086L240.505 152.215C249.35 145.707 254.572 135.38 254.572 124.399C254.572 117.095 256.888 109.979 261.186 104.073L271.808 89.4825C279.077 79.4969 291.661 74.8963 303.657 77.8391C306.03 78.4211 308.46 78.7153 310.903 78.7153H377.438C400.769 78.7153 420.331 91.9221 430.757 101.878C434.391 105.349 438.197 108.681 442.58 111.139L459.33 120.53C470.383 126.728 477.846 137.795 479.447 150.366L493.046 257.109C493.933 264.072 491.511 271.048 486.501 275.964C484.035 278.384 481.044 280.201 477.76 281.275L467.25 284.713C455.206 288.652 441.971 285.554 432.927 276.68C431.046 274.834 428.956 273.214 426.7 271.851L361.047 232.209C356.42 229.415 351.276 227.588 345.923 226.838L320.962 223.339C315.758 222.61 310.749 220.863 306.221 218.197L292.973 210.398C286.984 206.872 280.161 205.012 273.211 205.012C264.903 205.012 256.813 207.668 250.123 212.592L241.678 218.806C238.652 221.033 234.993 222.235 231.235 222.235C221.504 222.235 213.616 214.346 213.616 204.616V193.531V193.1C213.616 182.36 217.935 172.071 225.602 164.548L231.169 159.086ZM285.559 255.79L247.648 252.408C237.692 251.52 228.195 256.774 223.656 265.68C220.956 270.979 220.277 277.08 221.745 282.843L224.218 292.548C224.949 295.417 225.996 298.196 227.34 300.834L245.561 336.589C247.652 340.693 249.018 345.127 249.601 349.696L251.849 367.349C253.549 380.689 261.838 392.282 273.911 398.205L281.342 401.851C286.825 404.541 292.839 405.94 298.946 405.94H371.587C373.203 405.94 375.331 403.203 377.584 399.146C386.217 383.606 379.131 364.48 364.573 354.277L361.237 351.939C352.856 346.065 347.045 337.201 345.001 327.172L342.333 314.087L336.48 296.858C336.688 296.862 336.897 296.865 337.105 296.865H343.135C350.272 296.865 357.278 294.956 363.428 291.335L373.639 285.324C379.618 281.804 383.289 275.383 383.289 268.444C383.289 264.519 382.109 260.683 379.903 257.436L378.496 255.366C374.097 248.891 367.165 244.578 359.413 243.491L330.632 239.457C327.042 239.457 323.755 241.471 322.125 244.67L320.161 248.523C319.346 250.123 318.277 251.58 316.996 252.837L316.194 253.624C312.69 257.061 310.475 261.357 309.592 265.88L303.902 262.157C298.404 258.56 292.104 256.374 285.559 255.79Z" fill="#D9D9D9"/>
</g>
</g>
<defs>
<filter id="filter0_d" x="0.638916" y="0.468994" width="472.623" height="464.338" filterUnits="userSpaceOnUse" color-interpolation-filters="sRGB">
<feFlood flood-opacity="0" result="BackgroundImageFix"/>
<feColorMatrix in="SourceAlpha" type="matrix" values="0 0 0 0 0 0 0 0 0 0 0 0 0 0 0 0 0 0 127 0"/>
<feOffset dy="7"/>
<feGaussianBlur stdDeviation="8"/>
<feColorMatrix type="matrix" values="0 0 0 0 0 0 0 0 0 0 0 0 0 0 0 0 0 0 0.08 0"/>
<feBlend mode="normal" in2="BackgroundImageFix" result="effect1_dropShadow"/>
<feBlend mode="normal" in="SourceGraphic" in2="effect1_dropShadow" result="shape"/>
</filter>
</defs>
</svg>
