<svg width="672" height="672" viewBox="0 0 672 672" fill="none" xmlns="http://www.w3.org/2000/svg">
<circle cx="336" cy="329" r="320" fill="white"/>
<g filter="url(#filter0_d)">
<circle cx="336" cy="329" r="317" stroke="#F7F7F7" stroke-width="6"/>
</g>
<mask id="mask0" mask-type="alpha" maskUnits="userSpaceOnUse" x="16" y="9" width="640" height="640">
<circle cx="336" cy="329" r="320" fill="#003C88"/>
</mask>
<g mask="url(#mask0)">
<g opacity="0.28">
<path fill-rule="evenodd" clip-rule="evenodd" d="M166.14 37.2056C166.14 37.2056 217.127 54.2018 293.61 54.2018C336.609 54.2018 344.218 69.1014 349.928 80.2841C353.874 88.0104 356.913 93.9624 370.094 91.9996C370.926 91.8755 371.621 91.583 372.204 91.1461L463.574 54.2018C480.156 52.0357 496.021 55.3608 508.253 57.9247C522.342 60.8776 531.613 62.8207 531.613 54.2018C500.453 25.8745 419.437 -27.381 344.653 -13.7838C269.869 -0.186713 183.135 25.8746 166.14 37.2056ZM98.1526 103.008L152.842 113.946C167.055 116.788 173.603 133.348 165.178 145.143C155.378 158.864 166.057 178.475 182.781 180.629C218.273 185.2 249.734 200.406 225.626 238.979C191.633 293.368 177.469 323.961 174.636 332.46L171.792 346.68C168.416 363.563 154.615 376.391 137.53 378.526L120.365 380.672C106.564 382.397 92.8573 376.83 84.1687 365.969L76.1695 355.97C68.5786 346.481 57.0861 340.958 44.9348 340.958H21.6687C8.34978 340.958 -1.75851 328.959 0.791859 315.886C17.5952 229.757 52.6946 96.848 89.6544 103.008C130.446 109.807 112.316 105.841 98.1526 103.008ZM98.5659 408.531L85.4842 421.613C82.638 424.459 79.1681 426.603 75.3495 427.876L13.3753 448.534C7.73471 450.414 2.88172 454.121 -0.416367 459.068C-7.37253 469.502 -6.14218 483.369 2.54245 492.416L89.6544 583.157L139.836 622.586C145.91 627.358 153.22 630.27 160.913 630.961C194.12 633.945 245.095 638.396 251.12 638.396C259.618 638.396 310.608 638.396 310.608 629.897C310.608 628.026 311.02 623.271 311.572 616.901C313.526 594.343 317.235 551.542 310.608 544.915C304.04 538.348 217.639 488.956 170.916 462.624C167.74 460.834 164.831 458.626 162.253 456.048L126.067 419.862C124.476 418.271 123.277 416.331 122.565 414.196C119.158 403.975 106.185 400.912 98.5659 408.531ZM329.878 228.776L345.597 216.987C355.669 209.433 361.597 197.577 361.597 184.987V175.315C361.597 166.978 364.202 158.849 369.047 152.065L388.258 125.17C397.809 111.798 414.568 105.628 430.51 109.614L433.303 110.312C436.476 111.106 439.72 111.507 442.991 111.507H540.059C575.901 111.507 605.619 133.377 619.99 148.293C623.487 151.922 627.289 155.282 631.665 157.783L667.164 178.068C678.095 184.315 685.448 195.343 687.009 207.836L708.013 375.861C709.281 386.011 705.793 396.178 698.56 403.411C694.921 407.05 690.485 409.791 685.604 411.419L665.49 418.123C651.117 422.914 635.27 419.173 624.557 408.46L619.864 403.767C617.658 401.56 615.201 399.62 612.544 397.985L513.146 336.816C508.476 333.942 503.266 332.059 497.838 331.284L454.576 325.104C449.298 324.35 444.224 322.549 439.652 319.806L413.588 304.168C407.372 300.438 400.258 298.467 393.009 298.467H383.428C374.774 298.467 366.352 301.275 359.428 306.467L342.901 318.863C338.488 322.173 333.12 323.962 327.604 323.962C313.524 323.962 302.109 312.548 302.109 298.467V281.471V272.545C302.109 261.936 306.324 251.762 313.825 244.261L325.594 232.492C326.932 231.154 328.364 229.912 329.878 228.776ZM410.969 374.031L352.15 368.684C337.346 367.339 323.23 375.202 316.582 388.498C312.727 396.208 311.757 405.043 313.848 413.405L318.041 430.179C318.749 433.01 319.764 435.756 321.07 438.366L350.035 496.296C352.063 500.352 353.386 504.723 353.949 509.223L358.942 549.168C360.601 562.439 368.782 574.003 380.744 579.984L404.14 591.682C409.695 594.459 415.797 595.905 422.007 595.905H531.561C535.403 595.905 541.235 585.049 546.603 572.54C553.529 556.403 547.305 537.951 533.016 527.744L510.44 511.618C502.17 505.712 496.459 496.879 494.466 486.914L489.07 459.933L480.568 434.428C480.884 434.435 481.2 434.439 481.516 434.439H494.987C502.237 434.439 509.35 432.468 515.567 428.738L534.313 417.491C543.15 412.189 548.557 402.638 548.557 392.332C548.557 386.54 546.843 380.877 543.63 376.057L541.482 372.835C535.169 363.367 525.122 357.035 513.857 355.426L472.941 349.581C472.364 349.498 471.781 349.457 471.197 349.457C466.526 349.457 462.256 352.096 460.167 356.274L456.845 362.918C455.674 365.26 454.134 367.397 452.283 369.247L451.059 370.471C445.967 375.563 442.743 381.882 441.449 388.527L429.536 380.585C423.99 376.887 417.607 374.634 410.969 374.031Z" fill="#D9D9D9"/>
</g>
</g>
<defs>
<filter id="filter0_d" x="0" y="0" width="672" height="672" filterUnits="userSpaceOnUse" color-interpolation-filters="sRGB">
<feFlood flood-opacity="0" result="BackgroundImageFix"/>
<feColorMatrix in="SourceAlpha" type="matrix" values="0 0 0 0 0 0 0 0 0 0 0 0 0 0 0 0 0 0 127 0"/>
<feOffset dy="7"/>
<feGaussianBlur stdDeviation="8"/>
<feColorMatrix type="matrix" values="0 0 0 0 0 0 0 0 0 0 0 0 0 0 0 0 0 0 0.08 0"/>
<feBlend mode="normal" in2="BackgroundImageFix" result="effect1_dropShadow"/>
<feBlend mode="normal" in="SourceGraphic" in2="effect1_dropShadow" result="shape"/>
</filter>
</defs>
</svg>
