<svg width="18" height="19" viewBox="0 0 18 19" fill="none" xmlns="http://www.w3.org/2000/svg">
<path d="M8 13C9.10457 13 10 13.8954 10 15V19H0V15C0 13.8954 0.89543 13 2 13H8ZM8 15H2V17H8V15ZM5 4C7.20914 4 9 5.79086 9 8C9 10.2091 7.20914 12 5 12C2.79086 12 1 10.2091 1 8C1 5.79086 2.79086 4 5 4ZM5 6C3.89543 6 3 6.89543 3 8C3 9.10457 3.89543 10 5 10C6.10457 10 7 9.10457 7 8C7 6.89543 6.10457 6 5 6ZM12 0C13.6569 0 15 1.34315 15 3C15 4.65685 13.6569 6 12 6C10.3431 6 9 4.65685 9 3C9 1.34315 10.3431 0 12 0ZM12 2C11.4477 2 11 2.44772 11 3C11 3.55228 11.4477 4 12 4C12.5523 4 13 3.55228 13 3C13 2.44772 12.5523 2 12 2ZM13 8C16.3776 8 18 9.89704 18 13V15H12V13H16C16 10.82 15.3441 10 13 10.003L11 10V8H13Z" fill="#404040"/>
</svg>
