<svg width="40" height="80" viewBox="0 0 40 80" fill="none" xmlns="http://www.w3.org/2000/svg">
<rect width="40" height="80" fill="#FBCE07"/>
<rect x="1" y="41" width="38" height="38" fill="white"/>
<path d="M12.6365 69.5111L12.6902 69.9504H13.1328H18.553L18.7277 70.0877L18.7447 70.1011L18.7627 70.1129C19.1077 70.3389 19.5432 70.5 20 70.5C20.4287 70.5 20.8835 70.3849 21.2669 70.0919L21.2669 70.092L21.2723 70.0877L21.447 69.9504H26.8672H27.3064L27.3631 69.5149L27.8632 65.6701L31.0725 63.3844L31.2292 63.2728L31.2707 63.0851C31.4356 62.3395 31.5 61.5693 31.5 60.8092C31.5 54.5715 26.3592 49.5 20 49.5C13.6737 49.5 8.5 54.5392 8.5 60.8092C8.5 61.5693 8.56437 62.3395 8.72932 63.0851L8.77112 63.274L8.92922 63.3856L12.1662 65.67L12.6365 69.5111Z" fill="#FBCE07" stroke="white"/>
<path fill-rule="evenodd" clip-rule="evenodd" d="M18.726 69.4504H13.1328L12.6356 65.3893L9.21751 62.9771C9.06215 62.2748 9 61.542 9 60.8092C9 54.8244 13.9407 50 20 50C26.0593 50 31 54.855 31 60.8092C31 61.542 30.9379 62.2748 30.7825 62.9771L27.3955 65.3893L26.8672 69.4504H21.274L20.9633 69.6947C20.6836 69.9084 20.3418 70 20 70C19.6582 70 19.3164 69.8779 19.0367 69.6947L18.726 69.4504ZM14.8418 67.5573L14.4379 64.3206L11.0819 61.9389C10.9887 61.5725 10.9266 61.1756 10.9266 60.7786C10.9266 60.1374 11.0508 59.4962 11.3305 58.916L17.2655 64.8092L11.5169 57.8168C11.7345 56.9008 12.2316 56.1069 12.9463 55.4656L18.1045 64.229L13.5367 54.6718C14.1271 53.9084 14.9661 53.3282 15.8983 53.0534L19.0678 63.9237L16.7684 52.5954C17.4831 52.1985 18.2599 52.0153 19.0678 52.0153C19.2232 52.0153 19.4096 52.0153 19.565 52.0458L20.0311 63.8015L20.4972 52.0458C20.6525 52.0153 20.839 52.0153 20.9944 52.0153C21.8023 52.0153 22.5791 52.229 23.2938 52.5954L20.9944 63.9237L24.1638 53.0229C25.096 53.2977 25.935 53.8779 26.5254 54.6412L21.9266 64.229L27.0847 55.4656C27.7994 56.0763 28.2966 56.9008 28.5141 57.8168L22.7655 64.8092L28.7006 58.916C28.9802 59.4962 29.1045 60.1374 29.1045 60.7786C29.1045 61.1756 29.0424 61.542 28.9492 61.9389L25.5932 64.3206L25.1893 67.5573H21.1497L20.5282 67.9847C20.3729 68.1069 20.1864 68.1374 20 68.1374C19.8136 68.1374 19.6271 68.0763 19.4718 67.9847L18.9124 67.5573H14.8418Z" fill="#DD1D21"/>
</svg>
