<svg width="257" height="143" viewBox="0 0 257 143" fill="none" xmlns="http://www.w3.org/2000/svg">
<path d="M256.126 21.7707L256.963 60.6833L167.44 102.224L142.455 115.138C141.99 115.381 141.476 115.508 140.956 115.508C140.435 115.508 139.922 115.381 139.457 115.138L92.6381 90.8704C92.216 90.6498 91.8612 90.3121 91.6134 89.895C91.3656 89.4779 91.2344 88.9977 91.2344 88.5079C91.2344 88.0182 91.3656 87.538 91.6134 87.1209C91.8612 86.7038 92.216 86.3661 92.6381 86.1454L114.52 74.8089L236.428 21.7623L256.126 21.7707Z" fill="url(#paint0_linear_28_612)"/>
<path d="M192.446 118.135L144.594 142.057C143.86 142.371 143.066 142.522 142.268 142.497C141.47 142.473 140.687 142.274 139.973 141.914L92.4062 118.135L0.837158 72.3504V55.2419H76.4946L144.887 89.4255L192.446 113.205C192.907 113.431 193.295 113.782 193.567 114.218C193.838 114.653 193.982 115.156 193.982 115.67C193.982 116.183 193.838 116.687 193.567 117.122C193.295 117.558 192.907 117.909 192.446 118.135V118.135Z" fill="url(#paint1_linear_28_612)"/>
<path d="M191.609 62.893L143.757 86.8148C143.023 87.1295 142.229 87.2798 141.431 87.2552C140.633 87.2307 139.849 87.0317 139.136 86.6725L91.569 62.893L0 17.1085V0H75.6574L144.05 34.1835L191.609 57.963C192.07 58.1891 192.458 58.5399 192.73 58.9756C193.001 59.4114 193.145 59.9145 193.145 60.428C193.145 60.9415 193.001 61.4447 192.73 61.8804C192.458 62.3161 192.07 62.6669 191.609 62.893V62.893Z" fill="url(#paint2_linear_28_612)"/>
<path d="M180.694 80.6885L149.616 96.2318C147.327 97.3752 144.804 97.9705 142.246 97.9705C139.688 97.9705 137.164 97.3752 134.876 96.2318L103.789 80.6885L114.771 75.1977L131.252 66.9615L134.876 68.7695C137.164 69.9129 139.688 70.5082 142.246 70.5082C144.804 70.5082 147.327 69.9129 149.616 68.7695L153.232 66.9615L169.712 75.1977L180.694 80.6885Z" fill="#003C88"/>
<path d="M191.844 91.0803L169.506 102.387L144.73 114.928C143.974 115.309 143.141 115.507 142.296 115.507C141.452 115.507 140.619 115.309 139.863 114.928L115.078 102.387L92.74 91.0803C92.2876 90.8518 91.9071 90.5003 91.6412 90.0651C91.3752 89.6299 91.2344 89.1283 91.2344 88.6166C91.2344 88.1049 91.3752 87.6033 91.6412 87.1681C91.9071 86.7329 92.2876 86.3814 92.74 86.1529L104.199 80.3525L131.405 94.1274L134.995 95.9405C137.262 97.0872 139.762 97.6842 142.296 97.6842C144.831 97.6842 147.33 97.0872 149.597 95.9405L153.179 94.1274L180.385 80.3525L191.844 86.1529C192.296 86.3814 192.677 86.7329 192.943 87.1681C193.209 87.6033 193.35 88.1049 193.35 88.6166C193.35 89.1283 193.209 89.6299 192.943 90.0651C192.677 90.5003 192.296 90.8518 191.844 91.0803Z" fill="#003C88"/>
<path d="M192.794 118.544L145.235 142.332C144.471 142.711 143.631 142.909 142.778 142.909C141.926 142.909 141.085 142.711 140.321 142.332L92.7542 118.544C92.2976 118.316 91.9135 117.966 91.645 117.532C91.3766 117.098 91.2344 116.598 91.2344 116.087C91.2344 115.577 91.3766 115.077 91.645 114.643C91.9135 114.209 92.2976 113.858 92.7542 113.631L104.322 107.847L135.408 123.39C137.697 124.534 140.22 125.129 142.778 125.129C145.336 125.129 147.859 124.534 150.148 123.39L181.226 107.847L192.794 113.631C193.25 113.858 193.634 114.209 193.903 114.643C194.171 115.077 194.313 115.577 194.313 116.087C194.313 116.598 194.171 117.098 193.903 117.532C193.634 117.966 193.25 118.316 192.794 118.544V118.544Z" fill="#008443"/>
<path d="M145.235 87.3902C144.473 87.7743 143.631 87.9744 142.778 87.9744C141.925 87.9744 141.083 87.7743 140.321 87.3902L92.7542 63.6107C92.2976 63.3829 91.9135 63.0323 91.645 62.5984C91.3766 62.1645 91.2344 61.6643 91.2344 61.154C91.2344 60.6438 91.3766 60.1436 91.645 59.7097C91.9135 59.2758 92.2976 58.9252 92.7542 58.6974L140.321 34.9012C141.083 34.5171 141.925 34.317 142.778 34.317C143.631 34.317 144.473 34.5171 145.235 34.9012L192.794 58.6807C193.25 58.9085 193.634 59.259 193.903 59.693C194.171 60.1269 194.313 60.6271 194.313 61.1373C194.313 61.6476 194.171 62.1477 193.903 62.5817C193.634 63.0156 193.25 63.3661 192.794 63.5939L145.235 87.3902Z" fill="#FBCF09"/>
<defs>
<linearGradient id="paint0_linear_28_612" x1="153.173" y1="86.2122" x2="245.953" y2="35.4687" gradientUnits="userSpaceOnUse">
<stop offset="0.3" stop-color="#003C88"/>
<stop offset="1" stop-color="white" stop-opacity="0"/>
</linearGradient>
<linearGradient id="paint1_linear_28_612" x1="45.1987" y1="66.9601" x2="111.323" y2="117.181" gradientUnits="userSpaceOnUse">
<stop stop-color="white" stop-opacity="0"/>
<stop offset="0.8" stop-color="#00833E"/>
</linearGradient>
<linearGradient id="paint2_linear_28_612" x1="41.0135" y1="6.69609" x2="125.552" y2="59.4277" gradientUnits="userSpaceOnUse">
<stop stop-color="white" stop-opacity="0"/>
<stop offset="0.8" stop-color="#FBCF09"/>
</linearGradient>
</defs>
</svg>
