<svg width="115" height="106" viewBox="0 0 115 106" fill="none" xmlns="http://www.w3.org/2000/svg">
<path fill-rule="evenodd" clip-rule="evenodd" d="M53.4286 106C79.3172 106 100.905 87.7348 105.811 63.4866H109.016C110.112 63.4866 111 62.5984 111 61.5027C111 60.407 110.112 59.5187 109.016 59.5187H106.457H102.984C101.888 59.5187 101 58.6305 101 57.5348C101 56.4391 101.888 55.5508 102.984 55.5508H106.796H109.016H112.52C113.89 55.5508 115 54.4405 115 53.0709C115 51.7012 113.89 50.5909 112.52 50.5909H106.803C105.533 22.438 82.1225 0 53.4286 0C42.4433 0 32.2323 3.28873 23.7417 8.92781H10.4799C9.11031 8.92781 8 10.0381 8 11.4078C8 12.7774 9.11031 13.8877 10.4799 13.8877H17.3726H24.016C25.1118 13.8877 26 14.7759 26 15.8717C26 16.9674 25.1118 17.8556 24.016 17.8556H13.4349H4.98396C3.88825 17.8556 3 18.7439 3 19.8396C3 20.9353 3.88825 21.8235 4.98396 21.8235H10.2168C3.79119 30.5723 0 41.347 0 53C0 82.2711 23.9208 106 53.4286 106Z" fill="#D9D9D9"/>
<mask id="mask0_1527_10572" style="mask-type:alpha" maskUnits="userSpaceOnUse" x="0" y="0" width="107" height="106">
<ellipse cx="53.4286" cy="53" rx="53.4286" ry="53" fill="#D9D9D9"/>
</mask>
<g mask="url(#mask0_1527_10572)">
<g filter="url(#filter0_d_1527_10572)">
<rect x="27.1958" y="23.8075" width="57.09" height="80.7603" fill="white"/>
<rect x="27.6958" y="24.3075" width="56.09" height="79.7603" stroke="#F7F7F8"/>
</g>
<g filter="url(#filter1_d_1527_10572)">
<rect x="25" y="28.7673" width="57.09" height="80.7603" fill="white"/>
<rect x="25.5" y="29.2673" width="56.09" height="79.7603" stroke="#EEEEEE"/>
</g>
<ellipse cx="44" cy="68.4465" rx="3" ry="2.97594" fill="#C4C4C4"/>
<ellipse cx="54" cy="68.4465" rx="3" ry="2.97594" fill="#C4C4C4"/>
<ellipse cx="64" cy="68.4465" rx="3" ry="2.97594" fill="#003C88"/>
</g>
<defs>
<filter id="filter0_d_1527_10572" x="23.1958" y="17.8075" width="65.0898" height="88.7603" filterUnits="userSpaceOnUse" color-interpolation-filters="sRGB">
<feFlood flood-opacity="0" result="BackgroundImageFix"/>
<feColorMatrix in="SourceAlpha" type="matrix" values="0 0 0 0 0 0 0 0 0 0 0 0 0 0 0 0 0 0 127 0" result="hardAlpha"/>
<feOffset dy="-2"/>
<feGaussianBlur stdDeviation="2"/>
<feColorMatrix type="matrix" values="0 0 0 0 0 0 0 0 0 0 0 0 0 0 0 0 0 0 0.05 0"/>
<feBlend mode="normal" in2="BackgroundImageFix" result="effect1_dropShadow_1527_10572"/>
<feBlend mode="normal" in="SourceGraphic" in2="effect1_dropShadow_1527_10572" result="shape"/>
</filter>
<filter id="filter1_d_1527_10572" x="21" y="22.7673" width="65.0898" height="88.7603" filterUnits="userSpaceOnUse" color-interpolation-filters="sRGB">
<feFlood flood-opacity="0" result="BackgroundImageFix"/>
<feColorMatrix in="SourceAlpha" type="matrix" values="0 0 0 0 0 0 0 0 0 0 0 0 0 0 0 0 0 0 127 0" result="hardAlpha"/>
<feOffset dy="-2"/>
<feGaussianBlur stdDeviation="2"/>
<feColorMatrix type="matrix" values="0 0 0 0 0 0 0 0 0 0 0 0 0 0 0 0 0 0 0.05 0"/>
<feBlend mode="normal" in2="BackgroundImageFix" result="effect1_dropShadow_1527_10572"/>
<feBlend mode="normal" in="SourceGraphic" in2="effect1_dropShadow_1527_10572" result="shape"/>
</filter>
</defs>
</svg>
