<svg width="21" height="20" viewBox="0 0 21 20" fill="none" xmlns="http://www.w3.org/2000/svg">
<path d="M20.0142 0L20 18.0114C20 18.8462 19.3677 20 17.9987 20H1.99809C0.730262 20 0.00532791 19.1732 0.0147572 18.0114L0 14H3L3.01523 0H20.0142ZM18.012 1.999H5.013L4.99782 16L2 15.999V17.9991L13.9946 18.0219L14 15.9998H5V14H16L15.999 18H18L18.012 1.999ZM7.00525 10.0138L16.0016 10.0266L15.998 12.0266L7.00161 12.0138L7.00525 10.0138ZM7.00525 7.02148L16.0016 7.0343L15.998 9.0343L7.00161 9.02148L7.00525 7.02148ZM11.002 4.01782V6.01782H7.00202V4.01782H11.002ZM12.0032 4.005L16.0032 4.01783L15.9968 6.01782L11.9968 6.00499L12.0032 4.005Z" fill="#404040"/>
</svg>
