<svg width="16" height="20" viewBox="0 0 16 20" fill="none" xmlns="http://www.w3.org/2000/svg">
<path d="M10.0001 19V20H6.00012V19H10.0001ZM11.0001 17V18H5.00012V17H11.0001ZM8.00012 0C11.59 0 15.0077 2.04553 15.0077 6.5C15.0077 9.85919 12.2376 12.1215 12.0067 15.5465L11.9915 16H4.00305C4.00305 12.3161 0.993164 11.0078 0.993164 6.5C0.993164 1.99219 4.41027 0 8.00012 0ZM8.00012 2C4.94898 2 2.99316 3.59335 2.99316 6.5C2.99316 7.89411 3.27582 8.79676 4.07796 10.2809L4.58099 11.1883C5.10427 12.138 5.47388 12.9446 5.70489 13.7566L5.76812 14H7.00012V10H6.00012V9H10.0001V10H9.00012V14H10.2021L10.2141 13.9474C10.426 13.0434 10.8 12.128 11.3808 10.946L11.8742 9.96809C12.7152 8.31524 13.0077 7.47628 13.0077 6.5C13.0077 3.6256 11.0245 2 8.00012 2Z" fill="#404040"/>
</svg>
