<svg width="49" height="74" viewBox="0 0 49 74" fill="none" xmlns="http://www.w3.org/2000/svg">
<path d="M25.665 48.5861C25.386 48.5861 25.109 48.5738 24.833 48.5575L10.59 48.5656C10.436 48.5769 10.283 48.5871 10.126 48.5871C4.542 48.5871 0 43.9446 0 38.2384C0 32.5321 4.542 27.8897 10.126 27.8897C11.311 27.8897 12.487 28.1053 13.597 28.5202C15.878 23.9298 20.543 20.9438 25.665 20.9438C32.063 20.9438 37.434 25.4085 38.834 31.5981C39.397 31.4755 39.973 31.4142 40.556 31.4142C45.189 31.4142 48.957 35.2657 48.957 40.0001C48.957 44.4351 45.569 48.1916 41.244 48.5513C41.231 48.5513 41.147 48.5575 41.135 48.5585L26.407 48.5605C26.22 48.5748 25.944 48.5861 25.665 48.5861ZM24.923 45.4948C25.531 45.5255 25.883 45.5235 26.319 45.4979L41.052 45.4948C43.78 45.2639 45.957 42.8502 45.957 40.0001C45.957 36.9559 43.534 34.4798 40.556 34.4798C39.768 34.4798 38.999 34.6566 38.272 35.0041C37.83 35.2166 37.315 35.1952 36.89 34.9458C36.466 34.6975 36.188 34.254 36.143 33.7574C35.639 28.2003 31.134 24.0085 25.665 24.0085C21.255 24.0085 17.279 26.8524 15.771 31.0861C15.62 31.5102 15.294 31.8444 14.881 32.0007C14.467 32.1561 14.006 32.1193 13.624 31.8965C12.556 31.2803 11.347 30.9543 10.126 30.9543C6.196 30.9543 3 34.2213 3 38.2374C3 42.2534 6.197 45.5204 10.126 45.5204C10.213 45.5204 10.298 45.5132 10.383 45.5071L10.533 45.4969L24.922 45.4938L24.923 45.4948Z" fill="white"/>
<path d="M24.479 73.9259C24.095 73.9259 23.711 73.7767 23.418 73.4773L9.06499 58.81C8.47899 58.2112 8.47899 57.2414 9.06499 56.6426C9.65099 56.0438 10.6 56.0438 11.186 56.6426L24.478 70.2256L37.77 56.6426C38.356 56.0438 39.305 56.0438 39.891 56.6426C40.477 57.2414 40.477 58.2112 39.891 58.81L25.538 73.4773C25.245 73.7767 24.861 73.9259 24.477 73.9259H24.479Z" fill="white"/>
<path d="M38.831 17.7862C38.447 17.7862 38.063 17.637 37.77 17.3376L24.479 3.75352L11.187 17.3365C10.601 17.9354 9.65196 17.9354 9.06596 17.3365C8.47996 16.7387 8.47996 15.7669 9.06596 15.1691L23.418 0.501857C24.004 -0.096973 24.953 -0.096973 25.539 0.501857L39.892 15.1691C40.478 15.7669 40.478 16.7387 39.892 17.3365C39.599 17.6359 39.215 17.7851 38.831 17.7851V17.7862Z" fill="white"/>
</svg>
