<svg width="87" height="53" viewBox="0 0 87 53" fill="none" xmlns="http://www.w3.org/2000/svg">
<g clip-path="url(#clip0_105_2470)">
<path d="M18.219 27.8459H1.5C0.672 27.8459 0 27.1739 0 26.3459C0 25.5179 0.672 24.8459 1.5 24.8459H18.219C19.047 24.8459 19.719 25.5179 19.719 26.3459C19.719 27.1739 19.047 27.8459 18.219 27.8459Z" fill="white"/>
<path d="M85.192 27.8459H67.912C67.084 27.8459 66.412 27.1739 66.412 26.3459C66.412 25.5179 67.084 24.8459 67.912 24.8459H85.192C86.02 24.8459 86.692 25.5179 86.692 26.3459C86.692 27.1739 86.02 27.8459 85.192 27.8459Z" fill="white"/>
<path d="M43.065 33.515C39.112 33.515 35.896 30.299 35.896 26.346C35.896 22.393 39.112 19.178 43.065 19.178C47.018 19.178 50.234 22.394 50.234 26.346C50.234 30.298 47.018 33.515 43.065 33.515ZM43.065 22.178C40.766 22.178 38.896 24.048 38.896 26.346C38.896 28.644 40.766 30.515 43.065 30.515C45.364 30.515 47.234 28.645 47.234 26.346C47.234 24.047 45.364 22.178 43.065 22.178Z" fill="white"/>
<path d="M43.065 43.447C33.635 43.447 25.964 35.776 25.964 26.346C25.964 16.916 33.635 9.245 43.065 9.245C52.495 9.245 60.166 16.916 60.166 26.346C60.166 35.776 52.495 43.447 43.065 43.447ZM43.065 12.246C35.29 12.246 28.964 18.572 28.964 26.347C28.964 34.122 35.289 40.448 43.065 40.448C50.841 40.448 57.166 34.123 57.166 26.347C57.166 18.571 50.841 12.246 43.065 12.246Z" fill="white"/>
<path d="M43.065 52.693C28.538 52.693 16.718 40.874 16.718 26.346C16.718 11.818 28.538 0 43.065 0C57.592 0 69.412 11.819 69.412 26.346C69.412 40.873 57.593 52.693 43.065 52.693ZM43.065 3C30.192 3 19.718 13.473 19.718 26.346C19.718 39.219 30.192 49.693 43.065 49.693C55.938 49.693 66.412 39.219 66.412 26.346C66.412 13.473 55.938 3 43.065 3Z" fill="white"/>
</g>
<defs>
<clipPath id="clip0_105_2470">
<rect width="86.692" height="52.693" fill="white"/>
</clipPath>
</defs>
</svg>
