<svg width="84" height="56" viewBox="0 0 84 56" fill="none" xmlns="http://www.w3.org/2000/svg">
<g clip-path="url(#clip0_105_2307)">
<path d="M3.63494 47.879C3.27494 47.879 2.91394 47.75 2.62694 47.489C2.01394 46.932 1.96694 45.984 2.52394 45.371L24.4219 21.245C24.9729 20.639 25.9089 20.586 26.5259 21.129L48.3519 40.405C48.9729 40.953 49.0319 41.901 48.4829 42.522C47.9359 43.141 46.9869 43.202 46.3659 42.653L25.6479 24.357L4.74494 47.386C4.44894 47.712 4.04294 47.878 3.63494 47.878V47.879Z" fill="white"/>
<path d="M81.749 55.6169H1.5C0.672 55.6169 0 54.9449 0 54.1169C0 53.2889 0.672 52.6169 1.5 52.6169H81.749C82.577 52.6169 83.249 53.2889 83.249 54.1169C83.249 54.9449 82.577 55.6169 81.749 55.6169Z" fill="white"/>
<path d="M50.928 37.18C50.528 37.18 50.157 37.03 49.867 36.74C49.727 36.6 49.617 36.44 49.548 36.26C49.468 36.08 49.428 35.88 49.428 35.681C49.428 35.29 49.588 34.901 49.867 34.62C49.937 34.55 50.017 34.49 50.097 34.44C50.177 34.379 50.267 34.339 50.357 34.299C50.447 34.259 50.537 34.23 50.637 34.209C50.837 34.169 51.027 34.169 51.227 34.209C51.317 34.23 51.417 34.259 51.507 34.299C51.597 34.339 51.677 34.379 51.767 34.44C51.847 34.49 51.917 34.549 51.987 34.62C52.057 34.69 52.128 34.77 52.177 34.85C52.226 34.93 52.277 35.02 52.317 35.11C52.357 35.2 52.378 35.299 52.397 35.39C52.418 35.49 52.427 35.589 52.427 35.68C52.427 35.879 52.397 36.079 52.317 36.259C52.237 36.44 52.137 36.6 51.987 36.739C51.847 36.879 51.687 36.999 51.508 37.069C51.327 37.149 51.128 37.179 50.928 37.179V37.18Z" fill="white"/>
<path d="M55.048 31.1C54.438 30.549 54.388 29.6 54.938 28.98C55.498 28.37 56.448 28.32 57.058 28.87C57.678 29.431 57.728 30.37 57.168 30.99C56.878 31.32 56.468 31.49 56.058 31.49C55.698 31.49 55.338 31.36 55.048 31.1ZM60.178 25.41C59.558 24.85 59.508 23.9 60.068 23.29C60.618 22.67 61.568 22.62 62.188 23.17C62.798 23.73 62.848 24.68 62.298 25.29C61.997 25.62 61.588 25.79 61.178 25.79C60.818 25.79 60.458 25.66 60.178 25.41ZM65.298 19.71C64.688 19.15 64.638 18.21 65.188 17.59C65.738 16.97 66.688 16.92 67.308 17.48C67.918 18.03 67.978 18.98 67.418 19.6C67.117 19.93 66.718 20.09 66.308 20.09C65.948 20.09 65.588 19.97 65.298 19.71ZM70.428 14.01C69.808 13.46 69.758 12.51 70.308 11.89C70.868 11.28 71.818 11.23 72.428 11.78C73.048 12.33 73.098 13.28 72.548 13.9C72.247 14.23 71.838 14.4 71.428 14.4C71.068 14.4 70.708 14.27 70.428 14.01ZM75.548 8.32004C74.938 7.76004 74.878 6.81004 75.438 6.20004C75.988 5.58004 76.938 5.53004 77.558 6.08004C78.168 6.64004 78.218 7.59004 77.668 8.20004C77.367 8.53004 76.958 8.70004 76.548 8.70004C76.197 8.70004 75.838 8.57004 75.548 8.32004Z" fill="white"/>
<path d="M81.678 3C81.577 3 81.478 2.99 81.378 2.97C81.287 2.95 81.188 2.93 81.098 2.89C81.008 2.85 80.928 2.8 80.848 2.75C80.758 2.69 80.688 2.63 80.618 2.56C80.549 2.49 80.488 2.42 80.429 2.33C80.379 2.25 80.328 2.17 80.288 2.08C80.248 1.98 80.228 1.89 80.209 1.8C80.188 1.7 80.179 1.6 80.179 1.5C80.179 1.4 80.189 1.31 80.209 1.21C80.229 1.11 80.248 1.02 80.288 0.93C80.328 0.84 80.379 0.75 80.429 0.67C80.489 0.59 80.549 0.51 80.618 0.44C80.688 0.37 80.759 0.31 80.848 0.25C80.928 0.2 81.008 0.15 81.098 0.12C81.188 0.08 81.287 0.05 81.378 0.03C81.577 -0.01 81.777 -0.01 81.968 0.03C82.068 0.05 82.157 0.08 82.247 0.12C82.338 0.15 82.428 0.2 82.508 0.25C82.588 0.31 82.668 0.37 82.737 0.44C82.807 0.51 82.867 0.59 82.918 0.67C82.978 0.75 83.027 0.84 83.058 0.93C83.098 1.02 83.128 1.11 83.148 1.21C83.169 1.31 83.178 1.4 83.178 1.5C83.178 1.6 83.168 1.7 83.148 1.8C83.128 1.89 83.098 1.98 83.058 2.08C83.028 2.17 82.978 2.25 82.918 2.33C82.867 2.42 82.808 2.49 82.737 2.56C82.668 2.63 82.588 2.69 82.508 2.75C82.428 2.8 82.338 2.85 82.247 2.89C82.157 2.93 82.067 2.95 81.968 2.97C81.867 2.99 81.778 3 81.678 3Z" fill="white"/>
</g>
<defs>
<clipPath id="clip0_105_2307">
<rect width="83.249" height="55.617" fill="white"/>
</clipPath>
</defs>
</svg>
