<svg width="74" height="70" viewBox="0 0 74 70" fill="none" xmlns="http://www.w3.org/2000/svg">
<g clip-path="url(#clip0_105_2476)">
<path d="M9.126 18.252C4.094 18.252 0 14.159 0 9.126C0 4.093 4.094 0 9.126 0C14.158 0 18.252 4.094 18.252 9.126C18.252 14.158 14.158 18.252 9.126 18.252ZM9.126 3C5.748 3 3 5.749 3 9.126C3 12.503 5.748 15.252 9.126 15.252C12.504 15.252 15.252 12.504 15.252 9.126C15.252 5.748 12.504 3 9.126 3V3Z" fill="white"/>
<path d="M64.163 69.5149C59.131 69.5149 55.037 65.4209 55.037 60.3889C55.037 55.3569 59.131 51.2629 64.163 51.2629C69.195 51.2629 73.289 55.3569 73.289 60.3889C73.289 65.4209 69.195 69.5149 64.163 69.5149ZM64.163 54.2629C60.785 54.2629 58.037 57.0109 58.037 60.3889C58.037 63.7669 60.785 66.5149 64.163 66.5149C67.541 66.5149 70.289 63.7669 70.289 60.3889C70.289 57.0109 67.541 54.2629 64.163 54.2629V54.2629Z" fill="white"/>
<path d="M17.752 62.2839C9.53796 62.2839 2.85596 55.6019 2.85596 47.3879C2.85596 39.1739 9.53796 32.4919 17.752 32.4919C18.58 32.4919 19.252 33.1629 19.252 33.9919C19.252 34.8209 18.58 35.4919 17.752 35.4919C11.192 35.4919 5.85596 40.8279 5.85596 47.3879C5.85596 53.9479 11.192 59.2839 17.752 59.2839C18.58 59.2839 19.252 59.9559 19.252 60.7839C19.252 61.6119 18.58 62.2839 17.752 62.2839Z" fill="white"/>
<path d="M55.291 35.4929C54.463 35.4929 53.791 34.8219 53.791 33.9929C53.791 33.1639 54.463 32.4929 55.291 32.4929C62.185 32.4929 67.187 27.8969 67.187 21.5649C67.187 15.0049 61.85 9.66894 55.291 9.66894C54.463 9.66894 53.791 8.99794 53.791 8.16894C53.791 7.33994 54.463 6.66895 55.291 6.66895C63.505 6.66895 70.187 13.3509 70.187 21.5649C70.187 29.5049 63.783 35.4929 55.291 35.4929Z" fill="white"/>
<path d="M47.579 35.493H25.465C24.637 35.493 23.965 34.822 23.965 33.993C23.965 33.164 24.637 32.493 25.465 32.493H47.579C48.407 32.493 49.079 33.164 49.079 33.993C49.079 34.822 48.407 35.493 47.579 35.493Z" fill="white"/>
<path d="M47.579 9.66894H25.465C24.637 9.66894 23.965 8.99794 23.965 8.16894C23.965 7.33994 24.637 6.66895 25.465 6.66895H47.579C48.407 6.66895 49.079 7.33994 49.079 8.16894C49.079 8.99794 48.407 9.66894 47.579 9.66894Z" fill="white"/>
<path d="M47.579 62.2841H25.465C24.637 62.2841 23.965 61.6121 23.965 60.7841C23.965 59.9561 24.637 59.2841 25.465 59.2841H47.579C48.407 59.2841 49.079 59.9561 49.079 60.7841C49.079 61.6121 48.407 62.2841 47.579 62.2841Z" fill="white"/>
</g>
<defs>
<clipPath id="clip0_105_2476">
<rect width="73.289" height="69.515" fill="white"/>
</clipPath>
</defs>
</svg>
