<svg width="89" height="69" viewBox="0 0 89 69" fill="none" xmlns="http://www.w3.org/2000/svg">
<path d="M87.096 68.3355H1.5C0.672 68.3355 0 67.6487 0 66.8026C0 65.9565 0.672 65.2698 1.5 65.2698H87.096C87.924 65.2698 88.596 65.9565 88.596 66.8026C88.596 67.6487 87.924 68.3355 87.096 68.3355Z" fill="white"/>
<path d="M79.819 68.3356H67.819C66.991 68.3356 66.319 67.6488 66.319 66.8027V24.0508C66.319 23.2036 66.991 22.5179 67.819 22.5179H79.819C80.647 22.5179 81.319 23.2036 81.319 24.0508V66.8027C81.319 67.6488 80.647 68.3356 79.819 68.3356ZM69.319 65.2699H78.319V25.5836H69.319V65.2699Z" fill="white"/>
<path d="M56.969 68.3356H44.969C44.141 68.3356 43.469 67.6489 43.469 66.8027V7.62488C43.469 6.77773 44.141 6.09204 44.969 6.09204H56.969C57.797 6.09204 58.469 6.77773 58.469 7.62488V66.8027C58.469 67.6489 57.797 68.3356 56.969 68.3356ZM46.469 65.2699H55.469V9.15772H46.469V65.2699Z" fill="white"/>
<path d="M21.074 68.3356H9.07398C8.24598 68.3356 7.57397 67.6488 7.57397 66.8027V39.929C7.57397 39.0828 8.24598 38.3961 9.07398 38.3961H21.074C21.902 38.3961 22.574 39.0828 22.574 39.929V66.8027C22.574 67.6488 21.902 68.3356 21.074 68.3356V68.3356ZM10.574 65.2699H19.574V41.4618H10.574V65.2699V65.2699Z" fill="white"/>
<path d="M31.7991 59.1385C31.7991 58.2903 32.4691 57.6057 33.2991 57.6057C34.1291 57.6057 34.7991 58.2903 34.7991 59.1385C34.7991 59.9867 34.1291 60.6713 33.2991 60.6713C32.4691 60.6713 31.7991 59.9867 31.7991 59.1385ZM31.7991 51.8217C31.7991 50.9746 32.4691 50.2889 33.2991 50.2889C34.1291 50.2889 34.7991 50.9746 34.7991 51.8217C34.7991 52.6597 34.1291 53.3546 33.2991 53.3546C32.4691 53.3546 31.7991 52.6597 31.7991 51.8217ZM31.7991 44.4948C31.7991 43.6466 32.4691 42.9619 33.2991 42.9619C34.1291 42.9619 34.7991 43.6466 34.7991 44.4948C34.7991 45.3429 34.1291 46.0276 33.2991 46.0276C32.4691 46.0276 31.7991 45.3429 31.7991 44.4948ZM31.7991 37.178C31.7991 36.3298 32.4691 35.6452 33.2991 35.6452C34.1291 35.6452 34.7991 36.3298 34.7991 37.178C34.7991 38.0262 34.1291 38.7108 33.2991 38.7108C32.4691 38.7108 31.7991 38.0262 31.7991 37.178ZM31.7991 29.8613C31.7991 29.0131 32.4691 28.3284 33.2991 28.3284C34.1291 28.3284 34.7991 29.0131 34.7991 29.8613C34.7991 30.7094 34.1291 31.3941 33.2991 31.3941C32.4691 31.3941 31.7991 30.7094 31.7991 29.8613ZM31.7991 22.5445C31.7991 21.6963 32.4691 21.0117 33.2991 21.0117C34.1291 21.0117 34.7991 21.6963 34.7991 22.5445C34.7991 23.3824 34.1291 24.0773 33.2991 24.0773C32.4691 24.0773 31.7991 23.3824 31.7991 22.5445ZM31.7991 15.2175C31.7991 14.3693 32.4691 13.6847 33.2991 13.6847C34.1291 13.6847 34.7991 14.3693 34.7991 15.2175C34.7991 16.0657 34.1291 16.7504 33.2991 16.7504C32.4691 16.7504 31.7991 16.0657 31.7991 15.2175V15.2175ZM31.7991 7.90076C31.7991 7.05259 32.4691 6.36792 33.2991 6.36792C34.1291 6.36792 34.7991 7.05259 34.7991 7.90076C34.7991 8.74893 34.1291 9.4336 33.2991 9.4336C32.4691 9.4336 31.7991 8.74893 31.7991 7.90076Z" fill="white"/>
<path d="M33.299 3.11833C33.199 3.11833 33.1001 3.10811 32.9991 3.08768C32.9091 3.06724 32.8101 3.03658 32.7191 2.99571C32.6291 2.95483 32.5491 2.91395 32.4691 2.85264C32.3791 2.80155 32.3101 2.74023 32.2401 2.6687C31.9601 2.38257 31.8 1.98403 31.8 1.58549C31.8 1.4833 31.811 1.38111 31.83 1.27892C31.851 1.18695 31.88 1.08476 31.91 0.992794C31.95 0.900824 32 0.808854 32.05 0.727102C32.111 0.645351 32.1701 0.563599 32.2401 0.492067C32.3101 0.430753 32.3801 0.35922 32.4691 0.308126C32.5491 0.246812 32.6291 0.205936 32.7191 0.165061C32.8101 0.124185 32.9091 0.103747 32.9991 0.0833092C33.4891 -0.0188801 34.0091 0.144623 34.3591 0.492067C34.6391 0.778197 34.798 1.17674 34.798 1.58549C34.798 1.67746 34.7881 1.77965 34.7691 1.88184C34.7481 1.97381 34.7181 2.076 34.6791 2.16797C34.6491 2.25994 34.599 2.35191 34.538 2.43366C34.488 2.51542 34.4291 2.59717 34.3581 2.6687C34.0781 2.95483 33.6881 3.11833 33.2971 3.11833H33.299Z" fill="white"/>
</svg>
