<svg width="176" height="176" viewBox="0 0 176 176" fill="none" xmlns="http://www.w3.org/2000/svg">
<g clip-path="url(#clip0_105_2253)">
<path d="M88.0001 176C136.601 176 176 136.601 176 88C176 63.6997 166.15 41.6993 150.226 25.7745L25.7745 150.226C41.6993 166.15 63.6992 176 88.0001 176Z" fill="#89CFDC"/>
<path d="M25.7745 150.226L150.225 25.7751C134.3 9.85031 112.3 0.000620702 87.9995 0.000621764C39.3988 7.45718e-05 -4.84439e-06 39.3989 -2.71996e-06 88.0001C-1.65776e-06 112.3 9.84969 134.301 25.7745 150.226Z" fill="#89CFDC"/>
<g clip-path="url(#clip1_105_2253)">
<path d="M130.403 84.7066C129.957 84.7066 129.566 84.3815 129.497 83.9268C126.779 65.9326 112.317 51.4371 94.3292 48.6761C93.8293 48.5997 93.4853 48.131 93.5623 47.6311C93.6387 47.13 94.1098 46.789 94.6073 46.8641C103.887 48.288 112.314 52.5713 118.978 59.2501C125.643 65.9302 129.908 74.3684 131.311 83.6536C131.386 84.1535 131.042 84.621 130.541 84.6968C130.495 84.7041 130.448 84.7072 130.403 84.7072V84.7066Z" fill="#404040"/>
<path d="M45.3811 84.7066C45.3358 84.7066 45.2894 84.7036 45.2423 84.6962C44.7425 84.6205 44.3972 84.153 44.473 83.6525C47.3256 64.7844 62.5007 49.6453 81.3773 46.8373C81.8803 46.7585 82.3447 47.1074 82.4187 47.6091C82.4932 48.1096 82.1479 48.5759 81.6468 48.6505C63.5598 51.3412 49.019 65.8477 46.2867 83.9275C46.2183 84.3815 45.8272 84.7066 45.3817 84.7066H45.3811Z" fill="#404040"/>
<path d="M94.4667 133.683C94.0218 133.683 93.6313 133.359 93.5623 132.906C93.4853 132.406 93.8293 131.937 94.3292 131.861C112.317 129.1 126.779 114.605 129.497 96.6098C129.573 96.1093 130.044 95.7597 130.541 95.8398C131.041 95.9156 131.386 96.3831 131.311 96.883C129.908 106.168 125.643 114.606 118.978 121.286C112.314 127.965 103.887 132.249 94.6073 133.672C94.5602 133.68 94.5138 133.683 94.4673 133.683L94.4667 133.683Z" fill="#404040"/>
<path d="M81.513 133.709C81.4684 133.709 81.4232 133.706 81.3767 133.699C62.5001 130.891 47.325 115.752 44.473 96.8836C44.3972 96.3831 44.7419 95.9156 45.2424 95.8398C45.7447 95.7598 46.2104 96.1081 46.2861 96.6092C49.019 114.689 63.5598 129.195 81.6462 131.886C82.1467 131.961 82.4926 132.427 82.4181 132.928C82.3509 133.382 81.9591 133.709 81.513 133.709Z" fill="#404040"/>
<path d="M76.9872 58.3342C76.8588 58.3342 76.7281 58.3073 76.604 58.2499C76.1438 58.0378 75.9434 57.4933 76.1555 57.0338L80.2957 48.0565L71.3185 43.9169C70.8583 43.7048 70.6579 43.1603 70.87 42.7008C71.082 42.2412 71.6253 42.0395 72.0861 42.2522L81.8962 46.7756C82.1168 46.8777 82.2886 47.0629 82.3723 47.2914C82.4566 47.5194 82.4462 47.7711 82.3448 47.9918L77.8207 57.8019C77.6661 58.1374 77.3343 58.3348 76.9878 58.3348L76.9872 58.3342Z" fill="#404040"/>
<path d="M130.942 85.3258C130.81 85.3258 130.679 85.2977 130.558 85.2414L120.748 80.7174C120.288 80.5053 120.088 79.9608 120.3 79.5013C120.512 79.0417 121.056 78.8394 121.516 79.0527L130.492 83.193L134.633 74.2158C134.844 73.7562 135.389 73.5546 135.849 73.7672C136.309 73.9793 136.509 74.5238 136.297 74.9833L131.773 84.7935C131.671 85.0141 131.486 85.1858 131.257 85.2695C131.155 85.3074 131.048 85.3264 130.94 85.3264L130.942 85.3258Z" fill="#404040"/>
<path d="M103.35 138.552C103.222 138.552 103.091 138.525 102.967 138.467L93.1577 133.943C92.6976 133.731 92.4971 133.187 92.7092 132.727L97.2326 122.917C97.4447 122.457 97.9886 122.255 98.4487 122.468C98.9089 122.68 99.1094 123.225 98.8973 123.685L94.7576 132.662L103.734 136.802C104.194 137.014 104.395 137.559 104.183 138.018C104.028 138.354 103.696 138.551 103.35 138.551L103.35 138.552Z" fill="#404040"/>
<path d="M40.0271 106.738C39.8988 106.738 39.768 106.711 39.644 106.653C39.1838 106.441 38.9833 105.897 39.1954 105.437L43.7188 95.6272C43.8209 95.4066 44.0061 95.2348 44.2346 95.1511C44.4613 95.0674 44.715 95.0772 44.935 95.1786L54.7451 99.7027C55.2053 99.9147 55.4057 100.459 55.1937 100.919C54.9816 101.378 54.4371 101.579 53.9776 101.367L45.0003 97.2271L40.8607 106.204C40.7061 106.54 40.3742 106.737 40.0277 106.737L40.0271 106.738Z" fill="#404040"/>
<path d="M87.8926 112.431C87.7343 112.431 87.576 112.39 87.4342 112.308L69.1137 101.73C68.8302 101.567 68.6554 101.264 68.6554 100.937L68.6554 79.7817C68.6554 79.4542 68.8302 79.1517 69.1137 78.9879L87.4342 68.4096C87.7184 68.2458 88.0667 68.2458 88.3509 68.4096L106.671 78.9879C106.955 79.1517 107.13 79.4542 107.13 79.7817L107.13 100.937C107.13 101.264 106.955 101.567 106.671 101.73L88.3509 112.308C88.2091 112.39 88.0508 112.431 87.8926 112.431ZM70.4887 100.407L87.8926 110.455L105.296 100.407L105.296 80.3116L87.8926 70.2631L70.4887 80.3116L70.4887 100.408V100.407Z" fill="#404040"/>
<path d="M87.8925 91.2273C87.7342 91.2273 87.5759 91.1863 87.4341 91.1044L69.1136 80.5267C68.6749 80.2737 68.5251 79.7133 68.7781 79.2745C69.0311 78.8351 69.5921 78.686 70.0303 78.939L87.8925 89.2515L105.755 78.939C106.193 78.686 106.754 78.8351 107.007 79.2745C107.26 79.7133 107.11 80.2737 106.671 80.5267L88.3508 91.1044C88.209 91.1863 88.0507 91.2273 87.8925 91.2273Z" fill="#404040"/>
<path d="M87.8925 112.431C87.3865 112.431 86.9758 112.02 86.9758 111.514L86.9758 90.3594C86.9758 89.8534 87.3865 89.4427 87.8925 89.4427C88.3985 89.4427 88.8092 89.8534 88.8092 90.3594L88.8092 111.514C88.8092 112.02 88.3985 112.431 87.8925 112.431Z" fill="#404040"/>
<path d="M86.6513 120.804C86.1508 120.768 85.7652 120.334 85.8019 119.827C85.8385 119.319 86.2724 118.94 86.7796 118.977C87.2807 119.008 87.6657 119.448 87.6297 119.955C87.5985 120.438 87.1958 120.804 86.7191 120.804H86.6519H86.6513ZM90.1163 119.882C90.0674 119.38 90.4286 118.928 90.9352 118.879C91.4363 118.824 91.8891 119.191 91.9435 119.692C91.9924 120.193 91.6319 120.645 91.1246 120.7C91.0941 120.706 91.0635 120.706 91.0269 120.706C90.5685 120.706 90.1652 120.352 90.1163 119.881V119.882ZM82.2635 120.248C81.7679 120.157 81.4385 119.68 81.5302 119.179C81.6219 118.684 82.1046 118.354 82.5996 118.452C83.1007 118.543 83.4252 119.021 83.333 119.515C83.2474 119.961 82.8618 120.267 82.4285 120.267C82.3735 120.267 82.3185 120.26 82.2635 120.248ZM94.3941 119.252C94.2657 118.763 94.5597 118.262 95.0541 118.134C95.543 118.012 96.0441 118.305 96.1663 118.794C96.2946 119.283 95.9952 119.784 95.5063 119.912C95.433 119.93 95.3535 119.937 95.2802 119.937C94.8707 119.937 94.498 119.662 94.3941 119.252ZM77.9613 119.161C77.4846 119.002 77.2219 118.483 77.3746 118.005C77.5335 117.523 78.0469 117.26 78.5296 117.419C79.0124 117.572 79.2758 118.092 79.1163 118.574C78.9947 118.959 78.6335 119.203 78.2485 119.203C78.1507 119.203 78.0591 119.191 77.9613 119.161ZM98.5313 118C98.3296 117.529 98.5496 116.992 99.0202 116.796C99.4846 116.601 100.022 116.821 100.218 117.285C100.414 117.756 100.2 118.287 99.7291 118.489C99.613 118.538 99.4968 118.562 99.3746 118.562C99.0202 118.562 98.678 118.348 98.5313 118ZM73.8424 117.487C73.3902 117.261 73.2007 116.71 73.4269 116.258C73.6469 115.806 74.1969 115.616 74.6552 115.842C75.1074 116.068 75.2969 116.619 75.0707 117.07C74.9119 117.394 74.5819 117.578 74.2457 117.578C74.1113 117.578 73.9707 117.547 73.8424 117.487ZM102.436 116.154C102.174 115.72 102.314 115.158 102.748 114.895C103.182 114.632 103.745 114.767 104.007 115.2C104.27 115.634 104.13 116.197 103.696 116.459C103.549 116.551 103.384 116.594 103.225 116.594C102.913 116.594 102.614 116.436 102.436 116.154ZM70.0046 115.213C69.5952 114.925 69.4913 114.352 69.7852 113.942C70.0725 113.526 70.6469 113.422 71.0625 113.716H71.0564C71.4719 114.003 71.5758 114.578 71.2825 114.993C71.1052 115.244 70.8241 115.384 70.5308 115.384C70.3536 115.384 70.1702 115.329 70.0052 115.214L70.0046 115.213ZM106.036 113.758C105.712 113.367 105.767 112.787 106.158 112.469C106.55 112.146 107.124 112.201 107.447 112.592C107.771 112.983 107.716 113.557 107.325 113.88C107.154 114.021 106.946 114.088 106.745 114.088C106.476 114.088 106.213 113.978 106.036 113.758ZM66.5641 112.377C66.2035 112.023 66.1919 111.442 66.5464 111.082C66.8941 110.715 67.4752 110.709 67.8419 111.057C68.2086 111.412 68.2141 111.992 67.8657 112.353C67.6824 112.543 67.4447 112.634 67.2064 112.634C66.9735 112.634 66.7413 112.548 66.5641 112.377ZM109.245 110.868C108.872 110.525 108.841 109.951 109.183 109.572C109.519 109.193 110.1 109.169 110.479 109.505C110.851 109.848 110.882 110.428 110.54 110.8C110.362 111.002 110.112 111.106 109.862 111.106C109.642 111.106 109.421 111.027 109.245 110.868ZM63.6124 109.034C63.3069 108.631 63.393 108.056 63.7964 107.75C64.1991 107.445 64.7741 107.525 65.0797 107.928C65.3852 108.331 65.2997 108.912 64.8964 109.212C64.7307 109.34 64.5419 109.401 64.3464 109.401C64.0714 109.401 63.797 109.273 63.613 109.034H63.6124ZM112.006 107.543C111.585 107.262 111.469 106.694 111.75 106.272C112.037 105.851 112.605 105.734 113.027 106.015C113.442 106.303 113.559 106.871 113.277 107.293C113.1 107.556 112.806 107.696 112.514 107.696C112.336 107.696 112.165 107.647 112.006 107.543ZM61.2169 105.276C60.9785 104.831 61.1435 104.274 61.5896 104.036C62.0357 103.797 62.5919 103.963 62.8302 104.408C63.074 104.854 62.9035 105.411 62.4574 105.649C62.323 105.728 62.1702 105.759 62.0235 105.759C61.6996 105.759 61.3819 105.588 61.2169 105.276ZM114.255 103.852C113.797 103.638 113.602 103.095 113.815 102.637C114.035 102.178 114.579 101.983 115.037 102.196C115.496 102.416 115.691 102.96 115.471 103.418C115.319 103.748 114.989 103.944 114.646 103.944C114.511 103.944 114.377 103.913 114.255 103.852H114.255ZM59.408 101.206C59.2375 100.735 59.4874 100.21 59.9641 100.033C60.4352 99.8677 60.9602 100.112 61.1374 100.589C61.303 101.065 61.058 101.592 60.5813 101.762C60.4774 101.799 60.3735 101.817 60.2696 101.817C59.8975 101.817 59.543 101.585 59.408 101.206ZM115.936 99.8799C115.453 99.7272 115.179 99.2138 115.325 98.731C115.477 98.2483 115.985 97.9733 116.474 98.126C116.956 98.2727 117.231 98.786 117.079 99.2688C116.963 99.6605 116.596 99.9172 116.205 99.9172C116.113 99.9172 116.027 99.9044 115.936 99.8799ZM58.2041 96.9283C58.1002 96.4333 58.418 95.945 58.9191 95.8466C59.4147 95.7427 59.8975 96.0605 60.0014 96.5555C60.1052 97.0505 59.7814 97.5333 59.2864 97.6371C59.2246 97.65 59.1641 97.6555 59.1024 97.6555C58.6752 97.6555 58.2964 97.3622 58.2041 96.9283ZM117.024 95.6938C116.522 95.6205 116.174 95.156 116.247 94.6549C116.327 94.1538 116.791 93.8055 117.292 93.8849C117.793 93.9583 118.136 94.4227 118.062 94.9238C117.995 95.3754 117.604 95.7054 117.158 95.7054C117.116 95.7054 117.067 95.6993 117.024 95.6932V95.6938ZM57.6058 92.5222C57.5746 92.0149 57.9535 91.581 58.4607 91.5444C58.968 91.5138 59.4019 91.8927 59.4391 92.3999H59.4324C59.4697 92.9072 59.0847 93.341 58.583 93.3777H58.5219C58.0391 93.3777 57.6419 93.0049 57.6052 92.5222H57.6058ZM117.482 91.3977C116.975 91.3977 116.565 90.9883 116.571 90.481V90.4144L116.571 90.3588C116.571 89.8522 116.981 89.4422 117.488 89.4422C117.989 89.4422 118.405 89.8522 118.405 90.3588C118.405 90.3833 118.405 90.4077 118.399 90.4322C118.399 90.4505 118.405 90.4694 118.405 90.4872C118.399 90.9944 117.989 91.3977 117.488 91.3977H117.482ZM58.4669 89.0572C57.9596 89.0205 57.5814 88.5811 57.6174 88.0794C57.6541 87.5722 58.088 87.1933 58.5952 87.2238C59.1024 87.2611 59.4813 87.7005 59.4452 88.2077C59.408 88.6905 59.0114 89.0572 58.5286 89.0572H58.4669ZM116.266 86.1855C116.192 85.6844 116.541 85.22 117.042 85.1467C117.543 85.0733 118.008 85.4217 118.081 85.9228C118.154 86.4239 117.806 86.8883 117.305 86.9617C117.262 86.9678 117.219 86.9678 117.176 86.9678C116.724 86.9678 116.333 86.6445 116.266 86.1862V86.1855ZM58.9374 84.7617C58.4418 84.6578 58.1246 84.1683 58.2285 83.6739C58.3385 83.1783 58.8213 82.8611 59.3163 82.965C59.8113 83.075 60.1291 83.5578 60.0252 84.0528C59.9335 84.4867 59.554 84.7794 59.1262 84.7794C59.0651 84.7794 59.004 84.7733 58.9368 84.7617H58.9374ZM115.361 82.1027C115.215 81.6138 115.49 81.1066 115.979 80.9599C116.461 80.8139 116.969 81.0883 117.121 81.571C117.261 82.0605 116.987 82.5672 116.504 82.7138C116.418 82.7444 116.327 82.7566 116.241 82.7566C115.844 82.7566 115.484 82.4938 115.361 82.1027ZM60.0007 80.5688C59.5241 80.3977 59.279 79.8722 59.4507 79.3955H59.4569C59.628 78.9188 60.1541 78.6744 60.6302 78.8516C61.1069 79.0221 61.3519 79.5483 61.1747 80.0249C61.0396 80.3971 60.6919 80.6232 60.313 80.6232C60.2091 80.6232 60.1052 80.6049 60.0014 80.5682L60.0007 80.5688ZM113.87 78.1916C113.65 77.7333 113.845 77.1888 114.303 76.9694C114.762 76.7549 115.312 76.951 115.526 77.4094C115.74 77.8677 115.544 78.4171 115.086 78.6316C114.963 78.6927 114.829 78.7172 114.695 78.7172C114.352 78.7172 114.022 78.5222 113.869 78.1922L113.87 78.1916ZM61.6501 76.5777C61.2046 76.3338 61.039 75.7771 61.278 75.331C61.5218 74.891 62.0785 74.7199 62.5179 74.9643C62.964 75.2027 63.129 75.7588 62.8907 76.2049C62.7257 76.5104 62.4079 76.6877 62.084 76.6877C61.938 76.6877 61.7852 76.6504 61.6501 76.577V76.5777ZM111.817 74.5427C111.536 74.1216 111.651 73.5465 112.074 73.2715C112.495 72.9904 113.064 73.1065 113.345 73.5282C113.626 73.9499 113.51 74.5182 113.087 74.7993C112.928 74.9032 112.751 74.9521 112.581 74.9521C112.281 74.9521 111.994 74.806 111.817 74.5427ZM63.8691 72.8688C63.4657 72.5633 63.3863 71.9888 63.6919 71.5849C63.9974 71.1815 64.5712 71.1021 64.9752 71.4077C65.3785 71.7132 65.458 72.2877 65.1524 72.6916C64.9752 72.9299 64.7002 73.0583 64.4252 73.0583C64.2302 73.0583 64.0341 72.9972 63.8697 72.8688H63.8691ZM109.256 71.2304C108.92 70.8515 108.951 70.2716 109.33 69.9349C109.702 69.5988 110.283 69.6293 110.625 70.0021C110.961 70.381 110.925 70.9615 110.552 71.2977C110.375 71.4565 110.155 71.536 109.941 71.536C109.69 71.536 109.44 71.4321 109.256 71.2304ZM66.6374 69.5438C66.283 69.1832 66.2952 68.6027 66.6619 68.2482C67.0291 67.8999 67.6091 67.9121 67.9574 68.2788C68.3119 68.6393 68.2935 69.2199 67.933 69.5743C67.7557 69.7454 67.5235 69.831 67.2974 69.831C67.0591 69.831 66.8146 69.7332 66.6374 69.5438ZM106.244 68.3215C105.859 67.9977 105.804 67.4171 106.128 67.0321C106.452 66.641 107.032 66.5921 107.417 66.9166C107.809 67.2344 107.863 67.8149 107.54 68.2054C107.356 68.4199 107.094 68.5354 106.831 68.5354C106.623 68.5354 106.415 68.4627 106.244 68.3215ZM69.8891 66.7021C69.5958 66.2865 69.6991 65.7127 70.1152 65.4249C70.5308 65.1377 71.1052 65.2415 71.3925 65.6571C71.6797 66.0733 71.5758 66.641 71.1602 66.9349C71.0014 67.0449 70.8174 67.0938 70.6402 67.0938C70.3475 67.0938 70.0664 66.9588 69.8891 66.7021ZM102.846 65.8832C102.412 65.6204 102.278 65.0527 102.541 64.6243C102.81 64.1904 103.372 64.0554 103.806 64.3188C104.234 64.5815 104.368 65.1493 104.105 65.5777C103.934 65.8655 103.634 66.0183 103.323 66.0183C103.157 66.0183 102.993 65.9755 102.846 65.8832ZM73.5375 64.3982C73.3181 63.946 73.5069 63.396 73.9591 63.176C74.4175 62.9499 74.9669 63.1387 75.1875 63.597C75.4075 64.0493 75.218 64.5999 74.7658 64.8193C74.6375 64.8865 74.4975 64.917 74.3631 64.917C74.0264 64.917 73.6964 64.7276 73.5375 64.3976V64.3982ZM99.1308 63.9643C98.6663 63.7688 98.4464 63.231 98.648 62.7604C98.8436 62.2954 99.3813 62.0821 99.8525 62.2777C100.317 62.4793 100.53 63.0171 100.335 63.4815C100.183 63.8299 99.8458 64.0377 99.4913 64.0377C99.3697 64.0377 99.2475 64.0132 99.1308 63.9643ZM77.4981 62.6688C77.3386 62.186 77.6081 61.6727 78.0909 61.5199C78.5736 61.361 79.087 61.6299 79.2397 62.1127C79.3986 62.5893 79.1297 63.1088 78.6531 63.2615C78.5553 63.2921 78.4636 63.3104 78.372 63.3104C77.9809 63.3104 77.6209 63.0599 77.4981 62.6688ZM95.1714 62.6138C94.6825 62.4854 94.3892 61.9843 94.5175 61.4954C94.6459 61.0065 95.147 60.7132 95.6359 60.8415C96.1247 60.9638 96.4181 61.471 96.2897 61.9599C96.1859 62.3693 95.8131 62.6443 95.4036 62.6443C95.3303 62.6443 95.2509 62.6321 95.1714 62.6138ZM81.6597 61.507C81.5687 61.012 81.8987 60.5354 82.3931 60.4443C82.8942 60.3527 83.3708 60.6827 83.4625 61.177C83.5542 61.6782 83.2242 62.1554 82.7231 62.2465C82.6681 62.2593 82.6131 62.2593 82.5575 62.2593C82.1236 62.2593 81.7386 61.9538 81.6591 61.5077L81.6597 61.507ZM91.0586 61.8554C90.5514 61.8004 90.1909 61.342 90.2459 60.8409C90.3015 60.3404 90.7531 59.9732 91.2603 60.0282C91.7614 60.0832 92.122 60.5354 92.067 61.0426C92.0181 61.5138 91.6209 61.8615 91.1564 61.8554L91.0586 61.8554ZM85.9314 60.8776C85.8941 60.3704 86.2797 59.9365 86.787 59.9059C87.2875 59.8687 87.7275 60.2537 87.7586 60.7554C87.7953 61.2626 87.4103 61.7026 86.9031 61.7332H86.8481C86.3653 61.7332 85.962 61.361 85.9314 60.8782V60.8776Z" fill="#404040"/>
</g>
</g>
<defs>
<clipPath id="clip0_105_2253">
<rect width="176" height="176" fill="white" transform="translate(0 176) rotate(-90)"/>
</clipPath>
<clipPath id="clip1_105_2253">
<rect width="97.2718" height="96.385" fill="white" transform="translate(39.1111 42.1666)"/>
</clipPath>
</defs>
</svg>
