<svg width="176" height="176" viewBox="0 0 176 176" fill="none" xmlns="http://www.w3.org/2000/svg">
<g clip-path="url(#clip0_105_2230)">
<path d="M0 87.9999C0 136.601 39.3988 176 88 176C112.3 176 134.301 166.15 150.226 150.225L25.7745 25.7744C9.8497 41.6992 0 63.6991 0 87.9999Z" fill="#89CFDC"/>
<path d="M25.7744 25.7745L150.225 150.225C166.15 134.3 175.999 112.3 175.999 87.9995C176 39.3988 136.601 0 87.9999 0C63.6996 0 41.6992 9.8497 25.7744 25.7745Z" fill="#89CFDC"/>
<g clip-path="url(#clip1_105_2230)">
<path d="M48.4948 85.9075C48.2308 85.9075 47.9692 85.8971 47.7089 85.8812L33.6472 85.8892C33.5079 85.899 33.3685 85.9075 33.2268 85.9075C28.047 85.9075 23.8334 81.6939 23.8334 76.5147C23.8334 71.3356 28.0476 67.1213 33.2268 67.1213C34.493 67.1213 35.75 67.3817 36.9136 67.8791C38.9688 63.3923 43.5014 60.4425 48.4948 60.4425C54.711 60.4425 59.8975 64.823 61.0079 70.8112C61.696 70.612 62.4055 70.5112 63.1266 70.5112C67.3714 70.5112 70.8248 73.9646 70.8248 78.21C70.8248 82.1871 67.7203 85.5549 63.7579 85.877L63.6613 85.8825L49.2244 85.8837C49.0209 85.8977 48.7594 85.9081 48.4954 85.9081L48.4948 85.9075ZM47.7657 84.0497C48.3255 84.0809 48.7227 84.0791 49.1676 84.0516L63.6363 84.0473C66.627 83.8041 68.9914 81.238 68.9914 78.2093C68.9914 74.9753 66.36 72.3439 63.1266 72.3439C62.2704 72.3439 61.4356 72.5315 60.6461 72.9006C60.3772 73.0277 60.0613 73.0149 59.8022 72.8658C59.543 72.7173 59.3725 72.4521 59.345 72.1551C58.8232 66.5224 54.1579 62.2752 48.4948 62.2752C43.9279 62.2752 39.8109 65.1578 38.2501 69.4472C38.1578 69.7008 37.9586 69.9001 37.7062 69.9942C37.4538 70.0883 37.1721 70.0651 36.938 69.9318C35.805 69.292 34.5223 68.9535 33.2274 68.9535C29.059 68.9535 25.6673 72.3451 25.6673 76.5135C25.6673 80.6819 29.059 84.073 33.2274 84.073C33.3276 84.073 33.4254 84.0656 33.5238 84.0595L33.6607 84.0503L47.7663 84.0485L47.7657 84.0497Z" fill="#404040"/>
<path d="M132.67 121.789H48.5632C48.0565 121.789 47.6465 121.378 47.6465 120.872C47.6465 120.366 48.0565 119.956 48.5632 119.956H132.67C133.176 119.956 133.587 120.366 133.587 120.872C133.587 121.378 133.176 121.789 132.67 121.789Z" fill="#404040"/>
<path d="M125.52 121.789H113.729C113.223 121.789 112.812 121.378 112.812 120.872V79.7635C112.812 79.2575 113.223 78.8468 113.729 78.8468H125.52C126.026 78.8468 126.437 79.2575 126.437 79.7635V120.872C126.437 121.378 126.026 121.789 125.52 121.789ZM114.646 119.956H124.604V80.6801H114.646V119.956Z" fill="#404040"/>
<path d="M103.067 121.789H91.2756C90.7696 121.789 90.3589 121.378 90.3589 120.872V63.9687C90.3589 63.4627 90.7696 63.052 91.2756 63.052H103.067C103.573 63.052 103.984 63.4627 103.984 63.9687V120.872C103.984 121.378 103.573 121.789 103.067 121.789ZM92.1922 119.956H102.15V64.8853H92.1922V119.956Z" fill="#404040"/>
<path d="M67.7967 121.789H56.0059C55.4993 121.789 55.0892 121.378 55.0892 120.872V95.0314C55.0892 94.5254 55.4993 94.1147 56.0059 94.1147H67.7967C68.3027 94.1147 68.7133 94.5254 68.7133 95.0314V120.872C68.7133 121.378 68.3027 121.789 67.7967 121.789ZM56.9226 119.956H66.88V95.9481H56.9226V119.956Z" fill="#404040"/>
<path d="M113.729 45.8333C113.485 45.8333 113.252 45.7417 113.081 45.5644C112.904 45.3939 112.812 45.1617 112.812 44.9167C112.812 44.6783 112.91 44.44 113.081 44.2683C113.417 43.926 114.04 43.926 114.376 44.2683C114.547 44.4394 114.645 44.6783 114.645 44.9167C114.645 45.1611 114.547 45.3933 114.376 45.5644C114.206 45.7417 113.973 45.8333 113.728 45.8333H113.729Z" fill="#404040"/>
<path d="M120.671 44.9167C120.671 44.4094 121.081 44 121.588 44C122.095 44 122.505 44.4094 122.505 44.9167C122.505 45.4239 122.095 45.8333 121.588 45.8333C121.081 45.8333 120.671 45.4239 120.671 44.9167ZM116.741 44.9167C116.741 44.4094 117.151 44 117.658 44C118.165 44 118.575 44.4094 118.575 44.9167C118.575 45.4239 118.165 45.8333 117.658 45.8333C117.151 45.8333 116.741 45.4239 116.741 44.9167Z" fill="#404040"/>
<path d="M125.523 45.8334C125.401 45.8334 125.28 45.8089 125.169 45.7661C125.059 45.7172 124.961 45.6506 124.87 45.5645C124.784 45.4789 124.717 45.3811 124.675 45.2656C124.626 45.155 124.601 45.0395 124.601 44.9173C124.601 44.679 124.699 44.4406 124.87 44.2689C125.206 43.9328 125.829 43.9267 126.165 44.2689C126.336 44.44 126.44 44.679 126.44 44.9173C126.44 45.1617 126.342 45.394 126.165 45.5651C125.995 45.7423 125.769 45.834 125.523 45.834V45.8334Z" fill="#404040"/>
<path d="M124.601 75.3805C124.601 74.8733 125.016 74.4639 125.517 74.4639C126.025 74.4639 126.434 74.8733 126.434 75.3805C126.434 75.8877 126.025 76.2972 125.517 76.2972C125.016 76.2972 124.601 75.8877 124.601 75.3805ZM124.601 71.0294C124.601 70.5228 125.016 70.1127 125.517 70.1127C126.025 70.1127 126.434 70.5228 126.434 71.0294C126.434 71.5366 126.025 71.9461 125.517 71.9461C125.016 71.9461 124.601 71.5366 124.601 71.0294ZM124.601 66.6789C124.601 66.1717 125.016 65.7622 125.517 65.7622C126.025 65.7622 126.434 66.1717 126.434 66.6789C126.434 67.1855 126.025 67.5956 125.517 67.5956C125.016 67.5956 124.601 67.1855 124.601 66.6789ZM124.601 62.3278C124.601 61.8206 125.016 61.4111 125.517 61.4111C126.025 61.4111 126.434 61.8206 126.434 62.3278C126.434 62.835 126.025 63.2445 125.517 63.2445C125.016 63.2445 124.601 62.835 124.601 62.3278ZM124.601 57.9767C124.601 57.4695 125.016 57.06 125.517 57.06C126.025 57.06 126.434 57.4695 126.434 57.9767C126.434 58.4772 126.025 58.8934 125.517 58.8934C125.016 58.8934 124.601 58.4772 124.601 57.9767ZM124.601 53.6195C124.601 53.1122 125.016 52.7028 125.517 52.7028C126.025 52.7028 126.434 53.1122 126.434 53.6195C126.434 54.1267 126.025 54.5361 125.517 54.5361C125.016 54.5361 124.601 54.1267 124.601 53.6195ZM124.601 49.2684C124.601 48.7611 125.016 48.3517 125.517 48.3517C126.025 48.3517 126.434 48.7611 126.434 49.2684C126.434 49.7756 126.025 50.185 125.517 50.185C125.016 50.185 124.601 49.7756 124.601 49.2684Z" fill="#404040"/>
<path d="M125.517 80.6538C125.273 80.6538 125.046 80.5567 124.869 80.3794C124.698 80.2083 124.606 79.9822 124.606 79.7372C124.606 79.6761 124.612 79.6156 124.619 79.5538C124.631 79.4988 124.65 79.4383 124.674 79.3833C124.698 79.3277 124.723 79.2727 124.76 79.2238C124.79 79.1749 124.827 79.1261 124.87 79.0894C124.912 79.0466 124.961 79.0038 125.01 78.9733C125.059 78.9366 125.114 78.9122 125.169 78.8877C125.224 78.8633 125.285 78.8449 125.34 78.8327C125.456 78.8144 125.578 78.8144 125.701 78.8327C125.756 78.8449 125.817 78.8633 125.872 78.8877C125.927 78.9122 125.982 78.9366 126.031 78.9733C126.08 79.0044 126.128 79.0466 126.165 79.0894C126.208 79.1261 126.251 79.1749 126.281 79.2238C126.318 79.2727 126.342 79.3277 126.367 79.3833C126.391 79.4383 126.41 79.4988 126.416 79.5538C126.429 79.6156 126.434 79.6761 126.434 79.7372C126.434 79.9816 126.342 80.2083 126.165 80.3794C126.08 80.4705 125.982 80.5383 125.872 80.5811C125.762 80.6294 125.64 80.6538 125.518 80.6538H125.517Z" fill="#404040"/>
<path d="M120.671 79.7317C120.671 79.2312 121.081 78.8212 121.588 78.8212C122.095 78.8212 122.505 79.2312 122.505 79.7317C122.505 80.2389 122.095 80.6545 121.588 80.6545C121.081 80.6545 120.671 80.2389 120.671 79.7317ZM116.741 79.7317C116.741 79.2312 117.151 78.8212 117.658 78.8212C118.165 78.8212 118.575 79.2312 118.575 79.7317C118.575 80.2389 118.165 80.6545 117.658 80.6545C117.151 80.6545 116.741 80.2389 116.741 79.7317Z" fill="#404040"/>
<path d="M113.729 80.6538C113.607 80.6538 113.491 80.6294 113.381 80.5811C113.265 80.5383 113.167 80.4705 113.082 80.3794C112.911 80.2083 112.813 79.9822 112.813 79.7372C112.813 79.6761 112.819 79.6156 112.831 79.5538C112.844 79.4988 112.862 79.4383 112.88 79.3833C112.905 79.3277 112.935 79.2727 112.966 79.2238C113.002 79.1749 113.039 79.1261 113.082 79.0894C113.124 79.0466 113.167 79.0038 113.222 78.9733C113.271 78.9366 113.32 78.9122 113.381 78.8877C113.436 78.8633 113.491 78.8449 113.552 78.8327C113.668 78.8144 113.79 78.8144 113.906 78.8327C113.967 78.8449 114.022 78.8633 114.077 78.8877C114.132 78.9122 114.187 78.9366 114.236 78.9733C114.285 79.0044 114.334 79.0466 114.376 79.0894C114.419 79.1261 114.456 79.1749 114.492 79.2238C114.523 79.2727 114.553 79.3277 114.572 79.3833C114.596 79.4383 114.615 79.4988 114.627 79.5538C114.64 79.6156 114.645 79.6761 114.645 79.7372C114.645 79.9816 114.547 80.2083 114.376 80.3794C114.206 80.5567 113.973 80.6538 113.728 80.6538H113.729Z" fill="#404040"/>
<path d="M112.812 75.3805C112.812 74.8733 113.222 74.4639 113.729 74.4639C114.236 74.4639 114.646 74.8733 114.646 75.3805C114.646 75.8877 114.236 76.2972 113.729 76.2972C113.222 76.2972 112.812 75.8877 112.812 75.3805ZM112.812 71.0294C112.812 70.5228 113.222 70.1127 113.729 70.1127C114.236 70.1127 114.646 70.5228 114.646 71.0294C114.646 71.5366 114.236 71.9461 113.729 71.9461C113.222 71.9461 112.812 71.5366 112.812 71.0294ZM112.812 66.6789C112.812 66.1717 113.222 65.7622 113.729 65.7622C114.236 65.7622 114.646 66.1717 114.646 66.6789C114.646 67.1855 114.236 67.5956 113.729 67.5956C113.222 67.5956 112.812 67.1855 112.812 66.6789ZM112.812 62.3278C112.812 61.8206 113.222 61.4111 113.729 61.4111C114.236 61.4111 114.646 61.8206 114.646 62.3278C114.646 62.8283 114.236 63.2445 113.729 63.2445C113.222 63.2445 112.812 62.8283 112.812 62.3278ZM112.812 57.9767C112.812 57.4695 113.222 57.06 113.729 57.06C114.236 57.06 114.646 57.4695 114.646 57.9767C114.646 58.4772 114.236 58.8934 113.729 58.8934C113.222 58.8934 112.812 58.4772 112.812 57.9767ZM112.812 53.6195C112.812 53.1122 113.222 52.7028 113.729 52.7028C114.236 52.7028 114.646 53.1122 114.646 53.6195C114.646 54.1267 114.236 54.5361 113.729 54.5361C113.222 54.5361 112.812 54.1267 112.812 53.6195ZM112.812 49.2684C112.812 48.7611 113.222 48.3517 113.729 48.3517C114.236 48.3517 114.646 48.7611 114.646 49.2684C114.646 49.7756 114.236 50.185 113.729 50.185C113.222 50.185 112.812 49.7756 112.812 49.2684Z" fill="#404040"/>
<path d="M79.8063 121.788C79.5619 121.788 79.3296 121.697 79.1579 121.52C79.0724 121.434 79.0051 121.336 78.9563 121.227C78.9141 121.111 78.8896 120.995 78.8896 120.872C78.8896 120.811 78.8958 120.75 78.9074 120.695C78.9202 120.634 78.9385 120.579 78.963 120.524C78.9807 120.469 79.0119 120.414 79.0424 120.365C79.0791 120.316 79.1158 120.267 79.1579 120.225C79.5008 119.882 80.1174 119.882 80.4535 120.225C80.4963 120.267 80.5329 120.316 80.5696 120.365C80.6001 120.414 80.6307 120.469 80.6551 120.524C80.6735 120.579 80.6924 120.635 80.704 120.695C80.7163 120.75 80.7224 120.811 80.7224 120.872C80.7224 121.116 80.6307 121.349 80.4535 121.52C80.2824 121.697 80.0501 121.789 79.8057 121.789L79.8063 121.788Z" fill="#404040"/>
<path d="M78.8896 116.496C78.8896 115.989 79.2991 115.58 79.8063 115.58C80.3135 115.58 80.723 115.989 80.723 116.496C80.723 117.003 80.3135 117.413 79.8063 117.413C79.2991 117.413 78.8896 117.003 78.8896 116.496ZM78.8896 112.115C78.8896 111.613 79.2991 111.204 79.8063 111.204C80.3135 111.204 80.723 111.613 80.723 112.115C80.723 112.622 80.3135 113.037 79.8063 113.037C79.2991 113.037 78.8896 112.622 78.8896 112.115ZM78.8896 107.739C78.8896 107.232 79.2991 106.822 79.8063 106.822C80.3135 106.822 80.723 107.232 80.723 107.739C80.723 108.246 80.3135 108.656 79.8063 108.656C79.2991 108.656 78.8896 108.246 78.8896 107.739ZM78.8896 103.363C78.8896 102.856 79.2991 102.447 79.8063 102.447C80.3135 102.447 80.723 102.856 80.723 103.363C80.723 103.871 80.3135 104.28 79.8063 104.28C79.2991 104.28 78.8896 103.871 78.8896 103.363ZM78.8896 98.9878C78.8896 98.4812 79.2991 98.0712 79.8063 98.0712C80.3135 98.0712 80.723 98.4812 80.723 98.9878C80.723 99.4951 80.3135 99.9045 79.8063 99.9045C79.2991 99.9045 78.8896 99.4951 78.8896 98.9878ZM78.8896 94.6062C78.8896 94.0989 79.2991 93.6895 79.8063 93.6895C80.3135 93.6895 80.723 94.0989 80.723 94.6062C80.723 95.1134 80.3135 95.5228 79.8063 95.5228C79.2991 95.5228 78.8896 95.1134 78.8896 94.6062ZM78.8896 90.2312C78.8896 89.724 79.2991 89.3146 79.8063 89.3146C80.3135 89.3146 80.723 89.724 80.723 90.2312C80.723 90.7378 80.3135 91.1479 79.8063 91.1479C79.2991 91.1479 78.8896 90.7378 78.8896 90.2312ZM78.8896 85.8557C78.8896 85.3484 79.2991 84.939 79.8063 84.939C80.3135 84.939 80.723 85.3484 80.723 85.8557C80.723 86.3629 80.3135 86.7723 79.8063 86.7723C79.2991 86.7723 78.8896 86.3629 78.8896 85.8557ZM78.8896 81.4801C78.8896 80.9729 79.2991 80.5634 79.8063 80.5634C80.3135 80.5634 80.723 80.9729 80.723 81.4801C80.723 81.9812 80.3135 82.3968 79.8063 82.3968C79.2991 82.3968 78.8896 81.9812 78.8896 81.4801ZM78.8896 77.0984C78.8896 76.5973 79.2991 76.1818 79.8063 76.1818C80.3135 76.1818 80.723 76.5973 80.723 77.0984C80.723 77.6057 80.3135 78.0151 79.8063 78.0151C79.2991 78.0151 78.8896 77.6057 78.8896 77.0984ZM78.8896 72.7229C78.8896 72.2157 79.2991 71.8062 79.8063 71.8062C80.3135 71.8062 80.723 72.2157 80.723 72.7229C80.723 73.2301 80.3135 73.6396 79.8063 73.6396C79.2991 73.6396 78.8896 73.2301 78.8896 72.7229ZM78.8896 68.3473C78.8896 67.8401 79.2991 67.4307 79.8063 67.4307C80.3135 67.4307 80.723 67.8401 80.723 68.3473C80.723 68.8546 80.3135 69.264 79.8063 69.264C79.2991 69.264 78.8896 68.8546 78.8896 68.3473Z" fill="#404040"/>
<path d="M79.8063 64.8878C79.5619 64.8878 79.3296 64.7901 79.1579 64.6128C78.9874 64.4423 78.8896 64.2162 78.8896 63.9712C78.8896 63.9101 78.8958 63.849 78.9074 63.7878C78.9202 63.7328 78.9385 63.6717 78.963 63.6167C78.9807 63.5617 79.0119 63.5067 79.0424 63.4578C79.0791 63.409 79.1158 63.3601 79.1579 63.3234C79.2007 63.2806 79.2496 63.2372 79.2985 63.2073C79.3474 63.1706 79.4024 63.1462 79.4574 63.1217C79.5124 63.0973 79.5674 63.079 79.6285 63.0667C79.744 63.0484 79.8668 63.0484 79.9829 63.0667C80.044 63.079 80.0984 63.0973 80.1601 63.1217C80.2151 63.1462 80.264 63.1706 80.3129 63.2073C80.3679 63.2378 80.4101 63.2806 80.4529 63.3234C80.4956 63.3601 80.5323 63.409 80.569 63.4578C80.5995 63.5067 80.6301 63.5617 80.6545 63.6167C80.6729 63.6717 80.6918 63.7328 80.7034 63.7878C80.7156 63.849 80.7218 63.9101 80.7218 63.9712C80.7218 64.2156 80.6301 64.4423 80.4529 64.6128C80.2818 64.7901 80.0495 64.8878 79.8051 64.8878H79.8063Z" fill="#404040"/>
</g>
</g>
<defs>
<clipPath id="clip0_105_2230">
<rect width="176" height="176" fill="white"/>
</clipPath>
<clipPath id="clip1_105_2230">
<rect width="109.754" height="77.7889" fill="white" transform="translate(23.8334 44)"/>
</clipPath>
</defs>
</svg>
