<svg width="176" height="176" viewBox="0 0 176 176" fill="none" xmlns="http://www.w3.org/2000/svg">
<g clip-path="url(#clip0_105_2271)">
<path d="M0 87.9999C0 136.601 39.3988 176 88 176C112.3 176 134.301 166.15 150.226 150.225L25.7745 25.7744C9.8497 41.6992 0 63.6991 0 87.9999Z" fill="#89CFDC"/>
<path d="M25.7744 25.7745L150.225 150.225C166.15 134.3 175.999 112.3 175.999 87.9995C176 39.3988 136.601 0 87.9999 0C63.6996 0 41.6992 9.8497 25.7744 25.7745Z" fill="#89CFDC"/>
<g clip-path="url(#clip1_105_2271)">
<path d="M93.7408 133.15H82.2006C78.4104 133.15 76.8472 130.505 76.5215 129.021C76.4983 128.94 76.4854 128.855 76.4854 128.766V121.415C76.4854 113.786 67.0254 99.3 66.9289 99.1552C66.913 99.1301 66.8977 99.1045 66.8837 99.0782C62.1249 90.0221 63.7921 79.0729 71.0325 71.8324C75.5614 67.3029 81.5778 64.9073 87.9902 65.0295C94.3806 64.9049 100.379 67.3029 104.908 71.8324C112.149 79.0729 113.816 90.0221 109.056 99.0782C109.042 99.1045 109.027 99.1301 109.011 99.1552C108.915 99.3 99.4547 113.785 99.4547 121.415V128.766C99.4547 128.855 99.4418 128.94 99.4186 129.021C99.0929 130.505 97.5297 133.15 93.7402 133.15H93.7408ZM78.3194 128.653C78.4392 129.138 79.1493 131.317 82.2012 131.317H93.7414C96.7835 131.317 97.4979 129.15 97.6226 128.652V121.415C97.6226 113.365 106.787 99.2078 107.455 98.186C111.814 89.8523 110.273 79.7885 103.613 73.1286C99.4412 68.9559 93.8838 66.7095 87.9921 66.8629C82.0453 66.7131 76.5032 68.9565 72.3305 73.1286C65.6718 79.7879 64.1294 89.8523 68.4884 98.1866C69.1564 99.2078 78.3206 113.365 78.3206 121.415V128.653H78.3194Z" fill="#404040"/>
<path d="M101.016 122.676H74.0471C73.5411 122.676 73.1304 122.266 73.1304 121.76C73.1304 121.254 73.5411 120.843 74.0471 120.843H101.016C101.522 120.843 101.933 121.254 101.933 121.76C101.933 122.266 101.522 122.676 101.016 122.676Z" fill="#404040"/>
<path d="M101.016 127.318H74.0471C73.5411 127.318 73.1304 126.907 73.1304 126.401C73.1304 125.895 73.5411 125.484 74.0471 125.484H101.016C101.522 125.484 101.933 125.895 101.933 126.401C101.933 126.907 101.522 127.318 101.016 127.318Z" fill="#404040"/>
<path d="M71.6643 86.3066C71.5965 86.3066 71.5262 86.2987 71.4566 86.2828C70.9634 86.1685 70.656 85.6765 70.7709 85.1828C72.3775 78.2448 77.146 73.4574 83.8517 72.0488C84.348 71.9412 84.8332 72.2614 84.9371 72.757C85.0416 73.2527 84.7238 73.7385 84.2288 73.8424C78.1617 75.1172 74.0165 79.291 72.556 85.5965C72.4582 86.0194 72.0811 86.306 71.6637 86.306L71.6643 86.3066Z" fill="#404040"/>
<path d="M115.644 127.391C115.468 127.391 115.292 127.341 115.136 127.238L106.683 121.611C106.262 121.331 106.147 120.761 106.427 120.34C106.709 119.918 107.277 119.805 107.699 120.085L115.527 125.295L123.461 117.361L118.251 109.533C118.052 109.234 118.046 108.846 118.235 108.541C120.264 105.272 121.738 101.71 122.619 97.955C122.701 97.6061 122.979 97.336 123.331 97.2657L132.552 95.4146V84.194L123.331 82.343C122.979 82.2727 122.701 82.0026 122.619 81.653C121.738 77.8941 120.26 74.3276 118.226 71.0521C118.036 70.7471 118.043 70.3585 118.243 70.0596L123.461 62.2466L115.529 54.3144L107.716 59.5326C107.416 59.7331 107.028 59.7386 106.723 59.5491C103.448 57.5154 99.8818 56.0371 96.1223 55.1559C95.7727 55.074 95.5026 54.7959 95.4323 54.4439L93.5813 45.2229H82.3607L80.5102 54.4439C80.4399 54.7959 80.1698 55.074 79.8203 55.1559C76.0619 56.0371 72.4949 57.5147 69.2187 59.5491C68.9138 59.7386 68.5257 59.7331 68.2263 59.5326L60.4132 54.3144L52.481 62.2466L57.6999 70.0596C57.8997 70.3585 57.9064 70.7471 57.7164 71.0521C55.6789 74.3319 54.1994 77.9045 53.3194 81.6701C53.2369 82.0197 52.9583 82.2904 52.6057 82.3601L43.3901 84.1953V95.4134L52.6057 97.248C52.9583 97.3176 53.2369 97.5877 53.3194 97.9379C54.1988 101.699 55.6753 105.267 57.7072 108.542C57.8967 108.847 57.8905 109.234 57.6919 109.533L52.481 117.362L60.4144 125.296L68.2434 120.085C68.6638 119.805 69.2328 119.918 69.5145 120.341C69.795 120.762 69.6801 121.331 69.259 121.612L60.8055 127.238C60.4407 127.48 59.9579 127.432 59.6493 127.123L50.6532 118.127C50.3439 117.819 50.2963 117.335 50.5383 116.971L55.8421 109.004C53.9642 105.868 52.5647 102.485 51.6743 98.9322L42.295 97.0646C41.8666 96.9791 41.5574 96.6032 41.5574 96.1657V83.4436C41.5574 83.006 41.866 82.6302 42.295 82.5446L51.6743 80.6765C52.5653 77.1198 53.9684 73.7324 55.8513 70.5907L50.5401 62.6389C50.2975 62.2753 50.3452 61.7907 50.6544 61.4815L59.6505 52.4853C59.961 52.1755 60.4456 52.1284 60.808 52.371L68.7598 57.6816C71.8966 55.8018 75.2791 54.4005 78.8303 53.5089L80.7137 44.1247C80.7999 43.6963 81.1757 43.3883 81.6127 43.3883H94.3348C94.7717 43.3883 95.1475 43.6963 95.2337 44.1247L97.1178 53.5089C100.669 54.4005 104.051 55.8018 107.188 57.6816L115.139 52.371C115.502 52.1278 115.987 52.1749 116.297 52.4853L125.293 61.4815C125.602 61.7907 125.65 62.2753 125.407 62.6389L120.097 70.5907C121.977 73.7269 123.378 77.1094 124.269 80.6606L133.654 82.5446C134.082 82.6308 134.39 83.0066 134.39 83.4436V96.1657C134.39 96.6026 134.082 96.9785 133.654 97.0646L124.269 98.9487C123.379 102.496 121.98 105.873 120.106 109.004L125.409 116.971C125.651 117.335 125.603 117.819 125.294 118.127L116.298 127.123C116.121 127.301 115.886 127.392 115.649 127.392L115.644 127.391Z" fill="#404040"/>
</g>
</g>
<defs>
<clipPath id="clip0_105_2271">
<rect width="176" height="176" fill="white"/>
</clipPath>
<clipPath id="clip1_105_2271">
<rect width="92.8296" height="89.7612" fill="white" transform="translate(41.5555 43.3889)"/>
</clipPath>
</defs>
</svg>
