<svg width="180" height="160" viewBox="0 0 180 160" fill="none" xmlns="http://www.w3.org/2000/svg">
<circle cx="73.9482" cy="67.352" r="62.1606" stroke="#FBCE07" stroke-width="2"/>
<path d="M136.529 47.8724C136.785 49.5795 136.958 51.3132 137.045 53.0694L136.545 53.094C136.588 53.951 136.609 54.8136 136.609 55.6811C136.609 56.5485 136.588 57.4111 136.545 58.2681L137.045 58.2927C136.958 60.0489 136.785 61.7826 136.529 63.4897L136.034 63.4156C135.777 65.1341 135.434 66.8254 135.012 68.4852L135.496 68.6086C135.064 70.3058 134.549 71.9703 133.955 73.5978L133.485 73.4264C132.892 75.0531 132.219 76.6425 131.471 78.19L131.922 78.4075C131.162 79.9796 130.326 81.5088 129.419 82.9906L128.992 82.7295C128.09 84.2025 127.117 85.6282 126.076 87.0019L126.475 87.3038C125.423 88.6925 124.304 90.0286 123.122 91.3071L122.755 90.9677C121.584 92.2337 120.352 93.4428 119.062 94.5903L119.394 94.9639C118.095 96.1196 116.738 97.2135 115.328 98.2407L115.033 97.8366C113.642 98.8501 112.199 99.7982 110.709 100.676L110.963 101.107C109.468 101.988 107.925 102.799 106.34 103.536L106.129 103.082C104.572 103.806 102.973 104.457 101.337 105.031L101.503 105.503C99.8696 106.076 98.1996 106.574 96.4975 106.991L96.3785 106.505C94.7152 106.912 93.0208 107.242 91.2995 107.491L91.3709 107.985C89.6627 108.232 87.9282 108.399 86.1716 108.482L86.148 107.983C85.2904 108.023 84.4275 108.044 83.5597 108.044C82.6919 108.044 81.829 108.023 80.9715 107.983L80.9478 108.482C79.1912 108.399 77.4568 108.232 75.7486 107.985L75.82 107.491C74.0987 107.242 72.4043 106.912 70.7409 106.505L70.622 106.991C68.9198 106.574 67.2498 106.076 65.6164 105.503L65.7819 105.031C64.1462 104.457 62.5473 103.806 60.99 103.082L60.7793 103.536C59.1942 102.799 57.6518 101.988 56.1565 101.107L56.4103 100.676C54.92 99.7982 53.477 98.8501 52.086 97.8366L51.7915 98.2407C50.3817 97.2135 49.0248 96.1196 47.7256 94.9639L48.0579 94.5903C46.7679 93.4428 45.5352 92.2337 44.3647 90.9676L43.9976 91.3071C42.8155 90.0286 41.6962 88.6925 40.6444 87.3038L41.043 87.0019C40.0026 85.6282 39.029 84.2025 38.127 82.7295L37.7006 82.9906C36.7932 81.5088 35.9574 79.9796 35.1979 78.4074L35.6481 78.19C34.9006 76.6425 34.2277 75.0531 33.6342 73.4264L33.1645 73.5978C32.5707 71.9703 32.0554 70.3057 31.6233 68.6086L32.1078 68.4852C31.6852 66.8254 31.3429 65.1341 31.0851 63.4156L30.5907 63.4897C30.3346 61.7826 30.1613 60.0489 30.0747 58.2927L30.5741 58.2681C30.5319 57.4111 30.5105 56.5485 30.5105 55.6811C30.5105 54.8136 30.5319 53.951 30.5741 53.094L30.0747 53.0694C30.1613 51.3132 30.3346 49.5795 30.5907 47.8724L31.0851 47.9465C31.3429 46.228 31.6852 44.5367 32.1078 42.8769L31.6233 42.7535C32.0554 41.0564 32.5707 39.3918 33.1645 37.7643L33.6342 37.9357C34.2277 36.309 34.9006 34.7196 35.6481 33.1721L35.1979 32.9547C35.9574 31.3825 36.7932 29.8533 37.7006 28.3715L38.127 28.6326C39.0291 27.1596 40.0026 25.7339 41.043 24.3602L40.6444 24.0583C41.6962 22.6696 42.8155 21.3335 43.9976 20.055L44.3647 20.3945C45.5352 19.1285 46.7679 17.9193 48.0579 16.7718L47.7256 16.3982C49.0248 15.2425 50.3818 14.1486 51.7915 13.1214L52.086 13.5255C53.477 12.512 54.92 11.5639 56.4103 10.6859L56.1565 10.2551C57.6518 9.37413 59.1943 8.56308 60.7793 7.8265L60.99 8.27993C62.5474 7.5562 64.1462 6.90505 65.782 6.33089L65.6164 5.85911C67.2498 5.28577 68.9198 4.78849 70.622 4.3716L70.7409 4.85725C72.4043 4.44986 74.0987 4.11993 75.82 3.87159L75.7486 3.37672C77.4568 3.13026 79.1912 2.96343 80.9478 2.88014L80.9715 3.37958C81.829 3.33892 82.6919 3.31836 83.5597 3.31836C84.4275 3.31836 85.2904 3.33892 86.148 3.37958L86.1716 2.88014C87.9282 2.96343 89.6627 3.13026 91.3709 3.37672L91.2995 3.87159C93.0208 4.11993 94.7152 4.44986 96.3785 4.85725L96.4975 4.3716C98.1996 4.78849 99.8696 5.28577 101.503 5.85911L101.337 6.33089C102.973 6.90505 104.572 7.5562 106.129 8.27994L106.34 7.82651C107.925 8.56308 109.468 9.37414 110.963 10.2551L110.709 10.6859C112.199 11.5639 113.642 12.512 115.033 13.5255L115.328 13.1214C116.738 14.1486 118.095 15.2425 119.394 16.3982L119.062 16.7718C120.352 17.9193 121.584 19.1285 122.755 20.3945L123.122 20.055C124.304 21.3335 125.423 22.6696 126.475 24.0584L126.076 24.3602C127.117 25.7339 128.09 27.1596 128.992 28.6327L129.419 28.3715C130.326 29.8533 131.162 31.3825 131.922 32.9547L131.471 33.1721C132.219 34.7196 132.892 36.309 133.485 37.9357L133.955 37.7643C134.549 39.3918 135.064 41.0564 135.496 42.7535L135.012 42.8769C135.434 44.5367 135.777 46.228 136.034 47.9465L136.529 47.8724Z" stroke="#668AB8" stroke-dasharray="5 5"/>
<rect x="5" y="24" width="10" height="10" fill="#FDEB9C"/>
<rect x="157" y="49" width="10" height="10" fill="#FEF5CD"/>
<rect x="150" y="35" width="10" height="10" fill="#FDE26A"/>
<rect x="165" y="98" width="10" height="10" fill="#F7F7F7"/>
<g filter="url(#filter0_d)">
<rect x="25" y="13" width="94" height="124" fill="white"/>
</g>
<rect x="86" y="115" width="20" height="10" rx="1" fill="#FBCE07"/>
<rect x="58" y="92" width="48" height="5" fill="#D9D9D9"/>
<path d="M48.327 91.4034L40.467 99.2634L37.5623 96.38L38.5282 95.4045L40.4628 97.3261L47.3563 90.4326L48.327 91.4034Z" fill="#3363A0"/>
<rect x="58" y="76" width="48" height="5" fill="#D9D9D9"/>
<path d="M48.327 75.4034L40.467 83.2634L37.5623 80.38L38.5282 79.4045L40.4628 81.3261L47.3563 74.4326L48.327 75.4034Z" fill="#3363A0"/>
<rect x="58" y="60" width="48" height="5" fill="#D9D9D9"/>
<path d="M48.327 59.4034L40.467 67.2634L37.5623 64.38L38.5282 63.4045L40.4628 65.3261L47.3563 58.4326L48.327 59.4034Z" fill="#3363A0"/>
<rect x="58" y="44" width="48" height="5" fill="#D9D9D9"/>
<path d="M48.327 43.4034L40.467 51.2634L37.5623 48.38L38.5282 47.4045L40.4628 49.3261L47.3563 42.4326L48.327 43.4034Z" fill="#3363A0"/>
<defs>
<filter id="filter0_d" x="9" y="4" width="126" height="156" filterUnits="userSpaceOnUse" color-interpolation-filters="sRGB">
<feFlood flood-opacity="0" result="BackgroundImageFix"/>
<feColorMatrix in="SourceAlpha" type="matrix" values="0 0 0 0 0 0 0 0 0 0 0 0 0 0 0 0 0 0 127 0"/>
<feOffset dy="7"/>
<feGaussianBlur stdDeviation="8"/>
<feColorMatrix type="matrix" values="0 0 0 0 0 0 0 0 0 0 0 0 0 0 0 0 0 0 0.08 0"/>
<feBlend mode="normal" in2="BackgroundImageFix" result="effect1_dropShadow"/>
<feBlend mode="normal" in="SourceGraphic" in2="effect1_dropShadow" result="shape"/>
</filter>
</defs>
</svg>
