<svg width="89" height="89" viewBox="0 0 89 89" fill="none" xmlns="http://www.w3.org/2000/svg">
<path fill-rule="evenodd" clip-rule="evenodd" d="M67.6801 9.89483C60.9806 12.7772 53.2129 9.68271 50.3306 2.98317C50.1731 2.61716 50.0335 2.24797 49.9113 1.87655C49.6157 0.977944 48.8756 0.260867 47.9335 0.176166C45.2675 -0.0634981 42.5653 -0.0607334 39.8591 0.197396C38.8182 0.296676 38.045 1.15939 37.8357 2.18377C36.9994 6.27579 34.2403 9.90567 30.1129 11.6814C25.9855 13.4571 21.4527 12.9644 17.9066 10.7577C17.0189 10.2053 15.8608 10.1735 15.073 10.8609C13.0248 12.6483 11.1646 14.6084 9.50545 16.7087C8.91906 17.4511 8.9308 18.4815 9.38001 19.3141C9.5657 19.6582 9.73777 20.0135 9.89525 20.3795C12.7776 27.0791 9.68314 34.8467 2.9836 37.7291C2.61748 37.8866 2.24816 38.0262 1.87663 38.1484C0.977999 38.444 0.260894 39.1841 0.176186 40.1263C-0.0634851 42.7922 -0.0607406 45.4944 0.197353 48.2005C0.296625 49.2414 1.15938 50.0146 2.18381 50.2239C6.27599 51.0601 9.90605 53.8192 11.6818 57.9467C13.4576 62.0743 12.9648 66.6073 10.7579 70.1535C10.2054 71.0412 10.1736 72.1993 10.8611 72.9871C12.6483 75.0353 14.6084 76.8954 16.7087 78.5545C17.451 79.1409 18.4815 79.1291 19.3141 78.6799C19.6584 78.4941 20.0138 78.3219 20.38 78.1644C27.0796 75.282 34.8472 78.3765 37.7296 85.076C37.8871 85.4423 38.0268 85.8117 38.1491 86.1834C38.4446 87.082 39.1847 87.7992 40.127 87.8839C42.7928 88.1235 45.4949 88.1207 48.2009 87.8626C49.2418 87.7633 50.015 86.9006 50.2244 85.8761C51.0605 81.7838 53.8196 78.1536 57.9472 76.3778C62.0748 74.602 66.6078 75.0949 70.1539 77.3017C71.0417 77.8542 72.1998 77.886 72.9876 77.1985C75.0358 75.4112 76.8959 73.4512 78.5549 71.3508C79.1413 70.6085 79.1295 69.578 78.6803 68.7454C78.4946 68.4012 78.3224 68.0458 78.1649 67.6796C75.2825 60.9801 78.377 53.2124 85.0765 50.3301C85.4426 50.1726 85.8119 50.0329 86.1835 49.9107C87.0821 49.6151 87.7992 48.875 87.8839 47.9328C88.1235 45.2669 88.1207 42.5646 87.8625 39.8585C87.7633 38.8176 86.9005 38.0444 85.8762 37.8351C81.7841 36.9989 78.1542 34.2397 76.3785 30.1123C74.6028 25.985 75.0955 21.4523 77.302 17.9062C77.8544 17.0185 77.8862 15.8604 77.1988 15.0726C75.4114 13.0244 73.4512 11.1642 71.3508 9.50507C70.6085 8.91871 69.578 8.93045 68.7455 9.37964C68.4014 9.56531 68.0461 9.73736 67.6801 9.89483ZM44.4267 71.4C59.7618 71.4 72.1934 58.9684 72.1934 43.6333C72.1934 28.2982 59.7618 15.8666 44.4267 15.8666C29.0916 15.8666 16.66 28.2982 16.66 43.6333C16.66 58.9684 29.0916 71.4 44.4267 71.4Z" fill="#D9D9D9"/>
<mask id="mask0" mask-type="alpha" maskUnits="userSpaceOnUse" x="19" y="18" width="51" height="52">
<circle cx="44.4267" cy="43.6328" r="25.3867" fill="#C4C4C4"/>
</mask>
<g mask="url(#mask0)">
<path fill-rule="evenodd" clip-rule="evenodd" d="M25.0256 62.708C25.0258 62.7081 25.0259 62.7083 25.026 62.7084C35.7803 74.9567 54.4276 76.1678 66.6759 65.4135C78.9242 54.6592 80.1353 36.0119 69.381 23.7636C69.3809 23.7635 69.3808 23.7633 69.3807 23.7632L25.0256 62.708Z" fill="#CCE6D9"/>
<path fill-rule="evenodd" clip-rule="evenodd" d="M69.3806 23.7639L25.0256 62.7087C14.2713 50.4604 15.4824 31.8132 27.7307 21.0588C39.979 10.3045 58.6263 11.5157 69.3806 23.7639Z" fill="#008443"/>
</g>
</svg>
