<svg width="14" height="14" viewBox="0 0 14 14" fill="none" xmlns="http://www.w3.org/2000/svg">
<path d="M5.49993 1H4.19995C3.07984 1 2.51984 1 2.09198 1.218C1.71566 1.40973 1.40973 1.71566 1.218 2.09198C1 2.51984 1 3.07984 1 4.19995V9.79987C1 10.92 1 11.48 1.218 11.9078C1.40973 12.2842 1.71566 12.5901 2.09198 12.7818C2.51984 12.9998 3.07984 12.9998 4.19995 12.9998H9.79987C10.92 12.9998 11.48 12.9998 11.9078 12.7818C12.2842 12.5901 12.5901 12.2842 12.7818 11.9078C12.9998 11.48 12.9998 10.92 12.9998 9.79987V8.49989" stroke="#595959" stroke-width="1.33628" stroke-linecap="round" stroke-linejoin="round"/>
<path d="M12.6669 1.3313L9.00024 4.99791" stroke="#595959" stroke-width="1.33628" stroke-linecap="round" stroke-linejoin="round"/>
<path d="M13.0002 4.99994V1H9.00024" stroke="#595959" stroke-width="1.33628" stroke-linecap="round" stroke-linejoin="round"/>
</svg>
