<svg width="60" height="60" viewBox="0 0 60 60" fill="none" xmlns="http://www.w3.org/2000/svg">
<g clip-path="url(#clip0)">
<rect width="60" height="60" fill="white"/>
<path d="M13.2132 1.8958C0.29768 -3.74812 9.54218 18.7452 10.753 28.3477C9.00403 32.4631 -0.682445 40.659 1.25488 50.5359C3.67654 62.882 28.4403 59.376 44.5846 54.6727C60.729 49.9694 62.8826 18.2241 53.196 9.99339C43.5094 1.76267 29.3576 8.9507 13.2132 1.8958Z" fill="#F7F7F7"/>
<path d="M30.2533 46.5914V55H49V9H12V37.6882" stroke="#FBCE07" stroke-width="2"/>
<g filter="url(#filter0_d)">
<path d="M19 29H42V36.5C42 42.8513 36.8513 48 30.5 48V48C24.1487 48 19 42.8513 19 36.5V29Z" fill="#F7F7F7"/>
</g>
<path d="M19.25 29.25H41.75V36.5C41.75 42.7132 36.7132 47.75 30.5 47.75C24.2868 47.75 19.25 42.7132 19.25 36.5V29.25Z" fill="white" stroke="#7F7F7F" stroke-width="0.5"/>
<rect x="22" y="23" width="2" height="6" fill="#7F7F7F"/>
<rect x="36" y="23" width="2" height="6" fill="#7F7F7F"/>
</g>
<defs>
<filter id="filter0_d" x="3" y="20" width="55" height="51" filterUnits="userSpaceOnUse" color-interpolation-filters="sRGB">
<feFlood flood-opacity="0" result="BackgroundImageFix"/>
<feColorMatrix in="SourceAlpha" type="matrix" values="0 0 0 0 0 0 0 0 0 0 0 0 0 0 0 0 0 0 127 0"/>
<feOffset dy="7"/>
<feGaussianBlur stdDeviation="8"/>
<feColorMatrix type="matrix" values="0 0 0 0 0 0 0 0 0 0 0 0 0 0 0 0 0 0 0.08 0"/>
<feBlend mode="normal" in2="BackgroundImageFix" result="effect1_dropShadow"/>
<feBlend mode="normal" in="SourceGraphic" in2="effect1_dropShadow" result="shape"/>
</filter>
<clipPath id="clip0">
<rect width="60" height="60" fill="white"/>
</clipPath>
</defs>
</svg>
