<svg width="472" height="47" viewBox="0 0 472 47" fill="none" xmlns="http://www.w3.org/2000/svg">
<path d="M79.8767 5.0673C79.513 4.92073 79.1492 4.84744 78.7491 4.84744C78.3126 4.84744 77.9852 4.95737 77.6942 5.17723C77.4032 5.3971 77.2577 5.6536 77.2577 5.9834C77.2577 6.12997 77.294 6.2399 77.3304 6.34983C77.4032 6.45976 77.4759 6.56969 77.5487 6.64298C77.7305 6.78956 77.9488 6.89949 78.1307 7.00942C78.3489 7.08271 78.8218 7.26592 79.5857 7.48579C80.7133 7.81558 81.55 8.29195 82.0592 8.87825C82.5685 9.46455 82.8231 10.2341 82.8231 11.2234C82.8231 12.7258 82.3866 13.8618 81.4772 14.6679C81.0043 15.071 80.4587 15.3642 79.804 15.584C79.1492 15.8039 78.4217 15.9138 77.6942 15.9138C76.9303 15.9138 76.13 15.8039 75.3661 15.5474C74.6022 15.2909 73.8384 14.9245 73.1472 14.4481L74.6022 11.6632C75.1479 12.1395 75.6571 12.4693 76.13 12.6892C76.6029 12.9091 77.1122 13.019 77.6214 13.019C78.1307 13.019 78.5308 12.9091 78.8218 12.6525C79.1128 12.4327 79.2583 12.1029 79.2583 11.7365C79.2583 11.37 79.1128 11.0769 78.8218 10.857C78.5308 10.6371 77.9852 10.4173 77.1849 10.1974C76.4574 9.97756 75.9118 9.79434 75.5844 9.64776C75.2206 9.50119 74.9296 9.31797 74.7114 9.13475C74.0202 8.54845 73.6565 7.66901 73.6565 6.49641C73.6565 5.61696 73.8384 4.84744 74.2385 4.15121C74.6022 3.49163 75.1479 2.94197 75.8026 2.57553C76.4574 2.2091 77.2577 2.02588 78.1307 2.02588C78.8218 2.02588 79.513 2.13581 80.2405 2.31903C80.968 2.50225 81.6591 2.75875 82.3139 3.12519L80.968 5.80018C80.6042 5.43374 80.2405 5.21388 79.8767 5.0673Z" fill="#E1251B"/>
<path d="M88.1704 7.70579C88.6069 7.19278 89.007 6.86299 89.4436 6.64313C89.8437 6.45991 90.3893 6.34998 91.0441 6.34998C92.1353 6.34998 93.0084 6.67977 93.6267 7.33936C93.9541 7.66915 94.1724 7.99894 94.2815 8.36538C94.3906 8.73182 94.4634 9.20818 94.4634 9.83113V15.5475H91.2987V11.0037C91.2987 10.5274 91.2987 10.2342 91.2623 10.051C91.226 9.90442 91.1896 9.7212 91.1168 9.57462C91.0077 9.35476 90.8622 9.20818 90.6439 9.06161C90.4257 8.91504 90.1711 8.87839 89.8801 8.87839C89.6254 8.87839 89.3708 8.95168 89.1525 9.06161C88.9343 9.17154 88.716 9.31812 88.5705 9.50133C88.4614 9.64791 88.3523 9.83113 88.3159 10.051C88.2795 10.2342 88.2432 10.4907 88.2432 10.7472V15.5842H85.0785V1H88.2432V7.70579H88.1704Z" fill="#E1251B"/>
<path d="M101.302 13.6786C101.666 13.6786 101.993 13.6053 102.211 13.4954C102.466 13.3488 102.684 13.129 102.866 12.8358H105.922C105.812 13.2389 105.703 13.5321 105.594 13.7519C105.485 13.9718 105.34 14.1916 105.158 14.4115C104.758 14.8879 104.212 15.2543 103.557 15.5108C102.902 15.7673 102.139 15.9139 101.338 15.9139C100.32 15.9139 99.4104 15.7307 98.6465 15.3276C97.8826 14.9245 97.3006 14.3749 96.8641 13.642C96.4276 12.9091 96.2457 12.0663 96.2457 11.1136C96.2457 10.1242 96.464 9.28139 96.8641 8.54852C97.2642 7.81565 97.8463 7.26599 98.6101 6.86291C99.374 6.45983 100.247 6.27661 101.266 6.27661C102.793 6.27661 103.957 6.71634 104.83 7.59578C105.703 8.47523 106.14 9.72112 106.14 11.2968V11.6266H99.4831C99.4104 13.019 100.065 13.6786 101.302 13.6786ZM102.466 8.73174C102.139 8.47523 101.738 8.3653 101.266 8.3653C100.793 8.3653 100.393 8.47523 100.065 8.73174C99.7378 8.98824 99.5559 9.35468 99.4831 9.79441H103.121C103.012 9.35468 102.793 8.98824 102.466 8.73174Z" fill="#E1251B"/>
<path d="M107.959 15.5475V1H111.123V15.5475H107.959Z" fill="#E1251B"/>
<path d="M113.27 15.5475V1H116.434V15.5475H113.27Z" fill="#E1251B"/>
<path d="M82.5278 24.47C82.0188 24.2515 81.5098 24.1786 80.928 24.1786C80.3463 24.1786 79.8736 24.3243 79.4737 24.6157C79.0737 24.9071 78.8919 25.3078 78.8919 25.7449C78.8919 25.927 78.9283 26.1091 79.001 26.2549C79.0737 26.4006 79.1828 26.5463 79.3282 26.6555C79.5828 26.8741 79.8736 27.0198 80.1645 27.1291C80.4554 27.2383 81.1462 27.4569 82.2006 27.7847C83.8004 28.2583 84.9275 28.8775 85.6547 29.7153C86.3819 30.5531 86.7091 31.6094 86.7091 32.9571C86.7091 35.0698 86.091 36.6361 84.8185 37.7289C84.164 38.2752 83.4005 38.7124 82.4551 39.0038C81.5462 39.2952 80.5645 39.4409 79.51 39.4409C78.4193 39.4409 77.3285 39.2587 76.2377 38.9309C75.147 38.5667 74.1289 38.0567 73.1472 37.3646L75.1833 33.5035C75.9469 34.1592 76.6377 34.6327 77.3285 34.9241C78.0193 35.2155 78.7102 35.3612 79.401 35.3612C80.0918 35.3612 80.6735 35.2155 81.0735 34.8877C81.5098 34.5599 81.6916 34.1228 81.6916 33.5764C81.6916 33.0664 81.5098 32.6657 81.1098 32.3743C80.7099 32.0829 79.9464 31.7551 78.8192 31.4637C77.8012 31.1723 77.074 30.8809 76.565 30.6988C76.0559 30.4802 75.656 30.2617 75.3288 29.9702C74.3471 29.1689 73.8744 27.9304 73.8744 26.3277C73.8744 25.0892 74.1289 24.0329 74.6743 23.0858C75.2197 22.1388 75.9469 21.4103 76.8922 20.9003C77.8375 20.3904 78.9283 20.1354 80.1282 20.1354C81.0735 20.1354 82.0552 20.2811 83.0732 20.5361C84.0549 20.791 85.0366 21.1553 85.9456 21.6288L84.0913 25.4171C83.5459 25.0164 83.0369 24.6886 82.5278 24.47Z" fill="#00833E"/>
<path d="M92.0902 39.259C91.5811 39.0769 91.1085 38.8219 90.7085 38.4212C90.2359 37.9841 89.8723 37.4377 89.6541 36.7821C89.436 36.1264 89.2905 35.2522 89.2905 34.1959V26.5465H93.69V33.5402C93.69 34.378 93.8718 34.9608 94.199 35.3615C94.5626 35.7257 95.0716 35.9443 95.7988 35.9443C96.4169 35.9443 96.9259 35.6893 97.2895 35.2158C97.6531 34.7422 97.8712 33.9045 97.8712 32.8117V26.5465H102.271V39.0404H97.9076V37.1827C97.3986 37.9841 96.8168 38.5669 96.2351 38.9676C95.617 39.3318 94.9262 39.5504 94.0535 39.5504C93.2537 39.5504 92.5992 39.4411 92.0902 39.259Z" fill="#00833E"/>
<path d="M105.325 26.5461H109.724V27.9303C110.197 27.311 110.779 26.8739 111.397 26.5461C112.015 26.2547 112.742 26.109 113.578 26.109C114.742 26.109 115.833 26.4004 116.778 26.9832C117.76 27.566 118.487 28.4038 119.069 29.4237C119.614 30.4436 119.905 31.5728 119.905 32.8113C119.905 34.0498 119.614 35.1425 119.069 36.1624C118.523 37.1823 117.76 37.9837 116.814 38.5665C115.869 39.1493 114.778 39.4407 113.615 39.4407C112.815 39.4407 112.124 39.295 111.506 39.04C110.888 38.7851 110.306 38.348 109.761 37.8016V45.3052H105.361V26.5461H105.325ZM110.415 30.7715C109.87 31.3178 109.579 31.9735 109.579 32.7749C109.579 33.5762 109.87 34.2683 110.415 34.8147C110.96 35.3611 111.651 35.6525 112.451 35.6525C113.215 35.6525 113.869 35.3611 114.451 34.8147C115.033 34.2683 115.287 33.6127 115.287 32.8477C115.287 32.0464 114.996 31.3543 114.451 30.7715C113.906 30.1887 113.215 29.9337 112.415 29.9337C111.615 29.9337 110.96 30.2251 110.415 30.7715Z" fill="#00833E"/>
<path d="M122.377 26.5461H126.777V27.9303C127.249 27.311 127.831 26.8739 128.449 26.5461C129.067 26.2183 129.795 26.109 130.631 26.109C131.794 26.109 132.885 26.4004 133.83 26.9832C134.812 27.566 135.539 28.4038 136.121 29.4237C136.666 30.4436 136.957 31.5728 136.957 32.8113C136.957 34.0498 136.666 35.1425 136.121 36.1624C135.576 37.1823 134.812 37.9837 133.867 38.5665C132.921 39.1493 131.831 39.4407 130.667 39.4407C129.867 39.4407 129.176 39.295 128.558 39.04C127.94 38.7851 127.359 38.348 126.813 37.8016V45.3052H122.414V26.5461H122.377ZM127.468 30.7715C126.922 31.3178 126.631 31.9735 126.631 32.7749C126.631 33.5762 126.922 34.2683 127.468 34.8147C128.013 35.3611 128.704 35.6525 129.504 35.6525C130.267 35.6525 130.922 35.3611 131.503 34.8147C132.085 34.2683 132.34 33.6127 132.34 32.8477C132.34 32.0464 132.049 31.3543 131.503 30.7715C130.958 30.2251 130.267 29.9337 129.467 29.9337C128.667 29.9337 128.049 30.2251 127.468 30.7715Z" fill="#00833E"/>
<path d="M139.466 39.0402V18.8241H143.865V39.0402H139.466Z" fill="#00833E"/>
<path d="M150.846 19.9897C151.319 20.4632 151.573 21.046 151.573 21.7381C151.573 22.4302 151.319 23.013 150.846 23.523C150.374 24.0329 149.792 24.2515 149.101 24.2515C148.41 24.2515 147.828 23.9965 147.319 23.523C146.847 23.0494 146.592 22.4302 146.592 21.7381C146.592 21.0825 146.847 20.4996 147.319 20.0261C147.792 19.5526 148.374 19.2976 149.065 19.2976C149.756 19.2976 150.337 19.5162 150.846 19.9897ZM146.883 39.0402V26.5463H151.283V39.0402H146.883Z" fill="#00833E"/>
<path d="M160.918 36.4175C161.427 36.4175 161.863 36.3446 162.19 36.1625C162.518 35.9804 162.845 35.689 163.099 35.2518H167.353C167.208 35.7982 167.026 36.1989 166.881 36.5267C166.735 36.8546 166.517 37.146 166.263 37.4374C165.681 38.093 164.954 38.603 164.008 39.0037C163.063 39.3679 162.045 39.5501 160.918 39.5501C159.5 39.5501 158.227 39.2951 157.173 38.7487C156.118 38.2023 155.282 37.4374 154.7 36.4175C154.119 35.3976 153.828 34.2319 153.828 32.9206C153.828 31.5729 154.119 30.3708 154.664 29.3874C155.209 28.3674 156.046 27.6025 157.064 27.0561C158.118 26.5097 159.354 26.2548 160.772 26.2548C162.881 26.2548 164.554 26.874 165.754 28.1125C166.953 29.3509 167.571 31.0629 167.571 33.2484V33.6856H158.264C158.264 35.5068 159.136 36.4175 160.918 36.4175ZM162.518 29.5695C162.045 29.2052 161.5 29.0595 160.845 29.0595C160.191 29.0595 159.645 29.2417 159.173 29.5695C158.736 29.9337 158.445 30.4073 158.336 31.0629H163.39C163.281 30.4073 162.954 29.8973 162.518 29.5695Z" fill="#00833E"/>
<path d="M174.407 28.5861C174.916 27.7847 175.498 27.2019 176.152 26.8741C176.77 26.5463 177.57 26.3641 178.515 26.3641C178.806 26.3641 179.097 26.3641 179.352 26.4006V30.6259C178.988 30.4802 178.697 30.3345 178.443 30.2981C178.188 30.2252 177.861 30.1888 177.497 30.1888C175.425 30.1888 174.407 31.3544 174.407 33.6857V39.0402H170.007V26.5463H174.407V28.5861Z" fill="#00833E"/>
<path d="M193.386 27.7849H198.731V31.8281H193.386V34.9971H199.022V39.0404H188.587V20.6455H199.022V24.6887H193.386V27.7849Z" fill="#00833E"/>
<path d="M206.076 28.1492C206.694 27.4571 207.275 26.9836 207.857 26.6922C208.439 26.4372 209.166 26.2915 210.075 26.2915C211.602 26.2915 212.802 26.765 213.675 27.6757C214.111 28.1128 214.402 28.5863 214.584 29.0963C214.729 29.6062 214.838 30.2983 214.838 31.1361V39.0768H210.439V32.7388C210.439 32.0832 210.439 31.646 210.402 31.4275C210.366 31.2089 210.293 30.9904 210.184 30.7718C210.039 30.4804 209.821 30.2255 209.493 30.0798C209.166 29.8976 208.803 29.8248 208.439 29.8248C208.075 29.8248 207.748 29.8976 207.421 30.0433C207.094 30.189 206.803 30.4076 206.585 30.6261C206.439 30.8447 206.294 31.0997 206.221 31.3546C206.148 31.6096 206.112 31.9375 206.112 32.3381V39.0404H201.713V26.5465H206.112V28.1492H206.076Z" fill="#00833E"/>
<path d="M224.473 36.4175C224.982 36.4175 225.419 36.3446 225.746 36.1625C226.073 35.9804 226.4 35.689 226.655 35.2518H230.909C230.763 35.7982 230.582 36.1989 230.436 36.5267C230.291 36.8546 230.072 37.146 229.818 37.4374C229.236 38.093 228.509 38.603 227.564 39.0037C226.618 39.3679 225.6 39.5501 224.473 39.5501C223.055 39.5501 221.783 39.2951 220.728 38.7487C219.674 38.2023 218.838 37.4374 218.256 36.4175C217.674 35.434 217.383 34.2319 217.383 32.9206C217.383 31.5729 217.674 30.3708 218.219 29.3874C218.765 28.3674 219.601 27.6025 220.619 27.0561C221.674 26.5097 222.91 26.2548 224.328 26.2548C226.437 26.2548 228.109 26.874 229.309 28.1125C230.509 29.3509 231.127 31.0629 231.127 33.2484V33.6856H221.855C221.819 35.5068 222.692 36.4175 224.473 36.4175ZM226.073 29.5695C225.6 29.2052 225.055 29.0595 224.4 29.0595C223.746 29.0595 223.201 29.2417 222.728 29.5695C222.292 29.9337 222.001 30.4073 221.892 31.0629H226.982C226.837 30.4073 226.509 29.8973 226.073 29.5695Z" fill="#00833E"/>
<path d="M237.962 28.5861C238.471 27.7847 239.053 27.2019 239.708 26.8741C240.326 26.5463 241.126 26.3641 242.071 26.3641C242.362 26.3641 242.653 26.3641 242.907 26.4006V30.6259C242.544 30.4802 242.253 30.3345 241.998 30.2981C241.744 30.2252 241.417 30.1888 241.053 30.1888C238.98 30.1888 237.962 31.3544 237.962 33.6857V39.0402H233.563V26.5463H237.962V28.5861Z" fill="#00833E"/>
<path d="M258.614 41.2621C258.396 41.9906 257.924 42.6827 257.269 43.3384C255.924 44.6861 254.07 45.3782 251.706 45.3782C249.27 45.3782 247.343 44.6497 245.998 43.1562C245.598 42.7191 245.271 42.3184 245.089 41.9542C244.871 41.5899 244.725 41.1164 244.653 40.57H249.634C249.925 41.4078 250.615 41.8449 251.743 41.8449C252.652 41.8449 253.342 41.5899 253.851 41.0435C254.36 40.4972 254.615 39.7687 254.615 38.8216V37.6924C253.96 38.3116 253.342 38.7123 252.761 38.9673C252.179 39.1858 251.488 39.3316 250.688 39.3316C249.488 39.3316 248.434 39.0766 247.525 38.5302C246.616 37.9838 245.889 37.2553 245.343 36.2718C244.834 35.3247 244.58 34.232 244.58 32.9935C244.58 31.7186 244.871 30.5894 245.416 29.5331C245.961 28.5132 246.725 27.6754 247.707 27.0926C248.688 26.5098 249.743 26.2184 250.943 26.2184C251.743 26.2184 252.433 26.3641 253.015 26.6191C253.597 26.874 254.142 27.3111 254.651 27.894V26.5462H258.978V38.2024C258.978 39.5137 258.869 40.5336 258.614 41.2621ZM249.961 30.7351C249.416 31.2815 249.125 31.9372 249.125 32.7021C249.125 33.5035 249.416 34.1956 249.961 34.7419C250.506 35.2883 251.197 35.5797 251.961 35.5797C252.724 35.5797 253.415 35.2883 253.96 34.7419C254.506 34.1956 254.797 33.5035 254.797 32.7021C254.797 31.9372 254.506 31.2451 253.96 30.6987C253.415 30.1523 252.724 29.8609 251.961 29.8609C251.197 29.9338 250.543 30.1888 249.961 30.7351Z" fill="#00833E"/>
<path d="M265.813 26.5465L269.158 32.9574L272.394 26.5465H277.448L267.45 45.3056H262.505L266.759 37.3649L260.687 26.5465H265.813Z" fill="#00833E"/>
<path d="M288.392 39.0404V24.6887H284.502V20.6455H297.082V24.6887H293.155V39.0404H288.392Z" fill="#00833E"/>
<path d="M302.5 28.5861C303.009 27.7847 303.59 27.2019 304.245 26.8741C304.863 26.5463 305.663 26.3641 306.608 26.3641C306.899 26.3641 307.19 26.3641 307.444 26.4006V30.6259C307.081 30.4802 306.79 30.3345 306.535 30.2981C306.281 30.2252 305.954 30.1888 305.59 30.1888C303.518 30.1888 302.5 31.3544 302.5 33.6857V39.0402H298.1V26.5463H302.5V28.5861Z" fill="#00833E"/>
<path d="M323.624 39.04H319.225V37.6559C318.752 38.2751 318.17 38.7122 317.552 39.0036C316.934 39.295 316.207 39.4407 315.371 39.4407C314.207 39.4407 313.116 39.1493 312.171 38.5665C311.189 37.9837 310.462 37.1459 309.88 36.126C309.335 35.1061 309.044 33.9769 309.044 32.7384C309.044 31.5 309.335 30.4072 309.88 29.3873C310.426 28.3674 311.189 27.566 312.135 26.9832C313.08 26.4004 314.134 26.109 315.298 26.109C316.098 26.109 316.789 26.2547 317.443 26.5097C318.061 26.7647 318.643 27.2018 319.225 27.7482V26.5461H323.624V39.04ZM314.498 30.7715C313.953 31.3178 313.662 31.9735 313.662 32.7384C313.662 33.5398 313.953 34.2319 314.498 34.8147C315.043 35.3611 315.734 35.6525 316.534 35.6525C317.298 35.6525 317.988 35.3611 318.534 34.8147C319.079 34.2683 319.37 33.5762 319.37 32.7749C319.37 32.0099 319.079 31.3178 318.534 30.7715C317.988 30.2251 317.298 29.9337 316.498 29.9337C315.734 29.9337 315.08 30.2251 314.498 30.7715Z" fill="#00833E"/>
<path d="M331.041 28.1492C331.659 27.4571 332.241 26.9836 332.823 26.6922C333.405 26.4372 334.132 26.2915 335.041 26.2915C336.568 26.2915 337.768 26.765 338.64 27.6757C339.077 28.1128 339.368 28.5863 339.549 29.0963C339.695 29.6062 339.804 30.2983 339.804 31.1361V39.0768H335.404V32.7388C335.404 32.0832 335.404 31.646 335.368 31.4275C335.332 31.2089 335.259 30.9904 335.15 30.7718C335.004 30.4804 334.786 30.2255 334.459 30.0798C334.132 29.8976 333.768 29.8248 333.405 29.8248C333.041 29.8248 332.714 29.8976 332.387 30.0433C332.059 30.189 331.768 30.4076 331.55 30.6261C331.405 30.8447 331.259 31.0997 331.187 31.3546C331.114 31.6096 331.078 31.9375 331.078 32.3381V39.0404H326.678V26.5465H331.078V28.1492H331.041Z" fill="#00833E"/>
<path d="M348.675 29.169C348.275 29.169 347.948 29.2418 347.73 29.4239C347.475 29.6061 347.366 29.8246 347.366 30.0796C347.366 30.2617 347.403 30.4074 347.512 30.5167C347.621 30.626 347.803 30.7353 348.057 30.8081C348.348 30.881 348.748 30.9902 349.33 31.1359C350.566 31.3909 351.475 31.7916 352.057 32.4108C352.638 33.0301 352.929 33.8314 352.929 34.8149C352.929 35.762 352.675 36.5998 352.202 37.2918C351.729 37.9839 351.039 38.5303 350.13 38.931C349.221 39.2952 348.203 39.5138 347.003 39.5138C345.258 39.5138 343.621 39.0403 342.022 38.0568L343.621 34.9606C344.239 35.3613 344.821 35.6527 345.476 35.8713C346.094 36.0898 346.676 36.1991 347.185 36.1991C347.585 36.1991 347.912 36.0898 348.166 35.9077C348.421 35.7255 348.566 35.4706 348.566 35.1792C348.566 34.8878 348.457 34.6692 348.203 34.5235C347.948 34.3778 347.439 34.2321 346.712 34.05C345.403 33.7586 344.458 33.3579 343.912 32.8479C343.367 32.3016 343.076 31.573 343.076 30.5531C343.076 29.169 343.585 28.0398 344.567 27.2384C345.548 26.4371 346.93 26.0364 348.639 26.0364C349.402 26.0364 350.093 26.1092 350.711 26.2185C351.329 26.3278 351.984 26.5463 352.675 26.8377L351.184 29.6789C350.239 29.3511 349.439 29.169 348.675 29.169Z" fill="#00833E"/>
<path d="M359.11 19.9897C359.583 20.4632 359.838 21.046 359.838 21.7381C359.838 22.4302 359.583 23.013 359.11 23.523C358.638 24.0329 358.056 24.2515 357.365 24.2515C356.674 24.2515 356.093 23.9965 355.584 23.523C355.111 23.0494 354.856 22.4302 354.856 21.7381C354.856 21.0825 355.111 20.4996 355.584 20.0261C356.056 19.5526 356.638 19.2976 357.329 19.2976C358.02 19.2976 358.638 19.5162 359.11 19.9897ZM355.147 39.0402V26.5463H359.547V39.0402H355.147Z" fill="#00833E"/>
<path d="M364.273 38.2754C363.946 37.8747 363.655 37.4376 363.51 36.9276C363.328 36.4541 363.255 35.7256 363.255 34.7785V30.1161H361.801V26.5464H363.255V22.7946H367.655V26.5464H370.563V30.1161H367.655V34.9971C367.655 35.6892 368.018 36.0534 368.782 36.0534C369.073 36.0534 369.364 36.017 369.654 35.9077C369.945 35.8349 370.2 35.7256 370.418 35.5799V39.0039C369.691 39.2953 368.782 39.4774 367.618 39.4774C365.982 39.4774 364.891 39.0767 364.273 38.2754Z" fill="#00833E"/>
<path d="M377.072 19.9897C377.545 20.4632 377.799 21.046 377.799 21.7381C377.799 22.4302 377.545 23.013 377.072 23.523C376.599 24.0329 376.017 24.2515 375.327 24.2515C374.636 24.2515 374.054 23.9965 373.545 23.523C373.072 23.0494 372.818 22.4302 372.818 21.7381C372.818 21.0825 373.072 20.4996 373.545 20.0261C374.018 19.5526 374.599 19.2976 375.29 19.2976C375.981 19.2976 376.599 19.5162 377.072 19.9897ZM373.109 39.0402V26.5463H377.508V39.0402H373.109Z" fill="#00833E"/>
<path d="M391.397 26.947C392.524 27.5298 393.433 28.2948 394.088 29.3147C394.742 30.3346 395.033 31.5002 395.033 32.7751C395.033 34.0864 394.706 35.252 394.088 36.2719C393.433 37.2918 392.561 38.0932 391.397 38.6396C390.234 39.2224 388.925 39.4774 387.47 39.4774C386.016 39.4774 384.744 39.186 383.616 38.6032C382.489 38.0204 381.617 37.219 380.999 36.1991C380.38 35.1792 380.053 33.9771 380.053 32.6658C380.053 31.7552 380.235 30.881 380.635 30.0068C381.035 29.1325 381.58 28.404 382.307 27.7848C382.926 27.2384 383.689 26.8377 384.634 26.5099C385.58 26.2185 386.525 26.0364 387.543 26.0364C388.961 26.0728 390.234 26.3642 391.397 26.947ZM385.507 30.7353C384.962 31.2816 384.671 31.9737 384.671 32.7387C384.671 33.54 384.962 34.2321 385.507 34.8149C386.052 35.3977 386.743 35.6527 387.543 35.6527C388.343 35.6527 388.997 35.3613 389.579 34.8149C390.161 34.2685 390.416 33.5764 390.416 32.7751C390.416 31.9737 390.125 31.3181 389.579 30.7353C389.034 30.1889 388.343 29.8975 387.543 29.8975C386.743 29.8975 386.089 30.1889 385.507 30.7353Z" fill="#00833E"/>
<path d="M401.941 28.1492C402.559 27.4571 403.141 26.9836 403.723 26.6922C404.304 26.4372 405.032 26.2915 405.941 26.2915C407.468 26.2915 408.667 26.765 409.54 27.6757C409.976 28.1128 410.267 28.5863 410.449 29.0963C410.595 29.6062 410.704 30.2983 410.704 31.1361V39.0768H406.304V32.7388C406.304 32.0832 406.304 31.646 406.268 31.4275C406.231 31.2089 406.159 30.9904 406.05 30.7718C405.904 30.4804 405.686 30.2255 405.359 30.0798C405.032 29.8976 404.668 29.8248 404.304 29.8248C403.941 29.8248 403.614 29.8976 403.286 30.0433C402.959 30.189 402.668 30.4076 402.45 30.6261C402.305 30.8447 402.159 31.0997 402.087 31.3546C402.014 31.6096 401.977 31.9375 401.977 32.3381V39.0404H397.578V26.5465H401.977V28.1492H401.941Z" fill="#00833E"/>
<path d="M432.665 20.6455H437.428V39.0404H432.665V31.4639H425.756V39.0404H420.993V20.6455H425.756V27.7849H432.665V20.6455Z" fill="#00833E"/>
<path d="M443.681 39.259C443.172 39.0769 442.7 38.8219 442.3 38.4212C441.827 37.9841 441.463 37.4377 441.245 36.7821C441.027 36.1264 440.882 35.2522 440.882 34.1959V26.5465H445.281V33.5402C445.281 34.378 445.463 34.9608 445.79 35.3615C446.154 35.7257 446.663 35.9443 447.39 35.9443C448.008 35.9443 448.517 35.6893 448.881 35.2158C449.244 34.7422 449.462 33.9045 449.462 32.8117V26.5465H453.862V39.0404H449.462V37.1827C448.953 37.9841 448.372 38.5669 447.79 38.9676C447.208 39.3683 446.481 39.5504 445.608 39.5504C444.845 39.5504 444.19 39.4411 443.681 39.259Z" fill="#00833E"/>
<path d="M463.061 26.5099C463.679 26.2549 464.37 26.1092 465.169 26.1092C466.333 26.1092 467.387 26.4006 468.369 26.9834C469.314 27.5662 470.078 28.3676 470.623 29.3875C471.169 30.4074 471.46 31.5002 471.46 32.7386C471.46 33.9771 471.169 35.1063 470.623 36.1262C470.078 37.1461 469.314 37.9475 468.333 38.5667C467.351 39.1495 466.297 39.4409 465.133 39.4409C464.297 39.4409 463.57 39.2952 462.952 39.0038C462.333 38.7124 461.788 38.2753 461.279 37.6561V39.0402H456.88V18.8241H461.279V27.7483C461.824 27.202 462.443 26.8013 463.061 26.5099ZM461.97 30.7716C461.425 31.318 461.134 31.9737 461.134 32.775C461.134 33.5764 461.425 34.2685 461.97 34.8149C462.515 35.3612 463.206 35.6527 464.006 35.6527C464.77 35.6527 465.424 35.3612 466.006 34.8149C466.587 34.2685 466.842 33.6128 466.842 32.8479C466.842 32.0465 466.551 31.3545 466.006 30.7716C465.46 30.2253 464.77 29.9339 464.006 29.9339C463.206 29.9339 462.552 30.2253 461.97 30.7716Z" fill="#00833E"/>
<path d="M10.4882 44.2172L10.5404 44.6586H10.9848H22.786L23.3136 45.0883L23.3305 45.102L23.3486 45.1143C24.0128 45.5651 24.841 45.8781 25.6924 45.8781C26.5154 45.8781 27.3629 45.6492 28.0659 45.0926L28.0659 45.0926L28.0712 45.0883L28.5988 44.6586H40.4001H40.8412L40.8962 44.2208L42.0008 35.4225L49.0823 30.1973L49.2348 30.0847L49.2744 29.8994C49.6161 28.2991 49.7513 26.6369 49.7513 24.9845C49.7513 11.506 39.0218 0.5 25.6924 0.5C12.4314 0.5 1.63354 11.4364 1.63354 24.9845C1.63354 26.6369 1.76871 28.2991 2.11042 29.8994L2.15027 30.086L2.30429 30.1986L9.44897 35.4225L10.4882 44.2172Z" fill="#FBCE07" stroke="white"/>
<path fill-rule="evenodd" clip-rule="evenodd" d="M22.9638 44.1586H10.9848L9.91995 35.1474L2.5994 29.795C2.26665 28.2366 2.13354 26.6106 2.13354 24.9845C2.13354 11.7049 12.7151 1 25.6924 1C38.6698 1 49.2513 11.7727 49.2513 24.9845C49.2513 26.6106 49.1182 28.2366 48.7854 29.795L41.5314 35.1474L40.4001 44.1586H28.421L27.7555 44.7006C27.1565 45.1748 26.4245 45.3781 25.6924 45.3781C24.9604 45.3781 24.2283 45.1071 23.6293 44.7006L22.9638 44.1586ZM14.6451 39.9581L13.7799 32.7763L6.59249 27.4916C6.39284 26.6785 6.25974 25.7977 6.25974 24.917C6.25974 23.4941 6.52594 22.0713 7.12489 20.784L19.836 33.8603L7.5242 18.3449C7.99005 16.3123 9.05486 14.5508 10.5855 13.128L21.6329 32.573L11.85 11.3664C13.1144 9.67257 14.9113 8.38526 16.9078 7.77549L23.696 31.8955L18.7712 6.75919C20.3019 5.87841 21.9656 5.47189 23.696 5.47189C24.0287 5.47189 24.428 5.47189 24.7608 5.53964L25.759 31.6245L26.7573 5.53964C27.09 5.47189 27.4893 5.47189 27.8221 5.47189C29.5524 5.47189 31.2162 5.94616 32.7468 6.75919L27.8221 31.8955L34.6102 7.70773C36.6068 8.31751 38.4036 9.60481 39.6681 11.2986L29.8186 32.573L40.866 13.128C42.3966 14.483 43.4615 16.3123 43.9273 18.3449L31.6155 33.8603L44.3266 20.784C44.9256 22.0713 45.1918 23.4941 45.1918 24.917C45.1918 25.7977 45.0587 26.6108 44.859 27.4916L37.6716 32.7763L36.8064 39.9581H28.1548L26.8238 40.9066C26.4911 41.1776 26.0918 41.2454 25.6925 41.2454C25.2932 41.2454 24.8939 41.1099 24.5611 40.9066L23.3632 39.9581H14.6451Z" fill="#DD1D21"/>
</svg>