<svg width="207" height="303" viewBox="0 0 207 303" fill="none" xmlns="http://www.w3.org/2000/svg">
<mask id="mask0_2715_19202" style="mask-type:alpha" maskUnits="userSpaceOnUse" x="-2" y="0" width="209" height="303">
<rect x="-2" y="0.908203" width="209" height="302.092" fill="#D9D9D9"/>
</mask>
<g mask="url(#mask0_2715_19202)">
<path d="M131.422 304.981C131.346 305.379 131.298 305.757 131.264 306.115C131.071 308.623 130.515 323.359 130.295 329.27L128.88 330.741C122.641 327.304 99.5077 323.084 85.4848 319.325C70.0877 315.201 40.7158 315.077 31.2069 302.706C21.698 290.334 25.4974 281.145 38.6546 268.272C44.6474 262.451 50.9378 256.945 57.5007 251.776C66.7829 244.47 76.3812 237.948 84.0763 234.168L95.3235 230.408L97.7351 230.999L127.636 255.399C128.216 261.55 128.077 267.747 127.224 273.866L125.644 277.303C120.607 276.608 115.487 276.827 110.528 277.949C101.947 279.812 80.4555 287.282 80.4555 287.282C91.6958 289.069 107.89 298.183 112.459 300.218C113.146 300.527 113.579 300.671 113.682 300.602L115.743 302.967C120.422 304.218 126.509 304.781 131.422 304.981Z" fill="#FACF07"/>
<path d="M127.217 273.894L125.637 277.33C120.6 276.635 115.48 276.854 110.521 277.976C101.94 279.839 80.4485 287.31 80.4485 287.31C91.6888 289.097 107.883 298.211 112.452 300.245C107.903 302.816 102.043 304.066 94.5195 303.235C55.2746 298.919 45.9168 289.489 54.7661 279.427C63.6155 269.365 90.5895 265.763 81.4379 259.667C75.2062 255.508 64.117 252.972 57.5006 251.776C66.7828 244.47 76.3811 237.948 84.0762 234.168L95.3234 230.408L97.735 230.999L127.636 255.399C128.215 261.559 128.075 267.766 127.217 273.894V273.894Z" fill="#F4A30C"/>
<path d="M169.141 253.591C169.079 254.23 169.004 254.897 168.908 255.584C164.174 289.221 146.008 303.902 136.616 314.775C127.224 325.648 113.304 338.514 111.298 355.422C109.291 372.33 105.464 383.787 99.6175 397.76C96.1272 406.152 89.4833 419.107 83.7601 429.651C81.2621 430.45 78.6268 430.728 76.0169 430.468C71.5789 429.998 67.3506 428.336 63.7804 425.657C63.1417 425.188 62.5378 424.674 61.9734 424.118C72.7259 402.53 76.2918 371.752 77.1437 363.883C78.0163 355.793 78.7446 339.14 87.4496 315.634C93.1454 300.232 104.77 282.492 112.101 272.093C115.949 266.636 118.615 263.2 118.615 263.2L131.477 245.144C131.477 245.144 133.483 244.051 136.568 242.677L156.493 241.302L169.141 253.591Z" fill="#FACF07"/>
<path d="M169.141 253.591C169.079 254.23 169.004 254.897 168.908 255.584C164.174 289.221 146.008 303.901 136.616 314.774C127.224 325.648 113.304 338.514 111.297 355.422C109.291 372.329 105.464 383.787 99.6174 397.759C96.1271 406.151 89.4833 419.107 83.76 429.65C81.262 430.45 78.6267 430.728 76.0168 430.468C110.212 368.006 94.2996 351.751 110.7 332.184C127.1 312.616 146.516 281.076 143.397 280.911C140.532 280.76 127.883 277.887 112.088 272.072C115.935 266.615 118.601 263.179 118.601 263.179L131.463 245.123C131.463 245.123 133.469 244.03 136.554 242.656L156.479 241.281L169.141 253.591Z" fill="#F4A30C"/>
<path d="M183.171 187.94C182.044 194.909 180.275 201.758 177.888 208.401C173.676 220.023 168.111 228.642 163.157 230.244C162.066 230.587 160.938 230.8 159.797 230.876H159.729C158.864 230.928 157.997 230.928 157.132 230.876C155.927 230.815 154.727 230.682 153.538 230.477C146.475 229.302 137.736 225.714 128.461 220.669C120.978 216.594 114.314 213.418 109.264 211.295C111.318 210.554 113.084 209.18 114.307 207.37C115.005 206.399 115.452 205.269 115.607 204.083C115.761 202.897 115.619 201.691 115.193 200.573L113.991 200.298C108.934 199.047 105.231 198.023 105.018 197.968C105.135 198.181 107.031 201.638 108.907 204.841L91.0431 201.267C91.476 199.418 91.8882 197.473 92.3005 195.404L117.103 193.219H117.447L115.454 189.631L110.116 180.009L97.9138 158.015L87.6078 139.403C87.0586 138.419 86.2203 137.627 85.2065 137.135C84.1926 136.644 83.0521 136.475 81.9396 136.654L81.6166 136.709L40.0494 143.616C31.7291 140.819 30.5954 117.334 30.2107 103.993C30.0939 100.247 30.0252 96.9069 29.9702 94.0133C32.5742 94.7762 36.1538 94.7969 39.2455 94.4876C41.1108 94.3444 42.9543 93.994 44.742 93.4429C45.2299 96.1921 45.752 98.8657 46.1162 100.921C47.3003 106.431 49.7567 111.588 53.2891 115.98C55.0628 118.093 56.5953 120.399 57.8581 122.853C63.169 124.481 75.1033 124.227 87.3193 122.536C90.3629 122.131 93.4272 121.629 96.4022 121.052C111.353 118.165 116.952 117.911 121.288 120.639L123.843 124.914L123.905 125.031C133.62 120.66 142.779 117.471 145.445 119.615C151.759 124.64 165.926 125.334 175.298 137.004C184.669 148.674 186.558 166.984 183.171 187.94Z" fill="#DF1C22"/>
<path d="M88.6522 204.091C88.6522 204.091 83.0732 205.136 79.2531 204.902C77.8309 204.627 76.3812 204.373 74.8834 204.133C73.6055 203.926 72.3001 203.727 70.9809 203.507H70.9122C69.0778 203.212 67.2021 202.889 65.3058 202.504C64.8523 202.407 64.3989 202.325 63.9317 202.263C57.2672 201.184 53.4334 202.655 52.9387 202.043C52.6217 201.561 52.4889 200.981 52.5646 200.41C52.6403 199.838 52.9195 199.312 53.3509 198.93L59.3352 198.4L62.3445 198.132L64.5088 197.933C64.9485 198.297 65.3195 198.62 65.5669 198.827C67.2989 200.342 69.4606 201.279 71.7504 201.507C74.7323 201.961 80.0776 202.73 82.9839 203.26C83.987 203.445 84.9695 203.603 85.8283 203.734C87.491 203.947 88.6522 204.091 88.6522 204.091Z" fill="#F5BE9D"/>
<path d="M85.8694 203.7C82.0425 203.803 78.2224 204.029 74.8764 204.126C73.5985 203.92 72.2931 203.72 70.9739 203.5H70.9052C69.0708 203.205 67.1951 202.882 65.2988 202.497C64.8453 202.401 64.3919 202.318 63.9247 202.256C62.2913 201.102 60.7604 199.81 59.3488 198.394C58.6618 197.706 58.2701 197.294 58.2701 197.294L66.3156 196.304L77.6934 199.053C77.6934 199.053 91.9637 204.311 85.8694 203.7Z" fill="#E88E72"/>
<path d="M114.678 207.349C113.453 209.16 111.685 210.534 109.628 211.274C109.058 211.04 108.515 210.807 107.986 210.587C104.358 209.123 101.741 208.305 100.49 208.195L99.9611 208.16H99.8924C99.6794 208.16 99.4595 208.16 99.2053 208.16H99.1091C98.997 208.154 98.8846 208.154 98.7725 208.16H98.0854H97.3022C96.0311 208.16 94.5952 208.16 93.0493 208.023C92.7813 208.023 92.4996 207.982 92.2248 207.947C91.95 207.913 91.7782 207.913 91.5377 207.879L91.1805 207.831L90.1292 207.686L89.559 207.583C88.2657 207.352 86.9912 207.026 85.7458 206.607C84.7702 206.277 83.7602 205.982 82.7296 205.721C81.5753 205.432 80.4004 205.164 79.1981 204.937C83.0388 205.178 88.5971 204.133 88.5971 204.133C88.5971 204.133 85.8488 203.803 82.9632 203.267C80.0775 202.731 74.7184 201.968 71.7297 201.514C69.4399 201.286 67.2782 200.349 65.5462 198.834C65.2988 198.607 64.9278 198.305 64.4881 197.94L62.2002 196.071C60.5375 194.696 58.8748 193.411 58.5244 193.143C57.8786 192.641 58.016 190.531 60.2077 190.146C62.3994 189.761 67.7654 194.717 71.0289 195.817C72.8084 196.421 76.0926 196.655 79.1156 196.628H79.4317L81.1837 196.469L85.045 196.119L92.5546 195.432C92.1492 197.494 97.1304 198.868 97.1304 198.868L104.654 200.518C102.771 197.287 105.396 198.201 105.286 197.988C105.492 198.036 109.195 199.067 114.259 200.318L115.502 200.628C115.921 201.731 116.065 202.919 115.921 204.091C115.777 205.262 115.351 206.38 114.678 207.349Z" fill="#F5BE9D"/>
<path d="M171.931 257.57C158.155 268.567 126.743 264.67 115.482 252.189C104.221 239.707 91.2217 234.456 84.1313 234.195C77.0408 233.934 78.9714 226.724 84.626 218.154C86.7638 214.862 88.442 211.294 89.614 207.549V207.549L90.1843 207.652L91.2355 207.796L91.5928 207.844C91.8195 207.844 92.0462 207.892 92.2798 207.913C92.5134 207.933 92.8363 207.961 93.1043 207.988C94.6502 208.098 96.0861 208.119 97.3572 208.126H98.1405H98.8275C98.9396 208.119 99.0521 208.119 99.1642 208.126H99.2604C99.4871 208.126 99.707 208.126 99.9474 208.126H100.016L100.545 208.16C101.796 208.27 104.413 209.088 108.041 210.552C108.57 210.758 109.113 210.992 109.683 211.239C111.74 210.5 113.508 209.126 114.733 207.315C115.429 206.342 115.873 205.213 116.028 204.027C116.183 202.842 116.042 201.636 115.619 200.517L114.376 200.208C109.312 198.957 105.609 197.926 105.403 197.878C105.513 198.091 101.809 196.132 103.692 199.363L99.8306 201.06C100.263 199.212 92.2729 197.411 92.6714 195.342C93.0081 193.693 93.3585 191.961 93.6814 190.146C93.9975 188.462 94.3204 186.71 94.6777 184.84L110.48 179.837L144.572 169.053L152.425 166.572L164.614 162.716C164.614 162.716 178.726 172.077 177.393 187.046C176.953 192.077 177.448 200.002 178.293 208.305C179.976 224.717 183.061 242.622 183.061 242.622C183.061 242.622 185.707 246.553 171.931 257.57Z" fill="#DF1C22"/>
<path d="M34.4016 64.9196C34.4016 64.9196 29.867 67.6689 27.7028 67.4695C27.5495 67.4717 27.3974 67.4422 27.256 67.3828C27.1147 67.3235 26.9871 67.2356 26.8813 67.1246C26.7755 67.0136 26.6938 66.8819 26.6413 66.7379C26.5887 66.5938 26.5665 66.4404 26.576 66.2874C26.4523 62.9471 25.5179 59.325 23.9926 55.2905C22.4673 51.2561 20.2687 49.5722 20.255 48.8849C20.2775 48.4413 20.4607 48.0211 20.7703 47.7027C21.0847 47.3651 21.4906 47.1263 21.9383 47.0154C22.4948 46.8694 23.0766 46.8483 23.6422 46.9536C24.2065 47.0602 24.7326 47.3139 25.1675 47.689C26.2826 48.6599 27.2136 49.8241 27.9157 51.1255C28.763 52.6446 29.5156 54.2147 30.1693 55.8266L31.0694 57.7648L34.4016 64.9196Z" fill="#F5BE9D"/>
<path d="M34.2918 56.7062L31.1107 57.7647L28.2182 58.7269L27.3937 59.0018L25.4149 54.3831L25.36 54.3007V54.2251L23.8484 50.6992C23.8484 50.6992 22.914 48.7885 21.9384 46.9878C21.4287 45.9962 20.8405 45.047 20.1795 44.1492C19.1764 42.9877 17.1771 41.8467 17.9328 40.7608C18.0326 40.6195 18.1558 40.4963 18.297 40.3965C19.8772 39.2075 23.1751 40.967 23.1751 40.967C22.9896 40.3965 22.6598 39.503 22.9415 38.9051C23.127 38.5271 23.5599 38.2796 24.4393 38.3209C24.5709 38.3267 24.7018 38.3428 24.8309 38.369C25.8483 38.5874 26.7615 39.1448 27.4212 39.9498C28.8221 41.6104 29.9557 43.4794 30.7809 45.4894L34.2918 56.7062Z" fill="#F5BE9D"/>
<path d="M46.6589 76.2187L34.0719 72.9402C37.6858 70.3491 44.5221 61.531 44.5221 61.531C45.0801 61.5688 45.6406 61.5225 46.1848 61.3936L46.6589 76.2187Z" fill="#F5BE9D"/>
<path d="M58.9778 56.6102C58.1121 57.0432 53.3576 61.6275 52.2377 65.2771C51.1178 68.9266 49.1116 78.8857 43.4846 79.8616C43.1204 83.0438 43.8762 88.4529 44.7488 93.4427C42.9602 93.9906 41.117 94.3409 39.2523 94.4874C36.1674 94.7898 32.574 94.7761 29.9769 94.0132C29.8395 86.5903 29.8533 82.2328 29.8533 82.2328C29.3517 80.0541 27.8608 79.353 26.466 75.7378C25.2774 72.6518 25.0919 68.693 26.576 66.2187C26.8217 65.8107 27.1223 65.4384 27.4692 65.1121C27.6669 64.9225 27.8859 64.7565 28.1219 64.6173C28.218 64.5554 28.3211 64.5004 28.4242 64.4454C28.6873 64.3128 28.9668 64.2157 29.2555 64.1568C29.812 64.024 30.3903 64.0099 30.9526 64.1155C32.0793 64.3286 32.8832 65.0159 32.9656 65.7444C33.0962 66.8098 32.4229 67.8063 31.1174 68.2462C30.1899 68.5692 30.1212 70.6037 30.9113 72.1432C31.1954 72.7572 31.6543 73.2736 32.2305 73.6278V73.6278C32.3088 73.6691 32.3962 73.6904 32.4847 73.6896L41.6776 76.0746L46.6657 76.2395L46.171 61.435C47.6209 61.0836 48.8977 60.2256 49.7712 59.0157C51.1934 57.1738 53.2477 53.9366 56.9578 54.2046C60.668 54.4727 59.8366 56.1909 58.9778 56.6102Z" fill="#F5BE9D"/>
<path d="M46.6589 76.2186L41.6708 76.0537L32.4985 73.6687C33.0791 73.6067 33.6262 73.3667 34.065 72.9814L46.6589 76.2186Z" fill="#F5BE9D"/>
<path d="M46.6589 75.4353C46.6593 75.523 46.6404 75.6097 46.6036 75.6893C46.5668 75.7688 46.513 75.8394 46.4459 75.8958C46.4354 75.915 46.4183 75.9296 46.3978 75.937C46.3728 75.942 46.3471 75.942 46.3222 75.937C46.3049 75.9537 46.2836 75.9655 46.2604 75.9714H46.1367C46.0753 75.9817 46.0126 75.9817 45.9512 75.9714L35.4941 73.3253L34.12 72.9679H34.0788L30.9183 72.15C30.1282 70.6104 30.2312 68.576 31.1244 68.253C32.4298 67.7994 33.1031 66.8165 32.9726 65.7512C32.842 64.6859 31.2137 63.6893 29.2625 64.1635L28.1494 33.7642L28.2525 33.7985L44.8244 38.8983C45.0031 38.9518 45.1604 39.0602 45.2739 39.2083C45.3874 39.3564 45.4513 39.5365 45.4565 39.7231L45.9718 54.3832L46.2054 61.4418L46.6589 75.4353Z" fill="#98D6E3"/>
<path d="M46.0954 76.04C44.7232 76.1442 43.3452 76.1442 41.973 76.04C41.7875 76.036 41.6031 76.0106 41.4234 75.9644L32.4916 73.6481L32.2305 73.6275C31.6522 73.2809 31.1887 72.7718 30.8976 72.1636L34.0649 72.9402L45.8755 75.9987C45.9453 76.027 46.0201 76.0411 46.0954 76.04V76.04Z" fill="#666666"/>
<path d="M123.871 124.887L123.788 125.004C123.788 125.004 108.9 120.708 107.237 133.306C107.237 133.306 96.9311 158.805 104.31 176.263L87.5871 139.3C87.0379 138.315 86.1996 137.524 85.1857 137.032C84.1718 136.54 83.0314 136.372 81.9188 136.55L40.0561 143.616C31.7358 140.818 30.6022 117.333 30.2174 103.993C30.1006 100.247 30.0319 96.9067 29.9769 94.0132C32.5809 94.7761 36.1605 94.7967 39.2523 94.4874C40.3378 105.807 40.6264 134.104 55.6387 142.441C70.651 150.777 65.5118 147.76 75.7696 141.849C78.8133 141.444 80.8058 129.856 96.4364 121.024C111.387 118.137 116.986 117.883 121.322 120.612L123.871 124.887Z" fill="#BF0302"/>
<path d="M146.626 114.082C146.353 114.617 146.112 115.168 145.905 115.732C145.505 116.807 145.174 117.906 144.916 119.024C144.62 120.261 144.387 121.533 144.229 122.756C143.838 125.434 143.609 128.133 143.541 130.839L137.825 134.165C137.825 134.165 120.037 137.547 117.426 132.997C117.253 132.685 117.144 132.343 117.104 131.989C117.064 131.635 117.094 131.277 117.193 130.935C117.715 128.667 118.196 126.261 118.567 123.89C119.398 118.392 119.584 113.12 118.223 110.178L144.881 104.288C145.599 104.942 146.202 105.711 146.668 106.563C147.304 107.715 147.634 109.012 147.627 110.328C147.62 111.644 147.275 112.937 146.626 114.082V114.082Z" fill="#E88E72"/>
<path d="M130.48 138.234C125.671 138.605 121.143 137.76 118.058 135.89C115.715 134.481 114.224 132.488 114.108 129.986C113.922 126 116.753 124.488 118.539 123.931C118.987 123.786 119.447 123.682 119.913 123.622L134.342 121.849C135.407 121.658 136.483 121.539 137.564 121.491C139.708 121.395 142.442 121.574 144.201 122.797C144.718 123.142 145.148 123.603 145.454 124.144C145.761 124.685 145.936 125.29 145.967 125.911C146.468 132.151 138.856 137.547 130.48 138.234Z" fill="#E88E72"/>
<path d="M179.262 95.6214C178.502 98.3103 177.072 100.762 175.106 102.747C173.14 104.732 170.702 106.184 168.021 106.969C163.186 108.48 158.501 110.436 154.026 112.811C151.795 114.106 149.371 115.035 146.846 115.56C146.509 115.636 146.159 115.691 145.905 115.725C146.117 115.162 146.361 114.612 146.633 114.075C147.276 112.927 147.613 111.632 147.613 110.316C147.613 108.999 147.276 107.705 146.633 106.556L149.031 100.432L140.546 70.7341C139.286 69.992 138.197 68.9919 137.351 67.7994C135.798 65.6825 134.5 62.3009 135.668 57.4486C137.962 47.902 145.534 47.2284 155.297 45.9569C165.06 44.6854 166.613 39.0151 166.613 39.0151C166.613 39.0151 166.613 42.4516 162.016 45.2421L161.941 45.2833C161.769 45.3933 161.597 45.4895 161.426 45.5926H161.391C161.185 45.7095 160.951 45.8332 160.704 45.9569C159.6 46.5006 158.451 46.9467 157.269 47.2903C147.945 50.0395 142.614 52.9124 142.415 57.1874C142.415 57.1874 144.668 51.634 154.569 50.5C164.318 49.3934 174.775 42.9396 175.098 42.7266C173.243 44.7569 171.143 46.5485 168.846 48.06C168.846 48.06 169.045 51.6409 171.147 53.4004C173.25 55.1599 182.663 58.3077 185.535 65.2838C187.238 69.4076 187.706 75.1123 187.156 79.9371V79.9784C186.778 83.2568 185.926 86.1641 184.689 87.8892C185.033 87.6487 190.646 83.4217 190.042 71.0022C190.014 71.0159 195.566 89.9442 179.262 95.6214Z" fill="#001F4D"/>
<path d="M160.972 87.5316C160.199 87.5688 159.434 87.7098 158.698 87.9509C152.398 90.0128 153.146 99.1401 152.013 102.322C150.755 105.848 145.108 114.006 134.939 114.281C124.771 114.556 118.182 114.027 114.066 109.092C109.951 104.157 111.875 99.257 114.685 95.1194C117.282 91.2911 120.738 82.748 126.571 77.1465C127.052 76.686 127.547 76.2392 128.069 75.7719C134.987 69.9573 139.192 69.1875 141.652 69.5861C142.519 70.3976 143.457 71.1291 144.455 71.7718C147.684 73.8749 151.463 75.167 155.448 76.7135C160.649 78.7616 162.504 84.9542 160.972 87.5316Z" fill="#F5BE9D"/>
<path d="M104.31 203.837L103.575 206.057C103.575 206.057 95.9279 201.466 90.3696 201.122C84.8112 200.778 83.7326 196.799 85.1891 195.445C86.3228 192.696 93.0285 190.256 93.0285 190.256L104.31 203.837Z" fill="#E88E72"/>
<path d="M152.37 166.606C151.843 173.153 151.701 179.726 151.944 186.29C152.037 191.91 151.106 197.5 149.196 202.785C149.196 202.785 137.406 205.26 126.997 203.157C123.081 202.359 119.055 201.418 115.544 200.559L114.3 200.249C109.236 198.998 105.533 197.967 105.327 197.919C105.437 198.132 102.812 197.232 104.695 200.449L98.6213 199.246C99.0542 197.397 92.1904 197.452 92.5958 195.383L85.0862 196.071L81.2249 196.421C80.0913 194.07 78.6897 191.149 78.4767 190.668L93.592 190.201L115.743 189.514L137.172 188.826C142.27 183.548 142.483 176.262 144.496 169.073C146.022 163.637 148.564 158.262 155.015 153.863C153.641 157.224 152.831 161.781 152.37 166.606Z" fill="#BF0302"/>
<path d="M145.3 186.407L97.7695 188.827C97.7695 188.827 115.633 192.174 115.874 192.119C116.114 192.064 145.321 187.404 145.321 187.404L145.3 186.407Z" fill="#8C8C8C"/>
<path d="M117.426 193.143L85.0862 196.05L79.4729 196.559H79.1568C76.1338 196.559 72.8496 196.353 71.0701 195.748C67.7997 194.648 62.4475 189.693 60.2489 190.078C58.0503 190.462 57.9198 192.572 58.5656 193.074C58.916 193.342 60.5787 194.662 62.2414 196.002L64.5224 197.872L62.3582 198.071L53.3027 198.875H53.0141L38.5515 200.229C37.9169 200.285 37.2786 200.175 36.6992 199.91C36.1199 199.645 35.6193 199.234 35.2467 198.717L2.46699 153.527C2.22277 153.188 2.06918 152.792 2.02079 152.377C1.97239 151.962 2.03079 151.541 2.19045 151.155C2.35011 150.769 2.60573 150.43 2.93309 150.17C3.26044 149.91 3.64867 149.739 4.06097 149.671L40.0699 143.616L40.3859 143.561L81.9326 136.571C83.0451 136.393 84.1856 136.561 85.1995 137.053C86.2133 137.545 87.0516 138.336 87.6008 139.32L116.416 191.301L117.426 193.136V193.143Z" fill="#D9D9D9"/>
<path d="M146.2 187.349C146.223 187.443 146.226 187.54 146.209 187.635C146.192 187.73 146.155 187.821 146.101 187.9C146.046 187.98 145.975 188.048 145.893 188.098C145.811 188.149 145.719 188.182 145.623 188.194L117.454 193.143L116.423 191.28L145.321 186.407C145.507 186.375 145.697 186.416 145.853 186.523C146.008 186.63 146.116 186.793 146.152 186.978L146.2 187.349Z" fill="#666666"/>
<path d="M160.086 230.82C159.131 237.693 152.879 243.714 143.335 242.924C131.594 241.962 120.875 232.614 107.574 230.923C99.6078 229.892 91.5111 231.022 84.1313 234.195C77.0477 233.968 78.9714 226.724 84.626 218.153C86.7638 214.862 88.442 211.294 89.614 207.548L90.1843 207.645C90.5416 207.7 90.8714 207.755 91.2355 207.789L91.5928 207.837C91.8195 207.837 92.0462 207.885 92.2798 207.906C92.5134 207.926 92.8364 207.954 93.1043 207.981C94.6502 208.091 96.0862 208.112 97.3572 208.119H98.1405H98.8275C98.9396 208.112 99.0521 208.112 99.1642 208.119H99.2604C99.4871 208.119 99.707 208.119 99.9474 208.119H100.016L100.483 208.153C101.727 208.263 104.372 209.088 108.041 210.572C108.563 210.772 109.099 210.999 109.662 211.26C114.712 213.377 121.343 216.552 128.832 220.621C139.756 226.573 149.986 230.49 157.564 230.827C158.404 230.877 159.246 230.875 160.086 230.82Z" fill="#BF0302"/>
<path d="M187.129 79.9508C187.493 71.93 184.236 67.5794 184.236 67.5794C186.263 78.6174 180.285 84.4664 180.285 84.4664C181.447 82.4045 184.848 71.6894 179.976 65.9092C175.105 60.129 171.361 63.2287 165.679 61.05C159.997 58.8713 162.298 53.4003 162.298 53.4003L154.94 54.5825C147.574 55.7853 145.884 58.1015 145.884 58.1015C146.482 54.7199 152.631 52.7749 159.007 51.4759C165.383 50.1769 168.818 48.0737 168.818 48.0737C168.818 48.0737 169.018 51.6546 171.12 53.4141C173.222 55.1736 182.635 58.3214 185.507 65.2975C187.211 69.4488 187.678 75.126 187.129 79.9508Z" fill="#F4A30C"/>
<path d="M150.405 104.515C151.491 103.498 155.476 102.377 157.152 104.082C158.829 105.786 158.698 107.36 157.626 108.948C156.554 110.536 149.952 112.845 147.609 112.254C145.266 111.663 146.702 108.501 146.702 108.501L150.405 104.515Z" fill="#F5BE9D"/>
<path d="M141.123 138.076C141.123 138.076 132.122 142.757 122.256 140.825C112.39 138.894 109.765 132.894 109.972 129.987C110.178 127.079 111.882 125.368 115.901 124.488C119.92 123.608 105.513 123.526 105.513 123.526L107.381 133.299C107.381 133.299 109.669 138.928 117.22 141.471C124.771 144.014 134.603 143.3 141.123 138.076Z" fill="#BF0302"/>
<path d="M29.2488 64.1567C28.8457 64.2386 28.4613 64.3947 28.1152 64.6172L27.0228 34.5133C27.0194 34.4236 27.0441 34.335 27.0933 34.2599C27.1426 34.1847 27.214 34.1268 27.2976 34.0941L28.1495 33.7642L29.2488 64.1567Z" fill="#8C8C8C"/>
<path d="M145.101 89.0231C144.929 88.9544 144.73 88.865 144.49 88.7482C144.025 88.5339 143.545 88.3548 143.054 88.2121C137.702 86.5488 130.845 88.3564 130 92.4321C128.921 97.8137 125.142 96.9271 124.015 95.6487C122.909 94.6934 120.442 95.4631 120.058 91.9235C120.786 93.5662 124.214 94.281 125.108 92.9751C126.415 90.8019 128.036 88.8334 129.917 87.133C132.384 84.9818 134.617 84.5007 137.159 85.0711L137.667 85.188L140.237 84.9543C140.237 84.9543 143.184 86.9612 144.764 88.219C144.909 88.4733 145.005 88.7482 145.101 89.0231Z" fill="#E88E72"/>
<path d="M145.52 93.216C145.224 91.3367 144.364 89.5918 143.054 88.2125C141.467 86.6337 139.39 85.6423 137.166 85.4014C137.166 85.4014 137.166 85.2571 137.166 85.044C137.166 84.3017 137.248 82.6659 137.969 82.8859C141.899 84.0612 143.837 86.1781 144.771 88.1919C144.902 88.4737 145.012 88.7486 145.108 89.0235C145.576 90.3686 145.717 91.8056 145.52 93.216V93.216Z" fill="#001F4D"/>
<path d="M117.007 92.8721C116.897 93.1264 116.774 93.4219 116.664 93.7518C115.908 95.9168 115.393 99.4083 118.491 102.137C122.043 105.278 127.423 102.996 129.127 101.731C129.127 101.731 124.86 100.309 123.397 98.7416C121.934 97.1746 119.838 96.6797 118.876 95.4151C117.914 94.1505 117.007 92.8721 117.007 92.8721Z" fill="#E88E72"/>
<path d="M133.414 88.061C134.437 89.548 135.839 90.7344 137.475 91.4976C138.772 92.0821 140.174 92.3999 141.597 92.4323C139.127 91.5596 136.931 90.052 135.228 88.061H133.414Z" fill="#001F4D"/>
<path d="M117.268 94.123C117.522 95.3808 118.69 96.6936 120.896 98.2881C122.766 99.516 124.744 100.572 126.805 101.443C125.372 101.935 123.821 101.962 122.373 101.518C120.312 100.721 117.983 99.1747 117.316 97.209C116.65 95.2433 117.268 94.123 117.268 94.123Z" fill="white"/>
<path d="M100.099 202.566C98.8025 201.281 97.1425 200.427 95.3441 200.119C92.3279 199.597 90.5003 198.951 90.6171 196.408C90.7339 193.865 95.1792 193.328 99.7413 193.658C104.303 193.988 109.58 195.968 108.783 204.215C107.986 212.463 100.099 202.566 100.099 202.566Z" fill="#F5BE9D"/>
<path d="M152.308 105.038C154.369 104.728 156.066 105.251 156.19 106.996C156.314 108.742 153.785 109.746 152.384 109.746C152.384 109.746 154.768 108.99 154.266 107.326C154.115 106.831 153.862 106.372 153.526 105.978C153.189 105.584 152.774 105.264 152.308 105.038V105.038Z" fill="#E88E72"/>
<path d="M166.606 39.0151C166.606 39.0151 166.606 42.4516 162.01 45.2421L161.934 45.2833C161.762 45.3933 161.591 45.4895 161.419 45.5926H161.384C161.178 45.7095 160.945 45.8332 160.697 45.9569C156.671 47.7714 146.084 49.5446 142.085 51.9983C137.839 54.6238 135.304 62.3491 137.365 67.8062C135.812 65.6893 134.513 62.3078 135.681 57.4555C137.976 47.9088 145.548 47.2353 155.311 45.9638C165.074 44.6923 166.606 39.0151 166.606 39.0151Z" fill="#F4A30C"/>
<path d="M39.2454 94.4873C36.1605 94.7897 32.5672 94.776 29.9701 94.013C29.8327 86.5902 29.8464 82.2327 29.8464 82.2327C29.3448 80.0539 27.8539 79.3529 26.4592 75.7377C25.0644 72.1225 25.0851 67.332 27.4623 65.112C27.6601 64.9224 27.8791 64.7563 28.115 64.6171C28.4617 64.3958 28.8459 64.2397 29.2487 64.1566C29.8052 64.0238 30.3834 64.0098 30.9457 64.1154C28.115 64.6171 25.6278 67.9643 27.3317 72.961C29.0357 77.9577 32.416 79.6897 35.4597 83.3805C38.5034 87.0713 38.9637 91.0851 39.2454 94.4873Z" fill="#E88E72"/>
<path d="M28.4173 64.4452C28.3142 64.5002 28.2112 64.5552 28.115 64.6171C27.8791 64.7563 27.6601 64.9224 27.4623 65.1119C27.1154 65.4382 26.8149 65.8105 26.5691 66.2185C26.4386 62.8988 25.5042 59.2974 23.9858 55.2766C22.4673 51.2559 20.2687 49.572 20.255 48.8847C20.2775 48.4411 20.4607 48.0209 20.7703 47.7026C21.1226 48.2916 21.5899 48.8035 22.1444 49.2078C23.5185 50.2525 25.0163 53.4622 25.3667 54.2388L25.4011 54.3144L25.4423 54.4038L25.195 47.6751L24.8583 38.3965C25.862 38.6134 26.7642 39.1602 27.4211 39.9498L27.8677 51.1185L28.1631 58.72L28.4173 64.4452Z" fill="#E88E72"/>
<path d="M27.1463 50.7541C25.4974 47.9431 23.6423 46.9258 21.9384 46.9877C21.4287 45.9961 20.8405 45.0469 20.1795 44.1491C19.1764 42.9876 17.1771 41.8467 17.9328 40.7607C18.5597 41.4597 19.3612 41.9792 20.2551 42.2659C23.1339 43.3519 25.518 46.1767 25.518 46.1767C25.518 46.1767 27.6135 54.4999 27.1463 50.7541Z" fill="#E88E72"/>
<path d="M26.6174 45.3797C26.3838 43.5789 24.9685 42.1768 23.1821 40.9672C22.9966 40.3967 22.6668 39.5032 22.9485 38.9053C23.5256 40.2249 26.6174 42.2456 26.6174 42.2456C26.6174 42.2456 26.8579 47.1735 26.6174 45.3797Z" fill="#E88E72"/>
<path opacity="0.32" d="M45.9718 54.3834C44.9756 66.26 39.2249 71.4973 35.5148 73.353L34.1406 72.9956H34.0994C46.1848 60.3904 36.4492 42.3831 28.2869 33.8193L44.8244 38.8985C45.0032 38.9519 45.1605 39.0604 45.274 39.2085C45.3874 39.3566 45.4513 39.5367 45.4565 39.7233L45.9718 54.3834Z" fill="white"/>
<path d="M130.48 80.3153C129.553 82.8721 125.595 86.068 125.595 86.068C125.595 86.068 127.32 83.47 126.585 82.2191C127.409 81.3738 129.196 78.7826 127.32 77.3049C125.444 75.8272 130.068 77.3737 130.068 77.3737L130.48 80.3153Z" fill="#E88E72"/>
<path d="M130.982 80.6522C129.525 81.1608 130.982 80.6522 129.209 78.549C128.537 77.7713 127.593 77.2796 126.571 77.1744C127.045 76.7139 127.547 76.2672 128.069 75.7998C131.291 76.5627 132.274 80.1985 130.982 80.6522Z" fill="#001F4D"/>
<path d="M128.096 82.8582L124.895 79.9372L123.067 79.8135C124.104 81.298 125.334 82.6658 128.096 82.8582Z" fill="#001F4D"/>
<path d="M130.48 138.234C125.671 138.605 121.143 137.76 118.058 135.89C117.576 135.021 117.354 134.03 117.419 133.038C117.455 132.512 117.595 131.998 117.831 131.526C118.067 131.054 118.394 130.633 118.793 130.289C121.171 128.344 125.664 127.045 126.598 123.588C129.409 124.275 134.032 123.375 137.591 121.526C139.756 120.399 141.528 118.914 142.263 117.203C142.402 117.791 142.751 118.309 143.245 118.658C143.738 119.007 144.342 119.164 144.943 119.1C144.648 120.337 144.414 121.608 144.256 122.832C144.773 123.176 145.203 123.637 145.509 124.178C145.816 124.719 145.991 125.324 146.022 125.945C146.468 132.151 138.856 137.547 130.48 138.234Z" fill="#F5BE9D"/>
<path d="M160.972 87.5317C160.199 87.5689 159.434 87.7099 158.698 87.9509C159.076 85.9509 159.241 81.5934 154.253 79.7858C148.495 77.7239 145.637 74.9265 144.455 71.7993C147.684 73.9025 151.463 75.1946 155.448 76.741C160.649 78.7617 162.504 84.9543 160.972 87.5317Z" fill="#E88E72"/>
</g>
</svg>
