<svg width="66" height="66" viewBox="0 0 66 66" fill="none" xmlns="http://www.w3.org/2000/svg">
<path fill-rule="evenodd" clip-rule="evenodd" d="M50.5712 7.55216C45.622 9.70742 39.8837 7.39355 37.7544 2.38398C37.6381 2.1103 37.5349 1.83423 37.4447 1.55651C37.2263 0.884576 36.6796 0.348383 35.9835 0.285048C34.0141 0.10584 32.0178 0.107907 30.0187 0.300923C29.2498 0.375159 28.6786 1.02025 28.5239 1.78623C27.9061 4.84603 25.8679 7.56027 22.8188 8.88805C19.7698 10.2159 16.4212 9.8474 13.8015 8.19739C13.1457 7.78433 12.2902 7.76053 11.7083 8.27456C10.1951 9.61103 8.82096 11.0767 7.59528 12.6472C7.1621 13.2023 7.17077 13.9728 7.50262 14.5954C7.63979 14.8527 7.76691 15.1184 7.88325 15.3921C10.0125 20.4016 7.72655 26.2099 2.77734 28.3651C2.50687 28.4829 2.23405 28.5874 1.95959 28.6787C1.29573 28.8998 0.765974 29.4532 0.703398 30.1577C0.526343 32.1511 0.528371 34.1716 0.719035 36.1951C0.792371 36.9734 1.42972 37.5516 2.18651 37.7081C5.20956 38.3334 7.89122 40.3965 9.20305 43.4828C10.5149 46.5692 10.1508 49.9588 8.52052 52.6104C8.1124 53.2742 8.08886 54.1402 8.59672 54.7293C9.91706 56.2608 11.365 57.6517 12.9166 58.8923C13.465 59.3307 14.2263 59.322 14.8413 58.986C15.0956 58.8471 15.3582 58.7184 15.6288 58.6006C20.578 56.4453 26.3162 58.7592 28.4455 63.7687C28.5619 64.0426 28.6651 64.3188 28.7554 64.5967C28.9738 65.2687 29.5205 65.805 30.2166 65.8683C32.1859 66.0475 34.1821 66.0454 36.1811 65.8524C36.9501 65.7782 37.5213 65.133 37.6759 64.367C38.2936 61.307 40.3319 58.5925 43.3811 57.2647C46.4303 55.9368 49.779 56.3053 52.3987 57.9555C53.0545 58.3686 53.91 58.3924 54.492 57.8784C56.0051 56.5419 57.3792 55.0763 58.6048 53.5057C59.038 52.9506 59.0293 52.1801 58.6974 51.5576C58.5602 51.3002 58.433 51.0344 58.3167 50.7606C56.1874 45.751 58.4734 39.9428 63.4226 37.7875C63.693 37.6697 63.9659 37.5653 64.2403 37.4739C64.9042 37.2529 65.4339 36.6995 65.4965 35.9949C65.6735 34.0015 65.6714 31.9809 65.4807 29.9574C65.4074 29.1791 64.77 28.601 64.0133 28.4444C60.9903 27.8191 58.3088 25.756 56.997 22.6698C55.6852 19.5836 56.0492 16.1942 57.6792 13.5426C58.0873 12.8788 58.1108 12.0129 57.603 11.4239C56.2825 9.89227 54.8345 8.50133 53.2828 7.26072C52.7345 6.82226 51.9732 6.83105 51.3582 7.16693C51.104 7.30576 50.8416 7.43441 50.5712 7.55216ZM33.0998 52.5133C44.0535 52.5133 52.9332 43.6337 52.9332 32.68C52.9332 21.7264 44.0535 12.8467 33.0998 12.8467C22.1462 12.8467 13.2665 21.7264 13.2665 32.68C13.2665 43.6337 22.1462 52.5133 33.0998 52.5133Z" fill="#D9D9D9"/>
<mask id="mask0" mask-type="alpha" maskUnits="userSpaceOnUse" x="15" y="15" width="36" height="36">
<circle cx="33.0998" cy="32.6799" r="17.4533" fill="#C4C4C4"/>
</mask>
<g mask="url(#mask0)">
<path fill-rule="evenodd" clip-rule="evenodd" d="M46.7366 18.9014C46.7365 18.9013 46.7364 18.9012 46.7364 18.9012C39.1356 11.2515 26.7727 11.2119 19.1231 18.8127C11.4734 26.4135 11.4338 38.7764 19.0346 46.426C19.0347 46.4261 19.0347 46.4261 19.0348 46.4262L46.7366 18.9014Z" fill="#FEF5CD"/>
<path fill-rule="evenodd" clip-rule="evenodd" d="M19.2065 46.2552C19.2912 46.3436 19.3769 46.4314 19.4635 46.5187C27.0643 54.1683 39.4272 54.2079 47.0768 46.6071C54.7265 39.0064 54.7661 26.6435 47.1653 18.9938C47.0786 18.9066 46.9913 18.8204 46.9034 18.7351L19.2065 46.2552Z" fill="#FBCE07"/>
</g>
</svg>
