<svg width="60" height="60" viewBox="0 0 60 60" fill="none" xmlns="http://www.w3.org/2000/svg">
<g clip-path="url(#clip0)">
<rect width="60" height="60" fill="white"/>
<path d="M13.2132 1.8958C0.29768 -3.74812 9.54218 18.7452 10.753 28.3477C9.00403 32.4631 -0.682445 40.659 1.25488 50.5359C3.67654 62.882 28.4403 59.376 44.5846 54.6727C60.729 49.9694 62.8826 18.2241 53.196 9.99339C43.5094 1.76267 29.3576 8.9507 13.2132 1.8958Z" fill="#F7F7F7"/>
<path fill-rule="evenodd" clip-rule="evenodd" d="M45 23H40V25L43 25L43 40V42H45H47H49L49 40V28L51 29.5L52 28L48 25L47 25L47 40H45L45 25V23Z" fill="#7F7F7F"/>
<g filter="url(#filter0_d)">
<rect x="17" y="8" width="26" height="47" fill="white"/>
<rect x="17.25" y="8.25" width="25.5" height="46.5" stroke="#7F7F7F" stroke-width="0.5"/>
</g>
<path fill-rule="evenodd" clip-rule="evenodd" d="M31.1226 23H39C39 17.7533 34.9706 14 30 14C25.0294 14 21 17.7533 21 23H29.5263H29.8172L27 19.6426L27.766 18.9998L31.1226 23Z" fill="#7F7F7F"/>
<path d="M29.2931 40.8492C27.9759 41.3134 27.7519 43.0438 28.1471 44.0567C28.0549 43.8597 27.4358 42.9172 26 43.0297C26.0922 43.2407 27.4094 44.0426 26.9089 45.7308C26.7508 46.1106 26.685 46.5467 26.6718 46.9969V47.0391V47.0672C26.7113 49.1915 28.3315 50.9078 30.3337 50.9219C32.3623 50.9219 33.9956 49.1774 33.9956 47.025C33.9956 47.025 34.0747 45.4213 33.5609 44.732C33.5214 44.8445 33.4556 45.4072 32.9418 45.4072C32.7047 45.3932 32.5335 45.2525 32.5335 44.8445C32.5335 43.9019 33.5214 42.3967 32.1515 41.1306C32.1515 41.1306 32.0593 42.3967 31.3216 42.3826C30.9396 42.3826 30.7947 42.0168 30.7947 41.7355C30.7947 41.0883 31.4665 39.8926 30.1888 38.9219C30.1888 38.9219 30.5576 40.3568 29.2931 40.8492Z" fill="#FBCE07"/>
<g filter="url(#filter1_ddd)">
<rect x="16" y="54" width="28" height="2" fill="#7F7F7F"/>
</g>
</g>
<defs>
<filter id="filter0_d" x="1" y="-1" width="58" height="79" filterUnits="userSpaceOnUse" color-interpolation-filters="sRGB">
<feFlood flood-opacity="0" result="BackgroundImageFix"/>
<feColorMatrix in="SourceAlpha" type="matrix" values="0 0 0 0 0 0 0 0 0 0 0 0 0 0 0 0 0 0 127 0"/>
<feOffset dy="7"/>
<feGaussianBlur stdDeviation="8"/>
<feColorMatrix type="matrix" values="0 0 0 0 0 0 0 0 0 0 0 0 0 0 0 0 0 0 0.08 0"/>
<feBlend mode="normal" in2="BackgroundImageFix" result="effect1_dropShadow"/>
<feBlend mode="normal" in="SourceGraphic" in2="effect1_dropShadow" result="shape"/>
</filter>
<filter id="filter1_ddd" x="1" y="47" width="58" height="38" filterUnits="userSpaceOnUse" color-interpolation-filters="sRGB">
<feFlood flood-opacity="0" result="BackgroundImageFix"/>
<feColorMatrix in="SourceAlpha" type="matrix" values="0 0 0 0 0 0 0 0 0 0 0 0 0 0 0 0 0 0 127 0"/>
<feOffset dy="8"/>
<feGaussianBlur stdDeviation="7.5"/>
<feColorMatrix type="matrix" values="0 0 0 0 0.195833 0 0 0 0 0.209583 0 0 0 0 0.333333 0 0 0 0.1 0"/>
<feBlend mode="normal" in2="BackgroundImageFix" result="effect1_dropShadow"/>
<feColorMatrix in="SourceAlpha" type="matrix" values="0 0 0 0 0 0 0 0 0 0 0 0 0 0 0 0 0 0 127 0"/>
<feMorphology radius="5" operator="erode" in="SourceAlpha" result="effect2_dropShadow"/>
<feOffset dy="8"/>
<feGaussianBlur stdDeviation="5"/>
<feColorMatrix type="matrix" values="0 0 0 0 0.196078 0 0 0 0 0.207843 0 0 0 0 0.333333 0 0 0 0.15 0"/>
<feBlend mode="normal" in2="effect1_dropShadow" result="effect2_dropShadow"/>
<feColorMatrix in="SourceAlpha" type="matrix" values="0 0 0 0 0 0 0 0 0 0 0 0 0 0 0 0 0 0 127 0"/>
<feMorphology radius="16" operator="erode" in="SourceAlpha" result="effect3_dropShadow"/>
<feOffset dy="23"/>
<feGaussianBlur stdDeviation="11"/>
<feColorMatrix type="matrix" values="0 0 0 0 0.196078 0 0 0 0 0.207843 0 0 0 0 0.333333 0 0 0 0.15 0"/>
<feBlend mode="normal" in2="effect2_dropShadow" result="effect3_dropShadow"/>
<feBlend mode="normal" in="SourceGraphic" in2="effect3_dropShadow" result="shape"/>
</filter>
<clipPath id="clip0">
<rect width="60" height="60" fill="white"/>
</clipPath>
</defs>
</svg>
