<svg width="341" height="250" viewBox="0 0 341 250" fill="none" xmlns="http://www.w3.org/2000/svg">
<ellipse cx="236.95" cy="225.638" rx="220.312" ry="216.169" fill="white"/>
<g filter="url(#filter0_d)">
<path d="M454.262 225.638C454.262 343.314 357.022 438.807 236.95 438.807C116.878 438.807 19.6387 343.314 19.6387 225.638C19.6387 107.961 116.878 12.4688 236.95 12.4688C357.022 12.4688 454.262 107.961 454.262 225.638Z" stroke="#F7F7F7" stroke-width="6"/>
</g>
<mask id="mask0" mask-type="alpha" maskUnits="userSpaceOnUse" x="16" y="9" width="442" height="433">
<ellipse cx="236.95" cy="225.638" rx="220.312" ry="216.169" fill="#003C88"/>
</mask>
<g mask="url(#mask0)">
<g opacity="0.28">
<path fill-rule="evenodd" clip-rule="evenodd" d="M120.005 28.5226C120.005 28.5226 155.108 40.004 207.764 40.004C237.368 40.004 242.607 50.0692 246.538 57.6233C249.254 62.8427 251.347 66.8634 260.421 65.5375C260.995 65.4537 261.473 65.2561 261.875 64.961L324.78 40.004C336.196 38.5408 347.119 40.787 355.541 42.5189C365.24 44.5137 371.623 45.8264 371.623 40.004C350.17 20.8681 294.393 -15.1074 242.906 -5.92217C191.419 3.26307 131.705 20.8682 120.005 28.5226ZM73.1967 72.9738L111.047 80.4016C120.678 82.2915 125.091 93.54 119.315 101.475C112.617 110.675 119.763 123.969 131.058 125.359C155.658 128.384 177.648 138.626 160.959 164.826C137.555 201.567 127.804 222.234 125.854 227.975L125.333 230.529C122.149 246.15 109.337 257.987 93.5141 259.927L92.9568 259.996C80.6581 261.504 68.4463 256.593 60.6164 246.99C53.7677 238.59 43.5043 233.716 32.6663 233.716H20.5396C11.3805 233.716 4.43816 225.454 6.22763 216.471C17.8202 158.28 41.9448 68.8199 67.3459 72.9738C95.4297 77.5664 82.948 74.8874 73.1967 72.9738ZM73.6051 279.242L64.4966 288.179C62.5223 290.116 60.1273 291.571 57.4984 292.431L14.6647 306.44C10.8872 307.676 7.62631 310.13 5.39274 313.417C0.589684 320.486 1.43365 329.961 7.41055 336.069L67.3459 397.328L99.058 421.776C105.094 426.43 112.333 429.264 119.925 429.931C142.704 431.93 174.57 434.643 178.511 434.643C184.362 434.643 219.466 434.643 219.466 428.902C219.466 427.638 219.75 424.426 220.13 420.123V420.123C221.476 404.884 224.029 375.971 219.466 371.495C215.013 367.125 157.241 334.692 124.766 316.719C121.593 314.963 118.691 312.799 116.102 310.259L92.4389 287.041C91.3279 285.951 90.4882 284.615 89.9875 283.141C87.6306 276.203 78.8352 274.11 73.6051 279.242ZM231.168 159.086L240.505 152.215C249.349 145.707 254.571 135.38 254.571 124.399C254.571 117.095 256.887 109.978 261.186 104.073L271.807 89.4823C279.077 79.4967 291.661 74.8961 303.656 77.8389C306.029 78.4209 308.46 78.7151 310.903 78.7151H377.438C400.768 78.7151 420.33 91.9219 430.756 101.878C434.391 105.348 438.196 108.681 442.579 111.138L459.33 120.53C470.383 126.727 477.845 137.795 479.447 150.365L493.045 257.109C493.932 264.071 491.511 271.048 486.501 275.964C484.035 278.383 481.043 280.201 477.76 281.275L467.249 284.713C455.206 288.652 441.971 285.554 432.926 276.68C431.045 274.834 428.955 273.213 426.699 271.851L361.047 232.209C356.42 229.415 351.275 227.588 345.923 226.838L320.961 223.339C315.757 222.61 310.748 220.862 306.22 218.197L292.973 210.397C286.983 206.872 280.16 205.012 273.21 205.012C264.903 205.012 256.813 207.668 250.122 212.592L241.677 218.806C238.651 221.033 234.992 222.234 231.235 222.234C221.504 222.234 213.616 214.346 213.616 204.616V193.531V193.1C213.616 182.359 217.935 172.07 225.601 164.548L231.168 159.086ZM285.558 255.79L247.648 252.408C237.691 251.52 228.194 256.774 223.656 265.68C220.956 270.979 220.276 277.08 221.745 282.843L224.217 292.548C224.948 295.417 225.995 298.196 227.34 300.833L245.56 336.589C247.651 340.693 249.018 345.127 249.6 349.695L251.849 367.349C253.548 380.689 261.837 392.282 273.91 398.205L281.341 401.85C286.825 404.541 292.838 405.939 298.946 405.939H371.587C373.203 405.939 375.33 403.202 377.584 399.146C386.217 383.605 379.131 364.48 364.573 354.277L361.237 351.939C352.855 346.065 347.044 337.201 345 327.172L342.333 314.087L336.48 296.858C336.688 296.862 336.896 296.865 337.104 296.865H343.134C350.271 296.865 357.278 294.955 363.428 291.335L373.638 285.323C379.618 281.803 383.288 275.383 383.288 268.444C383.288 264.518 382.109 260.683 379.902 257.436L378.496 255.366C374.096 248.891 367.165 244.578 359.413 243.491L330.631 239.457C327.041 239.457 323.754 241.471 322.124 244.67L320.16 248.523C319.345 250.123 318.276 251.58 316.995 252.837L316.193 253.623C312.69 257.061 310.474 261.357 309.592 265.879L303.902 262.157C298.403 258.56 292.103 256.373 285.558 255.79Z" fill="#D9D9D9"/>
</g>
</g>
<defs>
<filter id="filter0_d" x="0.638672" y="0.46875" width="472.623" height="464.338" filterUnits="userSpaceOnUse" color-interpolation-filters="sRGB">
<feFlood flood-opacity="0" result="BackgroundImageFix"/>
<feColorMatrix in="SourceAlpha" type="matrix" values="0 0 0 0 0 0 0 0 0 0 0 0 0 0 0 0 0 0 127 0"/>
<feOffset dy="7"/>
<feGaussianBlur stdDeviation="8"/>
<feColorMatrix type="matrix" values="0 0 0 0 0 0 0 0 0 0 0 0 0 0 0 0 0 0 0.08 0"/>
<feBlend mode="normal" in2="BackgroundImageFix" result="effect1_dropShadow"/>
<feBlend mode="normal" in="SourceGraphic" in2="effect1_dropShadow" result="shape"/>
</filter>
</defs>
</svg>
