<svg width="177" height="168" viewBox="0 0 177 168" fill="none" xmlns="http://www.w3.org/2000/svg">
<path d="M35.3761 2.59473C-2.03431 -13.7532 24.7429 51.3999 28.2501 79.2141C23.1841 91.1344 -4.87329 114.874 0.738275 143.483C7.75273 179.244 79.4821 169.089 126.245 155.466C173.008 141.842 179.246 49.8905 151.188 26.0498C123.131 2.20912 82.1392 23.0296 35.3761 2.59473Z" fill="#F7F7F7"/>
<rect x="134" y="29" width="13.0778" height="13.0778" fill="#FDEB9C"/>
<rect x="28.168" y="144.09" width="13.0778" height="13.08" transform="rotate(90 28.168 144.09)" fill="#FEF5CD"/>
<rect x="18.0781" y="128" width="13.0778" height="13.0778" transform="rotate(90 18.0781 128)" fill="#FDE26A"/>
<g filter="url(#filter0_d)">
<rect x="27" y="50" width="134" height="90" fill="#F7F7F7"/>
</g>
<g filter="url(#filter1_d)">
<rect x="30" y="53" width="128" height="84" fill="white"/>
</g>
<rect x="84" y="124" width="20" height="8" rx="1" fill="#FBCE07"/>
<rect x="70" y="104" width="48" height="5" rx="1" fill="#D9D9D9"/>
<rect x="79" y="113" width="31" height="5" rx="1" fill="#D9D9D9"/>
<g filter="url(#filter2_d)">
<rect x="112" y="58" width="40" height="40" fill="white"/>
<rect x="112.5" y="58.5" width="39" height="39" stroke="#F7F7F7"/>
</g>
<path d="M129.029 82V84H127.5L126 86H136.5L138 84H135.061V82H142L137.5 88H122L126.5 82H129.029ZM132 68C134.761 68 137 76.567 137 78.5C137 80.1934 135.282 81.6059 133 81.93L133 85H131L130.999 81.9299C128.717 81.6054 127 80.1931 127 78.5C127 76.567 129.239 68 132 68ZM132 70.142L131.951 70.1937C131.868 70.2855 131.776 70.3995 131.679 70.5351C131.233 71.1552 130.767 72.0942 130.334 73.235C129.585 75.2097 129 77.6934 129 78.5C129 79.0146 129.779 79.6636 130.998 79.9044L130.999 78.433L129.948 77.4499L130.999 76.325L131 74.5868L132.288 73.2941L133.705 74.7059L132.999 75.413L132.999 79.905C134.22 79.6647 135 79.015 135 78.5C135 77.6934 134.415 75.2097 133.666 73.235C133.233 72.0942 132.767 71.1552 132.321 70.5351C132.257 70.4447 132.194 70.3639 132.135 70.2929L132 70.142Z" fill="#A6A6A6"/>
<g filter="url(#filter3_d)">
<rect x="36" y="58" width="40" height="40" fill="white"/>
<rect x="36.5" y="58.5" width="39" height="39" stroke="#F7F7F7"/>
</g>
<path d="M65.9963 72L66.0554 88.0374L55.0753 88.0181L55.049 85.016L52.013 85.012L51.9514 88.0122L46 87.9975V76.4338L53 72.2338V75.464L57.9898 72.1383L58.01 76.007H60V72H65.9963ZM64.004 73.999H62V78.0071H56.022L56.01 75.861L52.8092 77.9957L51 78.0213V75.765L48 77.565V86.002L49.992 86.007L50.0542 83.0108L57.0313 83.019L57.057 86.021L64.047 86.033L64.004 73.999ZM53 79V82H50V79H53ZM57 79V82H54V79H57ZM61 79V82H58V79H61ZM62 68L63 71H61L60 68H62ZM65 68L66 71H64L63 68H65Z" fill="#A6A6A6"/>
<path d="M86.4642 68.207L95.5906 78.2449L86.4318 87.4146L85.0167 86.0012L92.8292 78.1797L84.9844 69.5525L86.4642 68.207ZM93.4642 68.207L102.591 78.2449L93.4318 87.4146L92.0167 86.0012L99.8292 78.1797L91.9844 69.5525L93.4642 68.207Z" fill="#003C88"/>
<defs>
<filter id="filter0_d" x="11" y="41" width="166" height="122" filterUnits="userSpaceOnUse" color-interpolation-filters="sRGB">
<feFlood flood-opacity="0" result="BackgroundImageFix"/>
<feColorMatrix in="SourceAlpha" type="matrix" values="0 0 0 0 0 0 0 0 0 0 0 0 0 0 0 0 0 0 127 0" result="hardAlpha"/>
<feOffset dy="7"/>
<feGaussianBlur stdDeviation="8"/>
<feColorMatrix type="matrix" values="0 0 0 0 0 0 0 0 0 0 0 0 0 0 0 0 0 0 0.08 0"/>
<feBlend mode="normal" in2="BackgroundImageFix" result="effect1_dropShadow"/>
<feBlend mode="normal" in="SourceGraphic" in2="effect1_dropShadow" result="shape"/>
</filter>
<filter id="filter1_d" x="14" y="44" width="160" height="116" filterUnits="userSpaceOnUse" color-interpolation-filters="sRGB">
<feFlood flood-opacity="0" result="BackgroundImageFix"/>
<feColorMatrix in="SourceAlpha" type="matrix" values="0 0 0 0 0 0 0 0 0 0 0 0 0 0 0 0 0 0 127 0" result="hardAlpha"/>
<feOffset dy="7"/>
<feGaussianBlur stdDeviation="8"/>
<feColorMatrix type="matrix" values="0 0 0 0 0 0 0 0 0 0 0 0 0 0 0 0 0 0 0.08 0"/>
<feBlend mode="normal" in2="BackgroundImageFix" result="effect1_dropShadow"/>
<feBlend mode="normal" in="SourceGraphic" in2="effect1_dropShadow" result="shape"/>
</filter>
<filter id="filter2_d" x="96" y="49" width="72" height="72" filterUnits="userSpaceOnUse" color-interpolation-filters="sRGB">
<feFlood flood-opacity="0" result="BackgroundImageFix"/>
<feColorMatrix in="SourceAlpha" type="matrix" values="0 0 0 0 0 0 0 0 0 0 0 0 0 0 0 0 0 0 127 0" result="hardAlpha"/>
<feOffset dy="7"/>
<feGaussianBlur stdDeviation="8"/>
<feColorMatrix type="matrix" values="0 0 0 0 0 0 0 0 0 0 0 0 0 0 0 0 0 0 0.08 0"/>
<feBlend mode="normal" in2="BackgroundImageFix" result="effect1_dropShadow"/>
<feBlend mode="normal" in="SourceGraphic" in2="effect1_dropShadow" result="shape"/>
</filter>
<filter id="filter3_d" x="20" y="49" width="72" height="72" filterUnits="userSpaceOnUse" color-interpolation-filters="sRGB">
<feFlood flood-opacity="0" result="BackgroundImageFix"/>
<feColorMatrix in="SourceAlpha" type="matrix" values="0 0 0 0 0 0 0 0 0 0 0 0 0 0 0 0 0 0 127 0" result="hardAlpha"/>
<feOffset dy="7"/>
<feGaussianBlur stdDeviation="8"/>
<feColorMatrix type="matrix" values="0 0 0 0 0 0 0 0 0 0 0 0 0 0 0 0 0 0 0.08 0"/>
<feBlend mode="normal" in2="BackgroundImageFix" result="effect1_dropShadow"/>
<feBlend mode="normal" in="SourceGraphic" in2="effect1_dropShadow" result="shape"/>
</filter>
</defs>
</svg>
