<svg width="177" height="168" viewBox="0 0 177 168" fill="none" xmlns="http://www.w3.org/2000/svg">
<path d="M35.3761 2.59473C-2.03431 -13.7532 24.7429 51.3999 28.2501 79.2141C23.1841 91.1344 -4.87329 114.874 0.738275 143.483C7.75273 179.244 79.4821 169.089 126.245 155.466C173.008 141.842 179.246 49.8905 151.188 26.0498C123.131 2.20912 82.1392 23.0296 35.3761 2.59473Z" fill="#F7F7F7"/>
<rect x="14" y="142" width="13.0778" height="13.0778" fill="#FDEB9C"/>
<rect width="13.0778" height="13.08" transform="matrix(1 -8.74228e-08 -8.74228e-08 -1 115.09 44.168)" fill="#FEF5CD"/>
<rect width="13.0778" height="13.0778" transform="matrix(1 -8.74228e-08 -8.74228e-08 -1 98 38.0781)" fill="#FDE26A"/>
<g filter="url(#filter0_d)">
<rect x="27" y="50" width="134" height="90" fill="#F7F7F7"/>
</g>
<g filter="url(#filter1_d)">
<rect x="30" y="53" width="128" height="84" fill="white"/>
</g>
<path fill-rule="evenodd" clip-rule="evenodd" d="M40 121H148V125H40V121Z" fill="#D9D9D9"/>
<path fill-rule="evenodd" clip-rule="evenodd" d="M52.4417 77.0117L52 80.9873L56.2378 81.4581L56.7622 81.5164L65.2378 82.4581L65.7622 82.5164L69.2101 82.8995L71.7398 85.881L72.6519 86.9559L78.7398 94.131L79.6519 95.2059L82.6958 98.7934L83.2398 99.4345L84.0767 99.4943C84.0779 99.4944 84.0791 99.4945 84.0803 99.4945L88.99 99.8452L89.2749 95.8554L85.202 95.5645L82.7019 92.618L81.7898 91.5431L75.7019 84.368L74.7898 83.293L71.7459 79.7055C71.7457 79.7053 71.7455 79.7051 71.7454 79.7049L71.2317 79.0995L70.4422 79.0118C70.442 79.0118 70.4419 79.0117 70.4417 79.0117L66.204 78.5409L65.6795 78.4826L57.204 77.5409L56.6795 77.4826L52.4417 77.0117ZM100.942 96.6887L91.1184 95.9871L90.8335 99.9769L100.657 100.679L100.942 96.6887ZM112.608 97.5221L102.785 96.8204L102.5 100.81L112.323 101.512L112.608 97.5221ZM119.363 98.0046L114.452 97.6537L114.167 101.644L119.078 101.994L119.363 98.0046Z" fill="#D9D9D9"/>
<circle cx="49" cy="78" r="6" fill="#7F7F7F"/>
<path d="M49 72C52.3137 72 55 74.6863 55 78C55 81.3137 52.3137 84 49 84C45.6863 84 43 81.3137 43 78C43 74.6863 45.6863 72 49 72ZM51.1352 75.3535L47.5106 78.9782L46.4202 77.8985L45.5757 78.7511L47.5143 80.6714L51.9837 76.202L51.1352 75.3535Z" fill="#FBCE07"/>
<circle cx="70" cy="82" r="6" fill="#7F7F7F"/>
<path d="M70 76C73.3137 76 76 78.6863 76 82C76 85.3137 73.3137 88 70 88C66.6863 88 64 85.3137 64 82C64 78.6863 66.6863 76 70 76ZM72.1352 79.3535L68.5106 82.9782L67.4202 81.8985L66.5757 82.7511L68.5143 84.6714L72.9837 80.202L72.1352 79.3535Z" fill="#FBCE07"/>
<circle cx="84" cy="97" r="6" fill="#7F7F7F"/>
<path d="M84 91C87.3137 91 90 93.6863 90 97C90 100.314 87.3137 103 84 103C80.6863 103 78 100.314 78 97C78 93.6863 80.6863 91 84 91ZM86.1352 94.3535L82.5106 97.9782L81.4202 96.8985L80.5757 97.7511L82.5143 99.6714L86.9837 95.202L86.1352 94.3535Z" fill="#FBCE07"/>
<path d="M133 90C139.075 90 144 94.9249 144 101C144 103.214 143.346 105.275 142.22 107.001L144 107V109H138V103H140L139.999 106.657C141.253 105.106 142 103.14 142 101C142 96.0294 137.971 92 133 92C128.029 92 124 96.0294 124 101C124 105.971 128.029 110 133 110C134.255 110 135.45 109.743 136.535 109.279L138.037 110.781C136.528 111.56 134.815 112 133 112C126.925 112 122 107.075 122 101C122 94.9249 126.925 90 133 90ZM133.001 94C134.765 94 135.73 95.7645 136.38 98.6666C136.759 100.361 137.001 102.552 137 103.501C136.998 104.912 135.724 105.718 134.001 105.938L134 108H132L132 105.94C130.297 105.724 129 104.924 129 103.5C129 102.535 129.241 100.349 129.622 98.6559C130.272 95.7609 131.238 94 133.001 94ZM133.001 96C132.634 96 132.014 97.1302 131.573 99.0941C131.225 100.643 131 102.682 131 103.5C131 103.597 131.38 103.796 131.999 103.912L132 99H134L134.002 103.913C134.633 103.798 135 103.599 135 103.499L134.991 103.167C134.946 102.224 134.735 100.471 134.428 99.1039C133.987 97.1351 133.366 96 133.001 96Z" fill="#003C88"/>
<defs>
<filter id="filter0_d" x="11" y="41" width="166" height="122" filterUnits="userSpaceOnUse" color-interpolation-filters="sRGB">
<feFlood flood-opacity="0" result="BackgroundImageFix"/>
<feColorMatrix in="SourceAlpha" type="matrix" values="0 0 0 0 0 0 0 0 0 0 0 0 0 0 0 0 0 0 127 0" result="hardAlpha"/>
<feOffset dy="7"/>
<feGaussianBlur stdDeviation="8"/>
<feColorMatrix type="matrix" values="0 0 0 0 0 0 0 0 0 0 0 0 0 0 0 0 0 0 0.08 0"/>
<feBlend mode="normal" in2="BackgroundImageFix" result="effect1_dropShadow"/>
<feBlend mode="normal" in="SourceGraphic" in2="effect1_dropShadow" result="shape"/>
</filter>
<filter id="filter1_d" x="14" y="44" width="160" height="116" filterUnits="userSpaceOnUse" color-interpolation-filters="sRGB">
<feFlood flood-opacity="0" result="BackgroundImageFix"/>
<feColorMatrix in="SourceAlpha" type="matrix" values="0 0 0 0 0 0 0 0 0 0 0 0 0 0 0 0 0 0 127 0" result="hardAlpha"/>
<feOffset dy="7"/>
<feGaussianBlur stdDeviation="8"/>
<feColorMatrix type="matrix" values="0 0 0 0 0 0 0 0 0 0 0 0 0 0 0 0 0 0 0.08 0"/>
<feBlend mode="normal" in2="BackgroundImageFix" result="effect1_dropShadow"/>
<feBlend mode="normal" in="SourceGraphic" in2="effect1_dropShadow" result="shape"/>
</filter>
</defs>
</svg>
