<svg width="177" height="168" viewBox="0 0 177 168" fill="none" xmlns="http://www.w3.org/2000/svg">
<path d="M35.3761 2.59473C-2.03431 -13.7532 24.7429 51.3999 28.2501 79.2141C23.1841 91.1344 -4.87329 114.874 0.738275 143.483C7.75273 179.244 79.4821 169.089 126.245 155.466C173.008 141.842 179.246 49.8905 151.188 26.0498C123.131 2.20912 82.1392 23.0296 35.3761 2.59473Z" fill="#F7F7F7"/>
<rect x="14" y="142" width="13.0778" height="13.0778" fill="#FDEB9C"/>
<rect width="13.0778" height="13.08" transform="matrix(1 -8.74228e-08 -8.74228e-08 -1 115.09 44.168)" fill="#FEF5CD"/>
<rect width="13.0778" height="13.0778" transform="matrix(1 -8.74228e-08 -8.74228e-08 -1 98 38.0781)" fill="#FDE26A"/>
<g filter="url(#filter0_d)">
<rect x="27" y="50" width="134" height="90" fill="#F7F7F7"/>
</g>
<g filter="url(#filter1_d)">
<rect x="30" y="53" width="128" height="84" fill="white"/>
</g>
<path d="M124.371 80.9898L125.717 79.51L129.998 83.4036L129.999 76.1531L131.999 76.1531L131.998 83.1896L135.651 79.5424L137.064 80.9574L130.999 87.0156L124.371 80.9898ZM119.371 73.0737L125.999 67.0479L132.064 73.1061L130.651 74.5212L126.998 70.8746L126.999 77.998L124.999 77.998L124.998 70.6606L120.717 74.5535L119.371 73.0737Z" fill="#FBCE07"/>
<path d="M58 118H66V77H58V118Z" fill="#7F7F7F"/>
<path fill-rule="evenodd" clip-rule="evenodd" d="M57.5 118.5H66.5V76.5H57.5V118.5ZM58.5 117.5V77.5H65.5V117.5H58.5Z" fill="#7F7F7F"/>
<path d="M74 118H82V63H74V118Z" fill="#7F7F7F"/>
<path fill-rule="evenodd" clip-rule="evenodd" d="M73.5 118.5H82.5V62.5H73.5V118.5ZM74.5 117.5V63.5H81.5V117.5H74.5Z" fill="#7F7F7F"/>
<path fill-rule="evenodd" clip-rule="evenodd" d="M89 119H91V117H90V117.056H89V119ZM93 119H95V117H93V119ZM97 119H99V117.056H98V117H97V119ZM99 115.167V113.278H97V115.167H99ZM89 113.278V115.167H91V113.278H89ZM99 111.389V109.5H97V111.389H99ZM89 109.5V111.389H91V109.5H89ZM99 107.611V105.722H97V107.611H99ZM89 105.722V107.611H91V105.722H89ZM99 103.833V101.944H97V103.833H99ZM89 101.944V103.833H91V101.944H89ZM99 100.056V98.1667H97V100.056H99ZM89 98.1667V100.056H91V98.1667H89ZM99 96.2778V94.3889H97V96.2778H99ZM89 94.3889V96.2778H91V94.3889H89ZM99 92.5V90.6111H97V92.5H99ZM89 90.6111V92.5H91V90.6111H89ZM99 88.7222V86.8333H97V88.7222H99ZM89 86.8333V88.7222H91V86.8333H89ZM91 83H89V84.9444H90V85H91V83ZM95 83H93V85H95V83ZM97 83V85H98V84.9444H99V83H97Z" fill="#003C88"/>
<path fill-rule="evenodd" clip-rule="evenodd" d="M105 119H107V117H106V117.036H105V119ZM109 119H111V117H109V119ZM113 119H115V117.036H114V117H113V119ZM115 115.107V113.179H113V115.107H115ZM105 113.179V115.107H107V113.179H105ZM115 111.25V109.321H113V111.25H115ZM105 109.321V111.25H107V109.321H105ZM115 107.393V105.464H113V107.393H115ZM105 105.464V107.393H107V105.464H105ZM115 103.536V101.607H113V103.536H115ZM105 101.607V103.536H107V101.607H105ZM115 99.6786V97.75H113V99.6786H115ZM105 97.75V99.6786H107V97.75H105ZM115 95.8214V93.8929H113V95.8214H115ZM105 93.8929V95.8214H107V93.8929H105ZM107 90H105V91.9643H106V92H107V90ZM111 90H109V92H111V90ZM113 90V92H114V91.9643H115V90H113Z" fill="#003C88"/>
<path fill-rule="evenodd" clip-rule="evenodd" d="M121 119H123V116.95H121V119ZM125 119H127V117H125V119ZM129 119H131V116.95H129V119ZM131 114.85V112.75H129V114.85H131ZM121 112.75V114.85H123V112.75H121ZM121 108.55V110.65H123V108.55H121ZM131 110.65V108.55H129V110.65H131ZM121 104.35V106.45H123V104.35H121ZM131 106.45V104.35H129V106.45H131ZM121 100.15V102.25H123V100.15H121ZM131 102.25V100.15H129V102.25H131ZM121 98.05H123V96H121V98.05ZM131 98.05V96H129V98.05H131ZM127 96H125V98H127V96Z" fill="#003C88"/>
<path fill-rule="evenodd" clip-rule="evenodd" d="M40 125.5H148V129.5H40V125.5Z" fill="#D9D9D9"/>
<defs>
<filter id="filter0_d" x="11" y="41" width="166" height="122" filterUnits="userSpaceOnUse" color-interpolation-filters="sRGB">
<feFlood flood-opacity="0" result="BackgroundImageFix"/>
<feColorMatrix in="SourceAlpha" type="matrix" values="0 0 0 0 0 0 0 0 0 0 0 0 0 0 0 0 0 0 127 0" result="hardAlpha"/>
<feOffset dy="7"/>
<feGaussianBlur stdDeviation="8"/>
<feColorMatrix type="matrix" values="0 0 0 0 0 0 0 0 0 0 0 0 0 0 0 0 0 0 0.08 0"/>
<feBlend mode="normal" in2="BackgroundImageFix" result="effect1_dropShadow"/>
<feBlend mode="normal" in="SourceGraphic" in2="effect1_dropShadow" result="shape"/>
</filter>
<filter id="filter1_d" x="14" y="44" width="160" height="116" filterUnits="userSpaceOnUse" color-interpolation-filters="sRGB">
<feFlood flood-opacity="0" result="BackgroundImageFix"/>
<feColorMatrix in="SourceAlpha" type="matrix" values="0 0 0 0 0 0 0 0 0 0 0 0 0 0 0 0 0 0 127 0" result="hardAlpha"/>
<feOffset dy="7"/>
<feGaussianBlur stdDeviation="8"/>
<feColorMatrix type="matrix" values="0 0 0 0 0 0 0 0 0 0 0 0 0 0 0 0 0 0 0.08 0"/>
<feBlend mode="normal" in2="BackgroundImageFix" result="effect1_dropShadow"/>
<feBlend mode="normal" in="SourceGraphic" in2="effect1_dropShadow" result="shape"/>
</filter>
</defs>
</svg>
