<svg width="168" height="178" viewBox="0 0 168 178" fill="none" xmlns="http://www.w3.org/2000/svg">
<path d="M35.3761 2.59473C-2.03431 -13.7532 24.7429 51.3999 28.2501 79.2141C23.1841 91.1344 -4.87329 114.874 0.738275 143.483C7.75273 179.244 79.4821 169.089 126.245 155.466C173.008 141.842 179.246 49.8905 151.188 26.0498C123.131 2.20912 82.1392 23.0296 35.3761 2.59473Z" fill="#F7F7F7"/>
<rect x="12" y="133" width="13.0778" height="13.0778" fill="#FDEB9C"/>
<rect x="135" y="41.0781" width="13.0778" height="13.08" transform="rotate(-90 135 41.0781)" fill="#FEF5CD"/>
<rect x="145.09" y="57.168" width="13.0778" height="13.0778" transform="rotate(-90 145.09 57.168)" fill="#FDE26A"/>
<g filter="url(#filter0_d)">
<rect x="33" y="26" width="95" height="129" fill="white"/>
</g>
<rect x="71" y="135" width="20" height="8" rx="1" fill="#FBCE07"/>
<rect x="57" y="108" width="48" height="5" rx="1" fill="#D9D9D9"/>
<rect x="66" y="119" width="31" height="5" rx="1" fill="#D9D9D9"/>
<g filter="url(#filter1_d)">
<rect x="25" y="49" width="32" height="32" fill="white"/>
<rect x="25.5" y="49.5" width="31" height="31" stroke="#F7F7F7"/>
</g>
<g filter="url(#filter2_d)">
<rect x="105" y="49" width="32" height="32" fill="white"/>
<rect x="105.5" y="49.5" width="31" height="31" stroke="#F7F7F7"/>
</g>
<g filter="url(#filter3_d)">
<rect x="61" y="45" width="40" height="40" fill="white"/>
<rect x="61.5" y="45.5" width="39" height="39" stroke="#F7F7F7"/>
</g>
<path d="M120.947 57H114.981L114.98 73H120.947V57ZM122.936 73H123.929V75H112V73H112.992L112.994 55H122.936V59C124.754 59 125.864 60.0154 125.941 61.76L125.945 61.9568L125.945 70.953L126.005 70.9673C126.076 70.9811 126.171 70.9921 126.29 70.9968L126.417 70.9992C126.599 70.9992 126.738 70.9854 126.835 70.9663L126.911 70.946L126.912 63.7635L129.01 59.5521L130.787 60.4479L128.901 64.235V65H130.889V69H128.9L128.901 70.9992C128.901 72.2683 127.976 72.9418 126.6 72.9957L126.417 72.9992C124.995 72.9992 124.011 72.3687 123.959 71.1602L123.957 61.9568C123.957 61.2564 123.763 61.0268 123.072 61.0023L122.936 61L122.936 73ZM119.954 58V62H115.977L115.986 58H119.954Z" fill="#A6A6A6"/>
<path d="M40.5838 56.4424C41.3511 55.7417 42.3121 55.9137 43.095 56.6745C43.8641 57.4219 44.0319 58.3451 43.3636 58.9868L43.2571 59.0809L40.1389 62.1101L43.3875 65.2809L46.8032 61.9632C47.5321 61.2976 48.4358 61.4196 49.1956 62.0857L49.3143 62.1954C50.0835 62.9428 50.2512 63.866 49.583 64.5077L49.4764 64.6018L46.0768 67.9045L47.0508 68.8544L43.0211 72.7703C41.3547 74.3897 39.4517 74.4042 37.7317 72.8461L37.5658 72.6904L35.6499 70.8142L32.5417 73.939L31.172 72.6519L34.3067 69.5005L32.3521 67.5873C30.6392 65.9227 30.5479 64.0676 32.1118 62.4296L32.2683 62.2717L36.2941 58.3596L37.4495 59.4865L40.5838 56.4424ZM36.2914 60.9805L33.6156 63.581C32.6879 64.4825 32.6637 65.2084 33.5752 66.1536L33.6994 66.2781L38.9131 71.3811C39.9008 72.3409 40.6458 72.3946 41.5544 71.5732L41.6738 71.4611L44.3589 68.8516L36.2914 60.9805Z" fill="#A6A6A6"/>
<path fill-rule="evenodd" clip-rule="evenodd" d="M75.1636 58.924C79.6309 54.0846 84.429 53.7257 86.5777 54.1163L87.0307 54.1987L87.2626 54.5963C90.2627 59.7394 89.2384 65.2791 88.3248 67.4782C87.0462 70.6709 85.2162 72.4325 83.3421 73.2643C81.4943 74.0845 79.7004 73.9558 78.5571 73.5401L79.2406 71.6605C79.9307 71.9114 81.1868 72.0328 82.5307 71.4363C83.847 70.852 85.3491 69.5321 86.4704 66.7289L86.4731 66.7223L86.4758 66.7157C87.2045 64.9669 88.0753 60.3578 85.7696 56.0248C83.994 55.8681 80.2633 56.3481 76.6331 60.2805C73.8433 63.3027 73.6976 65.811 74.2718 67.6104C74.6983 68.9472 75.5539 69.9924 76.2743 70.6346L80.5283 63.1082L82.2694 64.0924L75.7695 75.5924L74.0283 74.6083L75.2733 72.4056C74.2322 71.5717 72.9762 70.1292 72.3664 68.2184C71.5445 65.6427 71.9539 62.401 75.1636 58.924Z" fill="#003C88"/>
<defs>
<filter id="filter0_d" x="17" y="17" width="127" height="161" filterUnits="userSpaceOnUse" color-interpolation-filters="sRGB">
<feFlood flood-opacity="0" result="BackgroundImageFix"/>
<feColorMatrix in="SourceAlpha" type="matrix" values="0 0 0 0 0 0 0 0 0 0 0 0 0 0 0 0 0 0 127 0" result="hardAlpha"/>
<feOffset dy="7"/>
<feGaussianBlur stdDeviation="8"/>
<feColorMatrix type="matrix" values="0 0 0 0 0 0 0 0 0 0 0 0 0 0 0 0 0 0 0.08 0"/>
<feBlend mode="normal" in2="BackgroundImageFix" result="effect1_dropShadow"/>
<feBlend mode="normal" in="SourceGraphic" in2="effect1_dropShadow" result="shape"/>
</filter>
<filter id="filter1_d" x="9" y="40" width="64" height="64" filterUnits="userSpaceOnUse" color-interpolation-filters="sRGB">
<feFlood flood-opacity="0" result="BackgroundImageFix"/>
<feColorMatrix in="SourceAlpha" type="matrix" values="0 0 0 0 0 0 0 0 0 0 0 0 0 0 0 0 0 0 127 0" result="hardAlpha"/>
<feOffset dy="7"/>
<feGaussianBlur stdDeviation="8"/>
<feColorMatrix type="matrix" values="0 0 0 0 0 0 0 0 0 0 0 0 0 0 0 0 0 0 0.08 0"/>
<feBlend mode="normal" in2="BackgroundImageFix" result="effect1_dropShadow"/>
<feBlend mode="normal" in="SourceGraphic" in2="effect1_dropShadow" result="shape"/>
</filter>
<filter id="filter2_d" x="89" y="40" width="64" height="64" filterUnits="userSpaceOnUse" color-interpolation-filters="sRGB">
<feFlood flood-opacity="0" result="BackgroundImageFix"/>
<feColorMatrix in="SourceAlpha" type="matrix" values="0 0 0 0 0 0 0 0 0 0 0 0 0 0 0 0 0 0 127 0" result="hardAlpha"/>
<feOffset dy="7"/>
<feGaussianBlur stdDeviation="8"/>
<feColorMatrix type="matrix" values="0 0 0 0 0 0 0 0 0 0 0 0 0 0 0 0 0 0 0.08 0"/>
<feBlend mode="normal" in2="BackgroundImageFix" result="effect1_dropShadow"/>
<feBlend mode="normal" in="SourceGraphic" in2="effect1_dropShadow" result="shape"/>
</filter>
<filter id="filter3_d" x="45" y="36" width="72" height="72" filterUnits="userSpaceOnUse" color-interpolation-filters="sRGB">
<feFlood flood-opacity="0" result="BackgroundImageFix"/>
<feColorMatrix in="SourceAlpha" type="matrix" values="0 0 0 0 0 0 0 0 0 0 0 0 0 0 0 0 0 0 127 0" result="hardAlpha"/>
<feOffset dy="7"/>
<feGaussianBlur stdDeviation="8"/>
<feColorMatrix type="matrix" values="0 0 0 0 0 0 0 0 0 0 0 0 0 0 0 0 0 0 0.08 0"/>
<feBlend mode="normal" in2="BackgroundImageFix" result="effect1_dropShadow"/>
<feBlend mode="normal" in="SourceGraphic" in2="effect1_dropShadow" result="shape"/>
</filter>
</defs>
</svg>
